<svg width="101" height="101" viewBox="0 0 101 101" fill="none" xmlns="http://www.w3.org/2000/svg">
<g clip-path="url(#clip0_3114_6477)">
<path d="M99.6497 33.243L76.1261 9.39102C75.5714 8.82852 74.814 8.51172 74.0237 8.51172H62.4095H38.5905H26.9765C26.1862 8.51172 25.429 8.82852 24.8741 9.39102L1.35051 33.243C0.264768 34.3438 0.212034 36.0957 1.22981 37.2598L48.2771 91.0752C48.8378 91.7166 49.6482 92.0844 50.5001 92.0844C51.3521 92.0844 52.1622 91.7164 52.7232 91.0752L99.7704 37.2598C100.788 36.0961 100.735 34.3441 99.6497 33.243ZM72.7884 14.4172L90.488 32.3637H76.1448L67.1841 14.4172H72.7884ZM40.4167 14.4172H60.5835L69.5442 32.3637H31.456L40.4167 14.4172ZM28.2114 14.4172H33.8157L24.855 32.3637H10.512L28.2114 14.4172ZM9.95637 38.2693H24.7591L39.9382 72.5645L9.95637 38.2693ZM50.5001 81.8361L31.2173 38.2691H69.7831L50.5001 81.8361ZM61.0618 72.5643L76.2409 38.2691H91.0437L61.0618 72.5643Z" fill="url(#paint0_linear_3114_6477)"/>
</g>
<defs>
<linearGradient id="paint0_linear_3114_6477" x1="50.5" y1="8.51172" x2="50.5" y2="92.0844" gradientUnits="userSpaceOnUse">
<stop stop-color="#FF7816"/>
<stop offset="1" stop-color="#FFC316"/>
</linearGradient>
<clipPath id="clip0_3114_6477">
<rect width="100" height="100" fill="white" transform="translate(0.5 0.296875)"/>
</clipPath>
</defs>
</svg>
