<svg width="600" height="1024" viewBox="0 0 600 1024" fill="none" xmlns="http://www.w3.org/2000/svg">
<rect width="600" height="1024" fill="#073D30"/>
<mask id="mask0_2102_3882" style="mask-type:alpha" maskUnits="userSpaceOnUse" x="0" y="0" width="600" height="1024">
<rect width="600" height="1024" fill="#073D30"/>
</mask>
<g mask="url(#mask0_2102_3882)">
<g opacity="0.1">
<path d="M216.836 1115.89C254.107 1026.76 264.377 949.148 246.072 878.55C227.767 807.952 180.413 742.143 104.868 677.472C96.3153 670.797 89.6843 662.395 85.4638 652.884C81.2433 643.373 79.5402 632.995 80.4793 622.514C81.6911 611.404 86.3359 600.606 93.8935 591.328C101.05 582.376 110.537 575.049 121.456 570.04C131.704 565.309 142.891 562.698 154.13 562.415C165.369 562.132 176.352 564.185 186.208 568.411L576.333 723.965C603.861 735.411 621.379 751.037 626.913 771.691C632.447 792.346 626.197 814.661 606.866 837.914L342.473 1170.77C335.316 1179.82 325.953 1187.37 315.157 1192.79C304.361 1198.22 292.441 1201.35 280.381 1201.95C268.899 1202.28 257.638 1200.41 247.358 1196.47C236.421 1192.02 227.221 1184.96 220.718 1176.02C214.723 1167.31 211.246 1157.32 210.571 1146.86C209.896 1136.4 212.043 1125.79 216.836 1115.89V1115.89ZM314.39 860.565C336.011 943.535 325.286 1033.14 282.446 1134.35C281.414 1135.97 280.684 1137.72 280.286 1139.52L281.312 1139.25C282.253 1139.14 283.17 1138.85 284.001 1138.41C284.831 1137.97 285.557 1137.37 286.128 1136.67L550.66 803.887C556.291 796.603 559.585 791.55 559.05 789.554C558.515 787.559 553.486 784.308 544.511 780.938L154.305 625.084C153.771 624.739 153.129 624.543 152.451 624.516C151.774 624.49 151.089 624.634 150.475 624.934V624.934C151.617 627.24 153.328 629.263 155.488 630.863C240.024 703.071 292.71 777.824 314.767 860.143L314.39 860.565Z" fill="white"/>
<path d="M809.975 992.994C721.93 926.86 668.182 854.53 645.306 771.896C622.431 689.261 631.157 598.587 668.606 493.694C669.855 491.264 670.333 488.616 669.983 486.052V486.052C669.301 486.1 668.636 486.317 668.062 486.679C667.489 487.041 667.03 487.533 666.739 488.098L406.738 818.174C400.765 825.55 397.84 830.611 398.455 832.906C399.07 835.201 403.57 837.845 412.887 841.123L808.032 997.151C808.876 997.471 809.8 997.621 810.741 997.591C811.683 997.56 812.619 997.349 813.487 996.973L814.515 996.697C813.312 995.383 811.93 994.21 810.398 993.202L809.975 992.994ZM713.464 753.312C732.34 823.757 779.925 885.867 857.222 944.294C866.484 950.339 873.769 958.433 878.427 967.857C883.086 977.28 884.974 987.742 883.926 998.311C882.946 1009.31 878.537 1020.05 871.197 1029.31C864.322 1037.91 855.492 1045.17 845.339 1050.57C834.596 1056.08 822.703 1059.33 810.643 1060.03C798.582 1060.73 786.699 1058.87 775.975 1054.61L380.575 898.548C352.698 887.623 335.989 871.817 330.445 851.129C324.911 830.474 331.161 808.16 350.043 784.599L610.124 454.822C616.579 446.262 625.072 439.013 634.94 433.643C644.808 428.272 655.785 424.923 667.016 423.857C679.078 422.719 691.065 424.288 701.872 428.42C712.853 432.865 722.122 439.9 728.74 448.813C734.932 457.363 738.726 467.205 739.829 477.574C740.932 487.943 739.313 498.561 735.097 508.602C702.009 602.382 694.052 682.69 713.579 753.281L713.464 753.312Z" fill="white"/>
</g>
</g>
</svg>
