<svg width="178" height="178" viewBox="0 0 178 178" fill="none" xmlns="http://www.w3.org/2000/svg">
<rect width="178" height="178" fill="#093E30"/>
<path d="M52.5869 113.543C59.0494 105.179 62.3245 97.2774 62.389 89.3161C62.4535 81.3536 59.3196 73.0665 53.1658 64.0901C52.4413 63.129 51.9714 62.0372 51.7918 60.8947C51.6122 59.7515 51.7281 58.5877 52.1305 57.4893L52.1311 57.4874L52.1311 57.4875C52.5819 56.3269 53.3922 55.3008 54.4695 54.5227C55.4938 53.7687 56.7202 53.2565 58.0323 53.0336C59.2644 52.8212 60.5361 52.8625 61.7469 53.1545C62.9573 53.4464 64.0743 53.9809 65.0092 54.7166C65.0096 54.7168 65.0099 54.7171 65.0102 54.7173L101.886 82.2421L101.887 82.2429C104.487 84.2437 105.925 86.4201 105.925 88.8076C105.925 91.1929 104.606 93.4041 101.884 95.3287C101.884 95.329 101.884 95.3292 101.883 95.3294L64.4644 123.058L52.5869 113.543ZM52.5869 113.543C51.7892 114.467 51.2534 115.544 51.025 116.687C50.7963 117.831 50.8823 119.005 51.2757 120.114L51.2767 120.116C51.7185 121.266 52.5039 122.289 53.5491 123.08L53.5507 123.081C54.5381 123.798 55.6891 124.321 56.9258 124.614L56.9279 124.615C58.2348 124.896 59.5994 124.902 60.9094 124.632C62.2193 124.361 63.4378 123.822 64.4642 123.058L52.5869 113.543ZM59.6887 59.8584C59.7113 59.8608 59.7335 59.8654 59.7551 59.8721C59.8101 59.8891 59.8568 59.9189 59.8908 59.9564L59.8972 59.9635L59.905 59.9693L96.7823 87.5295L96.784 87.5308C97.2081 87.8342 97.5265 88.1046 97.7375 88.325C97.8432 88.4353 97.92 88.5311 97.9698 88.6103C98.0213 88.6924 98.0366 88.7456 98.0366 88.7737C98.0366 88.798 98.0214 88.8465 97.9656 88.9252C97.9121 89.0007 97.8306 89.0912 97.721 89.1968C97.5022 89.4075 97.1826 89.6677 96.7822 89.9726C96.782 89.9728 96.7818 89.9729 96.7816 89.9731L59.3498 117.69C59.3496 117.69 59.3493 117.691 59.3491 117.691C59.2801 117.74 59.1992 117.777 59.1113 117.797C59.0361 117.815 58.9577 117.82 58.8803 117.813C58.9558 117.698 59.047 117.591 59.1524 117.494L59.1585 117.488L59.1636 117.482C66.563 107.992 70.2505 98.8086 70.3291 89.4052L70.3361 89.4006L70.3813 89.371V89.3169C70.3813 79.9531 66.9152 70.5281 60.0085 60.4777L60.0087 60.4776L60.0044 60.4721C59.856 60.2854 59.7493 60.0772 59.6887 59.8584Z" fill="#E18427" stroke="#E18427" stroke-width="0.2"/>
<path d="M124.432 123.076L124.432 123.077C123.449 123.8 122.296 124.324 121.055 124.61L121.054 124.61C119.747 124.892 118.382 124.898 117.072 124.627C115.763 124.357 114.544 123.818 113.518 123.054L124.432 123.076ZM124.432 123.076C125.486 122.293 126.27 121.266 126.692 120.111C127.11 119.005 127.208 117.825 126.979 116.677C126.749 115.53 126.2 114.452 125.381 113.538C118.895 105.209 115.633 97.3393 115.606 89.4126H115.62L115.619 89.3118C115.554 81.3153 118.662 73.0623 124.816 64.0863C125.555 63.131 126.034 62.0385 126.214 60.8933C126.394 59.7471 126.27 58.5803 125.851 57.4836L125.85 57.4825C125.396 56.3334 124.602 55.3115 123.553 54.5193L123.551 54.5182C122.511 53.765 121.273 53.2533 119.949 53.0292L119.949 53.0292C118.717 52.8212 117.447 52.8648 116.237 53.1566C115.028 53.4483 113.91 53.9803 112.973 54.7121C112.972 54.7123 112.972 54.7125 112.972 54.7128L76.0969 82.2373C76.0968 82.2374 76.0966 82.2375 76.0965 82.2376C73.4145 84.2072 72.0953 86.4181 72.0953 88.8033C72.0953 91.1931 73.4415 93.3663 76.0967 95.3239L113.517 123.054L124.432 123.076ZM118.844 117.478L118.85 117.485L118.857 117.491L118.891 117.521C118.981 117.623 119.061 117.73 119.13 117.842C119.052 117.85 118.973 117.845 118.896 117.827C118.808 117.806 118.727 117.77 118.658 117.72C118.658 117.72 118.658 117.72 118.658 117.72L81.2638 90.0019L81.2639 90.0018L81.2607 89.9997C80.816 89.6954 80.4982 89.4447 80.2927 89.2403C80.1899 89.1381 80.1178 89.0499 80.0718 88.9748C80.0255 88.8991 80.0099 88.8431 80.0099 88.8033C80.0099 88.7654 80.0272 88.7074 80.0785 88.6256C80.1289 88.5454 80.2064 88.4511 80.3129 88.3428C80.5256 88.1265 80.8441 87.8642 81.263 87.5599L81.2641 87.5591L118.142 59.9989L118.149 59.9931L118.156 59.986C118.19 59.9486 118.236 59.9188 118.292 59.9017C118.316 59.8942 118.34 59.8894 118.366 59.8873C118.318 60.1083 118.209 60.3177 118.046 60.4968L118.046 60.4962L118.038 60.5071C111.093 70.5572 107.587 79.9261 107.665 89.3474C107.743 98.7692 111.392 107.969 118.844 117.478Z" fill="#E18427" stroke="#E18427" stroke-width="0.2"/>
</svg>
