<svg width="30" height="30" viewBox="0 0 30 30" fill="none" xmlns="http://www.w3.org/2000/svg">
<g clip-path="url(#clip0_741_610)">
<path d="M23.9987 7.70683C24.5895 7.7568 25.1129 7.7518 25.6163 7.85173C26.2764 7.97899 26.8727 8.32955 27.3049 8.84453C27.737 9.3595 27.9788 10.0075 27.9896 10.6797C28.0146 11.6166 27.9759 12.5534 28.0134 13.4902C28.0253 13.6095 28.0624 13.7248 28.1223 13.8286C28.1821 13.9324 28.2634 14.0223 28.3606 14.0923C29.4511 14.7281 29.997 15.6537 29.997 16.9091C29.997 18.1644 29.997 19.4073 29.997 20.6564C29.997 21.9055 29.4648 22.8286 28.3731 23.4045C28.0521 23.5718 27.9884 23.768 27.9984 24.0877C28.0146 24.9621 28.0134 25.8365 27.9984 26.7109C27.9759 28.4596 26.713 29.745 24.9518 29.7475C17.6644 29.7583 10.3779 29.7583 3.09226 29.7475C1.29353 29.7475 0.0194353 28.4696 0.016937 26.6771C0.00694413 21.4309 -0.0117957 16.1846 0.0294252 10.9383C0.0406672 9.53929 0.0394181 8.08282 0.40416 6.75251C2.13543 0.47321 9.84497 -1.82891 14.8015 2.39934C15.1525 2.70038 15.4135 2.75784 15.837 2.57672C17.0923 2.0396 18.3727 1.53995 19.6493 1.04031C21.9626 0.123456 23.995 1.50373 24 3.99446C24.0012 5.2136 23.9987 6.44023 23.9987 7.70683ZM17.9955 9.76163C17.5258 13.7201 15.5659 16.5456 11.7799 17.7785C7.99378 19.0113 4.76233 17.8609 2.01677 14.9255V15.5825C2.01677 19.1633 2.01468 22.7441 2.01052 26.3249C2.01052 27.4703 2.29158 27.7476 3.45325 27.7476H24.5633C24.7507 27.7476 24.983 27.8113 25.1154 27.7239C25.4252 27.524 25.9036 27.268 25.9273 27.0007C26.021 25.9377 25.9661 24.8622 25.9661 23.753C24.9455 23.753 23.99 23.7667 23.0356 23.753C21.2769 23.7242 20.0215 22.4589 20.0053 20.6989C19.9928 19.4922 20.0053 18.2843 20.0053 17.0764C20.0053 14.9729 21.2307 13.7625 23.3542 13.7588H25.996C25.996 12.6871 26.0198 11.6915 25.9873 10.6972C25.9686 10.1364 25.5426 9.77037 24.933 9.76662C22.6384 9.75413 20.3488 9.76163 17.9955 9.76163ZM9.01431 2.25195C7.16249 2.25259 5.3862 2.98619 4.07361 4.29247C2.76102 5.59874 2.01885 7.37146 2.00928 9.22326C1.99429 13.0718 5.13206 16.2345 8.9631 16.2395C9.8817 16.2429 10.792 16.0653 11.6419 15.7169C12.4919 15.3684 13.2649 14.856 13.9168 14.2088C14.5688 13.5617 15.0868 12.7924 15.4415 11.945C15.7961 11.0977 15.9804 10.1887 15.9838 9.2701C15.9871 8.3515 15.8095 7.44123 15.4611 6.59126C15.1127 5.7413 14.6002 4.96829 13.9531 4.31636C13.3059 3.66443 12.5366 3.14636 11.6892 2.79172C10.8419 2.43708 9.93291 2.25281 9.01431 2.24945V2.25195ZM24.938 21.7519C25.6038 21.7519 26.2696 21.7656 26.9366 21.7519C27.6036 21.7381 27.9834 21.3647 27.9909 20.7001C28.0067 19.4094 28.0067 18.1186 27.9909 16.8279C27.9821 16.1721 27.5937 15.7799 26.9304 15.7699C25.6404 15.7516 24.3497 15.7516 23.0581 15.7699C22.3998 15.7811 22.0126 16.1783 22.0051 16.8354C21.9901 18.1253 21.9901 19.416 22.0051 20.7076C22.0139 21.3722 22.3923 21.7369 23.0644 21.7531C23.6889 21.7644 24.3135 21.7531 24.938 21.7519ZM21.9926 7.72557C21.9926 6.35154 22.0201 5.0025 21.9814 3.6572C21.9614 2.96395 21.3094 2.57922 20.6286 2.80531C20.1951 2.94896 19.7767 3.13632 19.3532 3.30495C18.4414 3.67219 17.5295 4.04318 16.6939 4.38044C17.1336 5.53587 17.5433 6.61636 17.9655 7.72307L21.9926 7.72557Z" fill="#E18427"/>
<path d="M10.0049 10.341C10.0049 10.8819 10.0049 11.4203 10.0049 11.9649C10.0049 12.793 9.63017 13.2652 8.98938 13.2552C8.34858 13.2452 8.00633 12.7805 8.00383 11.9349C8.00383 11.3978 8.00383 10.8619 8.00383 10.2598C7.35179 10.2598 6.75471 10.2673 6.15763 10.2598C5.44189 10.2486 4.98846 9.83513 5.00845 9.22931C5.02718 8.64347 5.46063 8.27248 6.15638 8.26124C6.73847 8.25375 7.32056 8.26124 8.00383 8.26124C8.00383 7.69165 8.00383 7.13704 8.00383 6.58743C8.00383 5.73553 8.34734 5.27835 8.98688 5.26586C9.62643 5.25337 10.0024 5.73178 10.0049 6.61616C10.0049 7.09457 10.0049 7.57298 10.0112 8.05264C10.0212 8.12314 10.0363 8.19285 10.0561 8.26124C10.6295 8.26124 11.224 8.26124 11.8186 8.26124C12.5519 8.26999 12.999 8.65222 13.0003 9.26054C13.0015 9.86885 12.5531 10.2498 11.8211 10.2598C11.259 10.2698 10.6969 10.2711 10.1361 10.2786C10.1186 10.2723 10.1011 10.2911 10.0049 10.341Z" fill="#E18427"/>
</g>
<defs>
<clipPath id="clip0_741_610">
<rect width="30" height="29.5041" fill="white" transform="translate(0 0.25)"/>
</clipPath>
</defs>
</svg>
