<svg width="51" height="51" viewBox="0 0 51 51" fill="none" xmlns="http://www.w3.org/2000/svg">
<g clip-path="url(#clip0_1271_1658)">
<path d="M49.886 18.936L41.7161 5.80976C41.4177 5.33047 40.8932 5.03906 40.3288 5.03906H9.93699C9.37273 5.03906 8.84823 5.33047 8.54969 5.80976L0.379836 18.936C-0.0123484 19.5662 0.0688033 20.381 0.578077 20.9208L23.9439 45.7021C24.2527 46.0295 24.683 46.2152 25.1329 46.2152C25.5828 46.2152 26.013 46.0295 26.3218 45.7016L49.6877 20.9208C50.1964 20.3804 50.2782 19.5662 49.886 18.936ZM25.133 42.1995L3.81936 19.5945L10.8449 8.307H39.4214L46.4465 19.5945L25.133 42.1995Z" fill="#E18427"/>
<path d="M48.4973 18.1641H1.76562V21.432H48.4973V18.1641Z" fill="#E18427"/>
<path d="M16.9173 19.6407L19.4369 6.98994L16.2316 6.35156L13.6173 19.4778C13.5557 19.7883 13.5851 20.1097 13.7028 20.4038L23.6156 45.1857L26.6499 43.9723L16.9173 19.6407Z" fill="#E18427"/>
<path d="M36.7521 19.3466L34.0288 6.60156L30.8333 7.28456L33.4526 19.541L23.6172 43.9689L26.6482 45.189L36.6705 20.2986C36.7913 19.9964 36.8202 19.6646 36.7521 19.3466Z" fill="#E18427"/>
</g>
<defs>
<clipPath id="clip0_1271_1658">
<rect width="50" height="50" fill="white" transform="translate(0.132812 0.625)"/>
</clipPath>
</defs>
</svg>
