<svg width="124" height="26" viewBox="0 0 124 26" fill="none" xmlns="http://www.w3.org/2000/svg">
<path d="M36.9536 3.07775C31.9211 3.07775 27.3919 6.70116 27.3919 12.715C27.3919 18.7289 31.7953 22.3774 36.9033 22.3774C40.5015 22.3774 43.4707 20.6412 45.0811 17.823L43.1436 16.4642C42.112 18.8798 39.7215 20.2135 36.9788 20.2135C33.1038 20.2135 29.8075 17.5211 29.8075 12.7402C29.8075 7.8838 33.1792 5.24174 37.004 5.24174C39.6963 5.24174 42.0365 6.57535 43.0933 8.94063L45.0056 7.55669C43.4456 4.63783 40.2751 3.07775 36.9536 3.07775ZM52.937 8.48771C49.0116 8.48771 45.9669 11.3311 45.9669 15.4326C45.9669 19.5341 49.0116 22.3774 52.937 22.3774C56.8875 22.3774 59.9573 19.5341 59.9573 15.4326C59.9573 11.3311 56.8875 8.48771 52.937 8.48771ZM48.3322 15.4326C48.3322 12.5389 50.2446 10.6265 52.937 10.6265C55.6294 10.6265 57.5669 12.5389 57.5669 15.4326C57.5669 18.3514 55.6294 20.2386 52.937 20.2386C50.2949 20.2386 48.3322 18.3514 48.3322 15.4326ZM61.7871 8.91547V22H64.1021V14.9545C64.1021 12.1614 65.5615 10.6265 67.9016 10.6265C70.0153 10.6265 71.0973 11.8343 71.0973 14.2751V22H73.4122V13.9228C73.4122 10.5259 71.6005 8.51287 68.43 8.51287C66.4422 8.51287 65.4105 9.26774 64.7814 9.9723L64.1021 12.8912V8.91547H61.7871ZM74.0415 8.91547L79.5772 22H82.0683L87.5538 8.91547H85.0627L80.8354 19.3831L76.5829 8.91547H74.0415ZM88.8192 8.91547V22H91.1341V15.659C91.1341 12.2621 92.7949 10.9788 95.0343 10.9788C95.4369 10.9788 95.8144 11.0291 96.217 11.1298V8.76449C95.8898 8.689 95.6382 8.66384 95.2859 8.66384C93.5749 8.66384 92.4174 9.46904 91.8135 10.0981L91.1341 13.4447V8.91547H88.8192ZM99.1673 5.79531V8.91547H96.8523V10.9788H99.1673V18.4521C99.1673 21.2703 100.627 22.3271 103.269 22.3271C103.646 22.3271 104.577 22.2265 104.98 22.0755V20.0373C104.602 20.1128 103.973 20.2135 103.621 20.2135C102.212 20.2135 101.482 19.9367 101.482 18.1501V10.9788H105.231V8.91547H101.482V4.05909L99.1673 5.79531ZM106.299 3.50552L112.665 12.5137L105.921 22H108.739L113.973 14.4009L119.132 22H122.151L115.458 12.6647L121.95 3.50552H119.207L114.175 10.7775L109.218 3.50552H106.299Z" fill="white"/>
<path d="M0.484478 20.0477C2.36836 17.6097 3.32541 15.3035 3.34425 12.9775C3.36309 10.6515 2.44751 8.23329 0.654055 5.61739C0.445687 5.34115 0.31076 5.02759 0.259249 4.69975C0.207738 4.37192 0.240938 4.03815 0.356387 3.72301C0.485427 3.39076 0.717651 3.09644 1.02706 2.873C1.32142 2.6563 1.67415 2.50888 2.05188 2.44471C2.40664 2.38355 2.77284 2.39547 3.12141 2.47953C3.46998 2.56359 3.79138 2.71749 4.06013 2.92901L14.7945 10.9414C15.5481 11.5213 15.9587 12.1473 15.9587 12.8292C15.9587 13.5112 15.582 14.1471 14.7945 14.7038L3.90187 22.7756C3.60666 22.9954 3.25591 23.1506 2.87857 23.2285C2.50122 23.3064 2.10809 23.3048 1.73163 23.2236C1.37521 23.139 1.04374 22.9884 0.759564 22.7822C0.459358 22.5548 0.234244 22.2613 0.107701 21.9322C-0.00508864 21.6144 -0.029705 21.2778 0.0358135 20.9501C0.101332 20.6224 0.255102 20.3131 0.484478 20.0477ZM5.59737 12.9874C5.57853 15.7219 4.50849 18.3938 2.35332 21.1579C2.30812 21.1995 2.27117 21.2474 2.24404 21.2996H2.27794C2.30779 21.304 2.33842 21.3028 2.36767 21.296C2.39693 21.2892 2.42415 21.2769 2.44752 21.2601L13.3439 13.1916C13.5775 13.0137 13.7207 12.8852 13.7207 12.8193C13.7207 12.7535 13.5926 12.6118 13.3439 12.4339L2.60951 4.41158C2.59589 4.39656 2.57773 4.3852 2.55707 4.37879C2.53642 4.37238 2.51412 4.37118 2.49273 4.37533C2.5089 4.45581 2.54491 4.53227 2.59824 4.59937C4.60646 7.52166 5.61245 10.2595 5.61245 12.9775L5.59737 12.9874Z" fill="#E18427"/>
<path d="M19.7696 21.1567C17.6031 18.3925 16.5444 15.7206 16.5218 12.9861C16.4992 10.2516 17.5165 7.53028 19.536 4.60799C19.5946 4.54346 19.6311 4.46581 19.6415 4.38395C19.6201 4.3798 19.5978 4.381 19.5772 4.38741C19.5565 4.39381 19.5383 4.40518 19.5247 4.42019L8.79032 12.4425C8.54542 12.6204 8.41354 12.7522 8.41354 12.828C8.41354 12.9037 8.53035 13.0223 8.79032 13.2003L19.6754 21.2687C19.6988 21.2855 19.726 21.2978 19.7553 21.3046C19.7845 21.3114 19.8151 21.3127 19.8449 21.3082H19.8789C19.8527 21.2578 19.8198 21.2103 19.7809 21.1665L19.7696 21.1567ZM18.7749 12.9762C18.7749 15.3022 19.7281 17.6084 21.6271 20.0464C21.8625 20.3091 22.0201 20.6186 22.0859 20.9473C22.1516 21.2761 22.1234 21.6139 22.0039 21.9309C21.8829 22.2616 21.6584 22.5561 21.3558 22.7809C21.0731 22.989 20.7411 23.1398 20.3838 23.2224C20.0073 23.3035 19.6142 23.3052 19.2368 23.2273C18.8595 23.1493 18.5087 22.9941 18.2135 22.7743L7.32088 14.7026C6.55226 14.1359 6.16797 13.511 6.16797 12.828C6.16797 12.146 6.54472 11.5101 7.32088 10.9402L18.0553 2.92775C18.3248 2.71731 18.6462 2.56412 18.9946 2.48012C19.3429 2.39612 19.7087 2.38357 20.0635 2.44344C20.4445 2.50796 20.8008 2.65524 21.0996 2.87174C21.4012 3.09932 21.6287 3.39256 21.759 3.72174C21.8792 4.03628 21.9148 4.37079 21.8632 4.69933C21.8116 5.02787 21.6741 5.34159 21.4613 5.61613C19.6679 8.23203 18.7598 10.6404 18.7787 12.9762H18.7749Z" fill="#E18427"/>
</svg>
