<svg width="36" height="36" viewBox="0 0 36 36" fill="none" xmlns="http://www.w3.org/2000/svg">
<g clip-path="url(#clip0_2271_5461)">
<path d="M9.93451 28.8115C9.80376 28.7162 9.67159 28.6237 9.53942 28.527L9.2026 28.288L9.31345 28.1158C10.756 25.8825 10.6636 23.8269 9.05196 22.329C8.30973 21.6387 7.33358 21.2559 6.32044 21.2578C5.45003 21.2579 4.60283 21.5388 3.90443 22.0587C3.11221 22.6323 2.56395 23.4826 2.36813 24.4414C2.08389 25.7573 2.4065 26.9536 3.34732 28.0988L3.50365 28.288L3.29332 28.416C0.907151 29.8741 -0.161579 32.0321 0.0245962 35.0109C0.0643893 35.6553 0.350047 35.9824 0.877306 35.9853C4.04655 36.0009 7.50002 36.0024 11.7437 35.9853C12.2411 35.9853 12.5481 35.7093 12.5964 35.2342C12.8266 32.382 11.9597 30.2781 9.93451 28.8115ZM6.2778 22.9649C6.89671 22.9634 7.49188 23.2031 7.93727 23.6333C8.38266 24.0634 8.64329 24.6502 8.66397 25.2694C8.67045 25.5737 8.61623 25.8763 8.50447 26.1594C8.3927 26.4425 8.22564 26.7004 8.01306 26.9181C7.79765 27.1413 7.53985 27.3192 7.2548 27.4414C6.96975 27.5635 6.66319 27.6274 6.35312 27.6293H6.32044C5.70725 27.6356 5.11636 27.3994 4.67613 26.9721C4.45873 26.759 4.28584 26.5048 4.16751 26.2242C4.04917 25.9436 3.98777 25.6422 3.98686 25.3376C3.98068 24.7198 4.21743 24.1242 4.64602 23.6795C5.07461 23.2348 5.6607 22.9766 6.2778 22.9606V22.9649ZM10.8554 34.2654H1.84086L1.81528 34.0791C1.75376 33.551 1.80177 33.0159 1.95632 32.5073C2.11087 31.9987 2.36863 31.5274 2.71347 31.1231C3.12755 30.6175 3.64035 30.2018 4.22047 29.9014C4.8006 29.6011 5.43585 29.4223 6.08736 29.3762C6.685 29.3328 7.28514 29.4143 7.84959 29.6156C8.41404 29.817 8.93047 30.1336 9.36603 30.5455C9.84056 30.9971 10.2176 31.5412 10.4737 32.1443C10.7299 32.7474 10.8598 33.3967 10.8554 34.0521V34.2654Z" fill="#E18427"/>
<path d="M33.6439 29.0689C33.4534 28.9125 33.2431 28.7645 33.0413 28.6208C32.9446 28.5526 32.8466 28.4786 32.757 28.4146L32.5993 28.2979L32.7002 28.1315C34.1598 25.7345 34.0546 23.77 32.389 22.2906C31.6455 21.6271 30.6847 21.2596 29.6887 21.2578C28.7561 21.2636 27.8539 21.5899 27.1331 22.1822C26.4122 22.7745 25.9166 23.5967 25.7293 24.5111C25.4664 25.7544 25.7805 26.8996 26.7241 28.1173L26.8662 28.3065L26.6616 28.4302C24.3095 29.8527 23.2422 31.978 23.3929 34.9383C23.4312 35.6766 23.7055 35.9924 24.311 35.9952C27.5228 36.0066 30.9536 36.0066 35.1119 35.9952C35.615 35.9952 35.9277 35.7235 35.9647 35.2541C36.1935 32.5641 35.4331 30.5398 33.6439 29.0689ZM29.6816 22.9663H29.6901C29.9966 22.9654 30.3001 23.026 30.5828 23.1445C30.8654 23.263 31.1215 23.437 31.3359 23.6562C31.5579 23.8804 31.7325 24.1472 31.8492 24.4405C31.9659 24.7338 32.0224 25.0476 32.0152 25.3632C32.0118 25.6662 31.9488 25.9656 31.8296 26.2441C31.7104 26.5227 31.5374 26.7749 31.3206 26.9864C31.1038 27.1978 30.8474 27.3644 30.5662 27.4764C30.2849 27.5884 29.9843 27.6438 29.6816 27.6393H29.656C29.0395 27.634 28.45 27.3849 28.0163 26.9462C27.5825 26.5076 27.3398 25.915 27.3409 25.2978C27.3551 24.682 27.6066 24.0954 28.0429 23.6609C28.4791 23.2264 29.0663 22.9775 29.6816 22.9663V22.9663ZM34.245 34.2654H25.2319L25.2063 34.0805C25.1408 33.553 25.1855 33.0177 25.3374 32.5084C25.4893 31.9991 25.7452 31.5269 26.0889 31.1216C26.5018 30.6164 27.0136 30.2011 27.5929 29.9012C28.1721 29.6013 28.8065 29.4231 29.4571 29.3776C30.0605 29.3344 30.6664 29.418 31.2357 29.6231C31.805 29.8281 32.3251 30.1501 32.7627 30.5683C33.2356 31.0163 33.6113 31.5569 33.8665 32.1565C34.1218 32.7561 34.2511 33.4018 34.2465 34.0535L34.245 34.2654Z" fill="#E18427"/>
<path d="M12.6484 14.7518C16.1047 14.7703 19.7102 14.7703 23.3669 14.7518C23.4946 14.7586 23.6223 14.7398 23.7426 14.6966C23.8629 14.6534 23.9734 14.5865 24.0676 14.5C24.1451 14.4139 24.2047 14.3132 24.2427 14.2038C24.2808 14.0943 24.2966 13.9784 24.2893 13.8627C24.2765 13.0163 24.2609 12.0561 24.0704 11.1599C23.7208 9.51688 22.7345 8.21385 21.0518 7.17682L20.8657 7.06159L20.9864 6.87667C22.4787 4.61626 22.3778 2.54648 20.7022 1.04429C19.9697 0.378469 19.0174 0.00665085 18.0279 8.83682e-05C17.0385 -0.00647411 16.0814 0.352681 15.3401 1.00872C13.6347 2.48389 13.5267 4.56505 15.0175 6.88236L15.1369 7.06728L14.9493 7.18109C12.5972 8.60362 11.5384 10.7445 11.6948 13.7148C11.7345 14.4203 12.033 14.749 12.6484 14.7518ZM18.002 1.71857H18.0105C18.6324 1.71574 19.23 1.96032 19.6717 2.3985C20.1135 2.83668 20.3633 3.43257 20.3661 4.05508C20.3689 4.67759 20.1246 5.27572 19.6868 5.7179C19.2491 6.16008 18.6537 6.41009 18.0318 6.41292H18.002C17.6925 6.41181 17.3863 6.3495 17.101 6.22958C16.8156 6.10967 16.5568 5.9345 16.3393 5.71415C16.1218 5.49379 15.9499 5.2326 15.8335 4.94556C15.7172 4.65853 15.6587 4.35131 15.6613 4.04156C15.668 3.42411 15.9174 2.83414 16.3555 2.39938C16.7935 1.96461 17.3851 1.72002 18.002 1.71857ZM13.4215 12.7873C13.4783 11.0162 14.2017 9.68474 15.5746 8.83265C17.1379 7.86675 18.7879 7.8511 20.364 8.78997C21.7852 9.63353 22.51 10.9408 22.5895 12.7859L22.5981 13.0078H13.4144L13.4215 12.7873Z" fill="#E18427"/>
<path d="M23.4575 27.5284C23.4332 27.4286 23.3888 27.3349 23.3269 27.2529C23.2651 27.171 23.1872 27.1025 23.0979 27.0519C22.862 26.9224 22.5408 26.9096 22.1713 27.0206C19.4709 27.8398 16.5908 27.8556 13.8815 27.0661C13.7262 27.019 13.5649 26.9941 13.4026 26.9921C13.2179 26.979 13.0345 27.0312 12.8844 27.1397C12.7343 27.2481 12.627 27.4058 12.5811 27.5853C12.5452 27.69 12.532 27.8011 12.5426 27.9113C12.5531 28.0215 12.5871 28.1281 12.6423 28.224C12.7267 28.3498 12.8364 28.4567 12.9644 28.5377C13.0924 28.6188 13.2358 28.6723 13.3855 28.6949H13.4054C16.7694 29.7376 20.4588 29.4204 22.6218 28.6437H22.6488C22.7976 28.6214 22.9402 28.5687 23.0678 28.4889C23.1955 28.4091 23.3053 28.304 23.3907 28.1799C23.4465 28.082 23.4813 27.9734 23.4928 27.8612C23.5043 27.749 23.4923 27.6357 23.4575 27.5284V27.5284Z" fill="#E18427"/>
<path d="M4.45045 18.3837C4.97629 18.4349 5.29464 18.1518 5.42397 17.5216C5.98174 14.7511 7.34025 12.2057 9.3308 10.2013C9.68325 9.84138 10.0044 9.30936 9.52977 8.81289C9.46128 8.7331 9.37709 8.66829 9.28246 8.62252C9.18783 8.57675 9.08479 8.551 8.97977 8.54688C8.71259 8.54688 8.4113 8.7062 8.11569 9.00635C6.36232 10.7614 5.04761 12.9059 4.27849 15.2655C4.10937 15.7847 3.97436 16.3068 3.85214 16.7691C3.80666 16.9455 3.76402 17.1105 3.72423 17.257C3.7086 17.6653 3.79955 18.3197 4.45045 18.3837Z" fill="#E18427"/>
<path d="M30.3674 16.5955C30.4157 16.7677 30.4527 16.9441 30.4882 17.1133C30.5329 17.3516 30.5927 17.5868 30.6673 17.8175C30.8293 18.2798 31.1718 18.469 31.6621 18.3637C32.0885 18.2713 32.3002 17.9839 32.313 17.4818C32.313 17.4476 32.3016 17.4135 32.2974 17.3779C32.2846 17.2897 32.2718 17.1973 32.2533 17.1062C31.8336 14.9957 30.9783 12.9961 29.7421 11.2354C29.1325 10.381 28.4486 9.5822 27.6984 8.84844C27.5055 8.70992 27.2719 8.63983 27.0347 8.64928C26.9336 8.64666 26.8328 8.66306 26.7377 8.69765C26.5544 8.77446 26.3298 9.19696 26.3014 9.51987C26.2914 9.63652 26.4009 9.88688 26.7363 10.2311C28.4676 12.009 29.7174 14.1995 30.3674 16.5955V16.5955Z" fill="#E18427"/>
</g>
<defs>
<clipPath id="clip0_2271_5461">
<rect width="36" height="36" fill="white"/>
</clipPath>
</defs>
</svg>
