<svg width="50" height="51" viewBox="0 0 50 51" fill="none" xmlns="http://www.w3.org/2000/svg">
<g clip-path="url(#clip0_1271_1696)">
<path d="M44.473 32.4872C44.2556 31.6178 43.4744 31.0078 42.5782 31.0078H36.2906L32.7541 16.8622C32.5369 15.9928 31.7556 15.3828 30.8594 15.3828H19.1407C18.2445 15.3828 17.4632 15.9928 17.2458 16.8622L13.7095 31.0078H7.42191C6.52572 31.0078 5.74447 31.6178 5.52709 32.4872L1.62084 48.1122C1.47494 48.6957 1.60609 49.3139 1.97621 49.7879C2.34633 50.262 2.9142 50.5391 3.51566 50.5391H23.0469C23.6484 50.5391 24.2163 50.262 24.5864 49.7879C24.9565 49.3139 25.0875 48.6957 24.9417 48.1122L21.6421 34.9141H28.3579L25.0583 48.1122C24.9124 48.6957 25.0436 49.3139 25.4137 49.7879C25.7838 50.2619 26.3517 50.5391 26.9532 50.5391H46.4844C47.0859 50.5391 47.6538 50.262 48.0239 49.7879C48.394 49.3139 48.525 48.6957 48.3792 48.1122L44.473 32.4872ZM20.6657 19.2891H29.3345L32.2642 31.0078H17.736L20.6657 19.2891ZM20.5454 46.6328H6.01723L8.94691 34.9141H17.6158L20.5454 46.6328ZM29.4547 46.6328L32.3844 34.9141H41.0533L43.9829 46.6328H29.4547Z" fill="#E18427"/>
<path d="M25 8.35156C26.0787 8.35156 26.9531 7.47715 26.9531 6.39844V2.49219C26.9531 1.41348 26.0787 0.539062 25 0.539062C23.9213 0.539062 23.0469 1.41348 23.0469 2.49219V6.39844C23.0469 7.47715 23.9213 8.35156 25 8.35156Z" fill="#E18427"/>
<path d="M5.85938 27.1016C6.93809 27.1016 7.8125 26.2271 7.8125 25.1484C7.8125 24.0697 6.93809 23.1953 5.85938 23.1953H1.95312C0.874414 23.1953 0 24.0697 0 25.1484C0 26.2271 0.874414 27.1016 1.95312 27.1016H5.85938Z" fill="#E18427"/>
<path d="M48.0469 23.1953H44.1406C43.0619 23.1953 42.1875 24.0697 42.1875 25.1484C42.1875 26.2271 43.0619 27.1016 44.1406 27.1016H48.0469C49.1256 27.1016 50 26.2271 50 25.1484C50 24.0697 49.1256 23.1953 48.0469 23.1953Z" fill="#E18427"/>
<path d="M9.81073 12.7213C10.5735 13.4841 11.8101 13.4841 12.5728 12.7213C13.3356 11.9585 13.3356 10.7219 12.5728 9.9592L9.81073 7.19709C9.04794 6.4343 7.81132 6.4343 7.04862 7.19709C6.28593 7.95989 6.28583 9.19651 7.04862 9.9592L9.81073 12.7213Z" fill="#E18427"/>
<path d="M40.1936 12.7213L42.9557 9.95917C43.7185 9.19637 43.7185 7.95975 42.9557 7.19706C42.1929 6.43436 40.9563 6.43427 40.1936 7.19706L37.4315 9.95917C36.6687 10.722 36.6687 11.9586 37.4315 12.7213C38.1943 13.484 39.4309 13.484 40.1936 12.7213Z" fill="#E18427"/>
</g>
<defs>
<clipPath id="clip0_1271_1696">
<rect width="50" height="50" fill="white" transform="translate(0 0.539062)"/>
</clipPath>
</defs>
</svg>
