<svg width="78" height="78" viewBox="0 0 78 78" fill="none" xmlns="http://www.w3.org/2000/svg">
<circle cx="39" cy="39" r="39" fill="#7B61FF"/>
<path d="M34.8438 41.9094C34.8438 43.5219 36.0813 44.8219 37.6188 44.8219H40.7562C42.0937 44.8219 43.1812 43.6844 43.1812 42.2844C43.1812 40.7594 42.5187 40.2219 41.5312 39.8719L36.4937 38.1219C35.5062 37.7719 34.8438 37.2344 34.8438 35.7094C34.8438 34.3094 35.9312 33.1719 37.2687 33.1719H40.4062C41.9437 33.1719 43.1812 34.4719 43.1812 36.0844" stroke="white" stroke-width="1.5" stroke-linecap="round" stroke-linejoin="round"/>
<path d="M39 31.5V46.5" stroke="white" stroke-width="1.5" stroke-linecap="round" stroke-linejoin="round"/>
<path d="M39 51.5C45.9036 51.5 51.5 45.9036 51.5 39C51.5 32.0964 45.9036 26.5 39 26.5C32.0964 26.5 26.5 32.0964 26.5 39C26.5 45.9036 32.0964 51.5 39 51.5Z" stroke="white" stroke-width="1.5" stroke-linecap="round" stroke-linejoin="round"/>
</svg>
