<svg width="78" height="79" viewBox="0 0 78 79" fill="none" xmlns="http://www.w3.org/2000/svg">
<circle cx="39" cy="39.5312" r="39" fill="#4FC273"/>
<path d="M37.4347 52.6577H40.5847C41.7847 52.6577 42.5597 51.8077 42.3347 50.7702L41.8222 48.5078H36.1972L35.6847 50.7702C35.4597 51.7452 36.3097 52.6577 37.4347 52.6577Z" stroke="white" stroke-width="1.5" stroke-linecap="round" stroke-linejoin="round"/>
<path d="M41.8257 48.4969L43.9882 46.5719C45.2007 45.4969 45.2507 44.7468 44.2882 43.5343L40.4757 38.6969C39.6757 37.6844 38.3632 37.6844 37.5632 38.6969L33.7507 43.5343C32.7882 44.7468 32.7882 45.5344 34.0507 46.5719L36.2132 48.4969" stroke="white" stroke-width="1.5" stroke-linecap="round" stroke-linejoin="round"/>
<path d="M39.0156 38.4375V41.6" stroke="white" stroke-width="1.5" stroke-linecap="round" stroke-linejoin="round"/>
<path d="M39.6484 30.7812H38.3984C37.7109 30.7812 37.1484 30.2188 37.1484 29.5312V28.2812C37.1484 27.5937 37.7109 27.0312 38.3984 27.0312H39.6484C40.3359 27.0312 40.8984 27.5937 40.8984 28.2812V29.5312C40.8984 30.2188 40.3359 30.7812 39.6484 30.7812Z" stroke="white" stroke-width="1.5" stroke-linecap="round" stroke-linejoin="round"/>
<path d="M28.0859 42.2423H29.3359C30.0234 42.2423 30.5859 41.6798 30.5859 40.9923V39.7423C30.5859 39.0548 30.0234 38.4922 29.3359 38.4922H28.0859C27.3984 38.4922 26.8359 39.0548 26.8359 39.7423V40.9923C26.8359 41.6798 27.3984 42.2423 28.0859 42.2423Z" stroke="white" stroke-width="1.5" stroke-linecap="round" stroke-linejoin="round"/>
<path d="M49.9141 42.2423H48.6641C47.9766 42.2423 47.4141 41.6798 47.4141 40.9923V39.7423C47.4141 39.0548 47.9766 38.4922 48.6641 38.4922H49.9141C50.6016 38.4922 51.1641 39.0548 51.1641 39.7423V40.9923C51.1641 41.6798 50.6016 42.2423 49.9141 42.2423Z" stroke="white" stroke-width="1.5" stroke-linecap="round" stroke-linejoin="round"/>
<path d="M37.15 28.9844C32.3875 29.5469 28.6875 33.5844 28.6875 38.4969" stroke="white" stroke-width="1.5" stroke-linecap="round" stroke-linejoin="round"/>
<path d="M49.3109 38.4969C49.3109 33.5969 45.6359 29.5719 40.8984 28.9844" stroke="white" stroke-width="1.5" stroke-linecap="round" stroke-linejoin="round"/>
</svg>
