<svg width="54" height="51" viewBox="0 0 54 51" fill="none" xmlns="http://www.w3.org/2000/svg">
<path d="M1.74659 3.8636L1.74661 3.8636C2.05812 3.06151 2.61792 2.35293 3.36134 1.81597C4.06808 1.29577 4.91383 0.942629 5.81838 0.788938C6.6677 0.642528 7.54435 0.67105 8.37902 0.87234C9.2133 1.07354 9.98356 1.44201 10.6285 1.94939C10.6289 1.94966 10.6292 1.94992 10.6295 1.95018L35.923 20.8298L35.9241 20.8307C37.7112 22.2059 38.7066 23.7068 38.7066 25.3585C38.7066 27.008 37.7938 28.5332 35.9218 29.8571C35.9215 29.8573 35.9212 29.8575 35.9209 29.8577L10.2544 48.8772L1.74659 3.8636ZM1.74659 3.8636L1.74592 3.86541M1.74659 3.8636L1.74592 3.86541M1.74592 3.86541C1.4681 4.6238 1.38808 5.42749 1.51213 6.21701C1.63606 7.00577 1.96038 7.75927 2.46007 8.42232C6.67883 14.5762 8.82486 20.2542 8.7807 25.7071C8.73654 31.1588 6.49407 36.572 2.06419 42.3054C1.51396 42.9428 1.14411 43.6866 0.986335 44.4758C0.828369 45.2658 0.887783 46.0774 1.15956 46.843L1.15953 46.843L1.16046 46.8454C1.4658 47.6397 2.0083 48.3461 2.72952 48.8923L2.73116 48.8935C3.41195 49.3877 4.20529 49.7478 5.05747 49.9502L5.05951 49.9507M1.74592 3.86541L5.05951 49.9507M5.05951 49.9507C5.96025 50.1447 6.90071 50.1487 7.80354 49.9623C8.70629 49.7759 9.54637 49.4044 10.2543 48.8774L5.05951 49.9507ZM7.00563 5.54388C7.03411 5.55431 7.05782 5.57042 7.07521 5.5896L7.08169 5.59674L7.08942 5.60251L32.3849 24.507L32.3849 24.507L32.3866 24.5082C32.6765 24.7157 32.8932 24.8999 33.0362 25.0492C33.1078 25.124 33.159 25.188 33.1916 25.2399C33.2259 25.2947 33.2326 25.325 33.2326 25.3353C33.2326 25.3418 33.2271 25.3683 33.1897 25.4211C33.1546 25.4705 33.1003 25.5311 33.0257 25.6029C32.877 25.7461 32.6591 25.9236 32.3847 26.1326C32.3845 26.1327 32.3843 26.1329 32.3842 26.133L6.70908 45.1446C6.70896 45.1447 6.70884 45.1448 6.70872 45.1449C6.66492 45.1764 6.61315 45.1998 6.55669 45.213C6.52641 45.22 6.49531 45.224 6.46406 45.2249C6.50744 45.1658 6.55735 45.1101 6.61327 45.0587L6.61936 45.0531L6.62445 45.0466C11.6985 38.5387 14.2316 32.2385 14.2897 25.7855L14.3257 25.762V25.7079C14.3257 19.2767 11.945 12.8057 7.20514 5.90831L7.20534 5.90817L7.20101 5.90272C7.11339 5.79247 7.04763 5.67118 7.00563 5.54388Z" fill="#E18427" stroke="#E18427" stroke-width="0.2"/>
<path d="M51.3888 48.8898L51.3884 48.8901C50.7106 49.389 49.9157 49.7499 49.061 49.9473L49.0595 49.9477C48.1588 50.1417 47.2183 50.1457 46.3155 49.9593C45.4127 49.773 44.5727 49.4014 43.8648 48.8744L51.3888 48.8898ZM51.3888 48.8898C52.1162 48.3494 52.6577 47.6401 52.95 46.8414M51.3888 48.8898L43.8646 48.8743L18.1966 29.8536C16.3706 28.5074 15.4391 27.0084 15.4391 25.3556C15.4391 23.7062 16.3518 22.1813 18.1964 20.8266C18.1965 20.8265 18.1966 20.8265 18.1967 20.8264L43.4898 1.94696C43.4901 1.94674 43.4904 1.94652 43.4907 1.9463C44.1374 1.44155 44.9078 1.07478 45.7414 0.87374C46.5754 0.672608 47.4511 0.642582 48.3004 0.785917L48.3005 0.785926C49.2127 0.940395 50.0669 1.29319 50.7841 1.81281L50.7857 1.81395C51.51 2.36055 52.0579 3.06607 52.3722 3.86002L52.3726 3.86113C52.662 4.61842 52.748 5.42435 52.6236 6.21602C52.4994 7.00671 52.1688 7.76075 51.6586 8.41986C47.4402 14.5734 45.3119 20.228 45.3561 25.7041L45.3569 25.8049H45.3475C45.3746 31.2221 47.6076 36.6036 52.0452 42.3016C52.61 42.9327 52.9892 43.677 53.1475 44.4692C53.3061 45.2623 53.2381 46.0773 52.95 46.8414M52.95 46.8414C52.9499 46.8415 52.9499 46.8417 52.9498 46.8418L52.8562 46.8065M52.95 46.8414C52.95 46.8412 52.9501 46.8411 52.9502 46.8409L52.8562 46.8065M52.8562 46.8065C53.138 46.0597 53.2044 45.2635 53.0495 44.4888C52.8946 43.714 52.5232 42.9848 51.9684 42.3657L52.8562 46.8065ZM47.5125 45.0438L47.5183 45.0512L47.5254 45.0574L47.5473 45.0765C47.5948 45.1304 47.6382 45.1868 47.6772 45.2453C47.6445 45.2447 47.6119 45.2407 47.5801 45.2333C47.5238 45.2201 47.4721 45.1968 47.4283 45.1653C47.4281 45.1652 47.4279 45.1651 47.4277 45.1649L21.7782 26.1525L21.7782 26.1525L21.7751 26.1503C21.4706 25.942 21.2544 25.7713 21.1155 25.6331C21.046 25.564 20.9984 25.5055 20.9686 25.4569C20.9385 25.4076 20.9307 25.375 20.9307 25.3556C20.9307 25.3382 20.9391 25.3044 20.973 25.2504C21.0059 25.198 21.0574 25.1351 21.1296 25.0618C21.2737 24.9152 21.4906 24.7365 21.7774 24.5281L21.7785 24.5273L47.0739 5.62282L47.0817 5.61705L47.0882 5.6099C47.1073 5.58885 47.1341 5.57142 47.1666 5.5612C47.1307 5.68998 47.063 5.81187 46.9667 5.91805L46.966 5.91746L46.9585 5.9284C42.1921 12.8255 39.7843 19.2582 39.8378 25.7291C39.8913 32.2005 42.3975 38.5176 47.5125 45.0438Z" fill="#E18427" stroke="#E18427" stroke-width="0.2"/>
</svg>
