<svg width="152" height="32" viewBox="0 0 152 32" fill="none" xmlns="http://www.w3.org/2000/svg">
<path d="M45.5086 3.80209C39.3389 3.80209 33.7862 8.24424 33.7862 15.617C33.7862 22.9897 39.1847 27.4627 45.4469 27.4627C49.8582 27.4627 53.4983 25.3342 55.4725 21.8792L53.0972 20.2134C51.8325 23.1748 48.9019 24.8098 45.5394 24.8098C40.7888 24.8098 36.7476 21.509 36.7476 15.6478C36.7476 9.69411 40.8813 6.45505 45.5703 6.45505C48.871 6.45505 51.7399 8.09 53.0355 10.9897L55.38 9.29309C53.4674 5.71469 49.5805 3.80209 45.5086 3.80209ZM65.1035 10.4345C60.2911 10.4345 56.5585 13.9203 56.5585 18.9486C56.5585 23.9769 60.2911 27.4627 65.1035 27.4627C69.9467 27.4627 73.7101 23.9769 73.7101 18.9486C73.7101 13.9203 69.9467 10.4345 65.1035 10.4345ZM59.4582 18.9486C59.4582 15.401 61.8027 13.0566 65.1035 13.0566C68.4042 13.0566 70.7796 15.401 70.7796 18.9486C70.7796 22.527 68.4042 24.8406 65.1035 24.8406C61.8644 24.8406 59.4582 22.527 59.4582 18.9486ZM75.9534 10.9589V27H78.7914V18.3625C78.7914 14.9383 80.5806 13.0566 83.4495 13.0566C86.0408 13.0566 87.3673 14.5373 87.3673 17.5296V27H90.2053V17.0977C90.2053 12.9332 87.9842 10.4653 84.0973 10.4653C81.6603 10.4653 80.3956 11.3908 79.6243 12.2545L78.7914 15.8329V10.9589H75.9534ZM90.9768 10.9589L97.7634 27H100.817L107.542 10.9589H104.488L99.3058 23.7918L94.0924 10.9589H90.9768ZM109.094 10.9589V27H111.932V19.2262C111.932 15.0617 113.968 13.4885 116.713 13.4885C117.207 13.4885 117.669 13.5501 118.163 13.6735V10.7738C117.762 10.6813 117.453 10.6504 117.022 10.6504C114.924 10.6504 113.505 11.6376 112.765 12.4088L111.932 16.5116V10.9589H109.094ZM121.78 7.13371V10.9589H118.942V13.4885H121.78V22.6504C121.78 26.1054 123.569 27.401 126.808 27.401C127.271 27.401 128.412 27.2776 128.906 27.0925V24.5938C128.443 24.6864 127.672 24.8098 127.24 24.8098C125.513 24.8098 124.618 24.4704 124.618 22.2802V13.4885H129.214V10.9589H124.618V5.00517L121.78 7.13371ZM130.523 4.32651L138.327 15.3702L130.06 27H133.515L139.932 17.6838L146.255 27H149.957L141.752 15.5553L149.71 4.32651H146.348L140.178 13.2417L134.101 4.32651H130.523Z" fill="black"/>
<path d="M0.57118 4.53916L0.571194 4.53916C0.735194 4.11689 1.0297 3.74435 1.42018 3.46228C1.79129 3.18915 2.23511 3.00392 2.70948 2.92333C3.15478 2.84659 3.6144 2.86154 4.05205 2.96709C4.48943 3.07257 4.8935 3.26577 5.23207 3.53206C5.23234 3.53227 5.2326 3.53248 5.23286 3.53268L18.3912 13.3544L18.3921 13.3551C19.3248 14.0727 19.8498 14.8604 19.8498 15.7313C19.8498 16.6004 19.3684 17.4009 18.3903 18.0927C18.39 18.0929 18.3898 18.093 18.3896 18.0932L5.03717 27.9877L0.57118 4.53916ZM0.57118 4.53916L0.570662 4.54057M0.57118 4.53916L0.570662 4.54057M0.570662 4.54057C0.42462 4.93922 0.382525 5.36181 0.447758 5.77698C0.512897 6.19155 0.683274 6.58734 0.945497 6.93544C3.13834 10.1343 4.25182 13.0829 4.2289 15.9124C4.20599 18.741 3.04268 21.5516 0.740514 24.5314C0.451725 24.8661 0.257367 25.2569 0.174404 25.6719C0.0912938 26.0875 0.122569 26.5145 0.265518 26.9172L0.265493 26.9172L0.266219 26.9191C0.426935 27.3372 0.712295 27.7085 1.0911 27.9954L1.09238 27.9963C1.44946 28.2555 1.86537 28.4443 2.3119 28.5504L2.3135 28.5507M0.570662 4.54057L2.3135 28.5507M2.3135 28.5507C2.78565 28.6524 3.27858 28.6545 3.75182 28.5568C4.22499 28.4591 4.66557 28.2643 5.03703 27.9878L2.3135 28.5507ZM3.39144 5.498L16.5194 15.3091L16.5194 15.3091L16.5207 15.3101C16.6707 15.4174 16.7821 15.5122 16.855 15.5884C16.8916 15.6265 16.9169 15.6584 16.9326 15.6834C16.9456 15.7041 16.9489 15.7152 16.9497 15.7184C16.9488 15.7209 16.9454 15.7304 16.9324 15.7488C16.9155 15.7726 16.8885 15.8028 16.8503 15.8397C16.7741 15.913 16.6618 16.0046 16.5193 16.1131C16.5191 16.1132 16.519 16.1134 16.5188 16.1135L3.16195 26.0038C3.16182 26.0039 3.1617 26.004 3.16158 26.0041C3.14797 26.0138 3.13256 26.022 3.1158 26.0281C3.12511 26.0183 3.13482 26.0087 3.14493 25.9994L3.14566 26.0002L3.15366 25.9899C5.79225 22.6057 7.11303 19.3271 7.14687 15.9676L7.16572 15.9552V15.913C7.16572 12.5604 5.92458 9.18879 3.45669 5.5976L3.45684 5.59749L3.45347 5.59324C3.42941 5.56297 3.40869 5.53108 3.39144 5.498Z" fill="#E18427" stroke="#E18427" stroke-width="0.156095"/>
<path d="M26.4358 27.9943L26.4355 27.9945C26.0799 28.2562 25.6631 28.4454 25.2151 28.5489L25.214 28.5492C24.7418 28.6509 24.2489 28.653 23.7756 28.5553C23.3025 28.4576 22.8619 28.2628 22.4904 27.9862L26.4358 27.9943ZM26.4358 27.9943C26.818 27.7103 27.1029 27.3373 27.2569 26.9167C27.4084 26.5147 27.4442 26.0858 27.3608 25.6684C27.2775 25.2518 27.0782 24.8606 26.7817 24.5292C24.4828 21.5771 23.3246 18.7912 23.3035 15.9895H23.3084L23.3078 15.9109C23.2849 13.0692 24.3891 10.1329 26.5817 6.93429C26.8494 6.58823 27.0231 6.1921 27.0884 5.77646C27.1538 5.36005 27.1086 4.93618 26.9564 4.53801L26.9561 4.53714C26.7907 4.11935 26.5026 3.74853 26.1222 3.46148L26.1209 3.46059C25.7444 3.1878 25.2963 3.00277 24.8179 2.92177L24.8179 2.92176C24.3726 2.84661 23.9135 2.86235 23.4761 2.96782C23.0391 3.07321 22.635 3.26553 22.2955 3.53043L9.13676 13.3525C9.1367 13.3525 9.13663 13.3526 9.13657 13.3526C8.17283 14.0604 7.69148 14.8606 7.69148 15.7297C7.69148 16.6009 8.18287 17.3876 9.13664 18.0908L22.4903 27.9861L26.4358 27.9943ZM24.3832 25.9885L24.3877 25.9943L24.3932 25.9992L24.4033 26.008C24.4132 26.0192 24.4227 26.0306 24.4319 26.0423C24.4108 26.036 24.3917 26.0265 24.3751 26.0147C24.375 26.0146 24.3749 26.0145 24.3748 26.0144L11.0309 16.1234L11.0309 16.1234L11.0285 16.1217C10.8706 16.0136 10.7596 15.9259 10.689 15.8556C10.6537 15.8205 10.6305 15.7917 10.6165 15.7688C10.6022 15.7455 10.6006 15.7333 10.6006 15.7297C10.6006 15.7278 10.6021 15.7152 10.6186 15.6889C10.6343 15.6638 10.6597 15.6326 10.6965 15.5951C10.7701 15.5203 10.8816 15.4284 11.0303 15.3203L11.0312 15.3197L24.1687 5.50133C24.151 5.53616 24.1282 5.56932 24.1004 5.59992L24.0999 5.59946L24.094 5.60799C21.6124 9.19897 20.357 12.5507 20.3849 15.9242C20.4127 19.2982 21.7195 22.59 24.3832 25.9885Z" fill="#E18427" stroke="#E18427" stroke-width="0.156095"/>
</svg>
