<svg width="205" height="51" viewBox="0 0 205 51" fill="none" xmlns="http://www.w3.org/2000/svg">
<path d="M70.3327 17.7032C72.0287 17.7032 73.5087 18.0472 74.7727 18.7352C76.0527 19.4232 77.0447 20.4152 77.7487 21.7112C78.4527 22.9912 78.8047 24.5512 78.8047 26.3912C78.8047 28.1832 78.4447 29.7512 77.7247 31.0952C77.0047 32.4392 75.9967 33.4872 74.7007 34.2393C73.4207 34.9913 71.9567 35.3673 70.3087 35.3673C68.6127 35.3673 67.1247 35.0232 65.8447 34.3352C64.5807 33.6472 63.5967 32.6552 62.8927 31.3592C62.1887 30.0632 61.8367 28.5032 61.8367 26.6792C61.8367 24.8872 62.1967 23.3192 62.9167 21.9752C63.6527 20.6312 64.6527 19.5832 65.9167 18.8312C67.1967 18.0792 68.6687 17.7032 70.3327 17.7032ZM70.2367 18.1352C69.3407 18.1352 68.5567 18.4952 67.8847 19.2152C67.2287 19.9352 66.7167 20.9272 66.3487 22.1912C65.9967 23.4552 65.8207 24.9192 65.8207 26.5832C65.8207 28.2792 66.0207 29.7592 66.4207 31.0232C66.8367 32.2712 67.3887 33.2392 68.0767 33.9272C68.7807 34.5992 69.5567 34.9352 70.4047 34.9352C71.3007 34.9352 72.0767 34.5752 72.7327 33.8552C73.4047 33.1352 73.9167 32.1432 74.2687 30.8792C74.6367 29.5992 74.8207 28.1352 74.8207 26.4872C74.8207 24.7752 74.6127 23.2952 74.1967 22.0472C73.7967 20.7992 73.2447 19.8392 72.5407 19.1672C71.8527 18.4792 71.0847 18.1352 70.2367 18.1352ZM85.0679 22.3593V36.9993C85.0679 37.7513 85.2599 38.2473 85.6439 38.4873C86.0279 38.7433 86.5559 38.8713 87.2279 38.8713V39.3753C86.8119 39.3593 86.2359 39.3353 85.4999 39.3033C84.7799 39.2873 84.0119 39.2793 83.1959 39.2793C82.6039 39.2793 82.0199 39.2873 81.4439 39.3033C80.8839 39.3353 80.4599 39.3593 80.1719 39.3753V38.8713C80.6999 38.8713 81.0679 38.7593 81.2759 38.5353C81.4999 38.3113 81.6119 37.8793 81.6119 37.2393V25.2392C81.6119 24.5192 81.4999 23.9912 81.2759 23.6552C81.0519 23.3032 80.6519 23.1272 80.0759 23.1272V22.6232C80.5879 22.6712 81.0839 22.6953 81.5639 22.6953C82.2199 22.6953 82.8439 22.6712 83.4359 22.6232C84.0279 22.5592 84.5719 22.4712 85.0679 22.3593ZM88.7879 22.2872C90.0039 22.2872 91.0199 22.7832 91.8359 23.7752C92.6679 24.7672 93.0839 26.2632 93.0839 28.2632C93.0839 29.8152 92.8519 31.1192 92.3879 32.1752C91.9239 33.2312 91.2759 34.0312 90.4439 34.5752C89.6279 35.1032 88.6519 35.3673 87.5159 35.3673C86.8919 35.3673 86.3239 35.2553 85.8119 35.0312C85.2999 34.8232 84.9079 34.5192 84.6359 34.1192L84.8759 33.8072C85.0359 34.0952 85.2599 34.3192 85.5479 34.4792C85.8519 34.6392 86.1959 34.7192 86.5799 34.7192C87.2999 34.7192 87.8679 34.4792 88.2839 33.9992C88.6999 33.5032 88.9959 32.8152 89.1719 31.9352C89.3639 31.0392 89.4599 29.9752 89.4599 28.7432C89.4599 27.3672 89.3719 26.2872 89.1959 25.5032C89.0199 24.7192 88.7799 24.1592 88.4759 23.8232C88.1719 23.4872 87.8039 23.3192 87.3719 23.3192C86.7959 23.3192 86.2679 23.5432 85.7879 23.9912C85.3239 24.4392 85.0599 25.0792 84.9959 25.9112L84.8759 25.0712C85.1639 24.1592 85.6519 23.4712 86.3399 23.0072C87.0439 22.5272 87.8599 22.2872 88.7879 22.2872ZM100.515 22.2872C101.923 22.2872 103.027 22.7032 103.827 23.5352C104.627 24.3672 105.027 25.7272 105.027 27.6152H97.1306L97.0826 27.1592H102.003C102.019 26.3752 101.971 25.6552 101.859 24.9992C101.747 24.3272 101.571 23.7912 101.331 23.3912C101.091 22.9912 100.771 22.7912 100.371 22.7912C99.8106 22.7912 99.3306 23.1432 98.9306 23.8472C98.5466 24.5512 98.3146 25.7192 98.2346 27.3512L98.3066 27.4952C98.2906 27.6872 98.2746 27.8872 98.2586 28.0952C98.2586 28.3032 98.2586 28.5192 98.2586 28.7432C98.2586 29.8472 98.4106 30.7432 98.7146 31.4312C99.0346 32.1192 99.4346 32.6232 99.9146 32.9432C100.395 33.2472 100.883 33.3992 101.379 33.3992C101.859 33.3992 102.379 33.2792 102.939 33.0392C103.515 32.7992 104.051 32.2792 104.547 31.4792L104.979 31.6232C104.787 32.2312 104.483 32.8232 104.067 33.3992C103.651 33.9752 103.123 34.4472 102.483 34.8152C101.843 35.1833 101.075 35.3673 100.179 35.3673C99.0906 35.3673 98.1306 35.1353 97.2986 34.6712C96.4666 34.2072 95.8106 33.5032 95.3306 32.5592C94.8666 31.6152 94.6346 30.4152 94.6346 28.9592C94.6346 27.4712 94.8826 26.2312 95.3786 25.2392C95.8906 24.2472 96.5866 23.5112 97.4666 23.0312C98.3626 22.5352 99.3786 22.2872 100.515 22.2872ZM114.964 22.2872C115.636 22.2872 116.18 22.3752 116.596 22.5512C117.028 22.7112 117.364 22.9352 117.604 23.2232C117.86 23.5272 118.044 23.9192 118.156 24.3992C118.284 24.8792 118.348 25.5272 118.348 26.3432V32.7992C118.348 33.4712 118.46 33.9272 118.684 34.1672C118.924 34.4072 119.324 34.5272 119.884 34.5272V35.0312C119.58 35.0152 119.124 34.9992 118.516 34.9832C117.908 34.9512 117.308 34.9352 116.716 34.9352C116.108 34.9352 115.508 34.9512 114.916 34.9832C114.34 34.9992 113.9 35.0152 113.596 35.0312V34.5272C114.076 34.5272 114.412 34.4072 114.604 34.1672C114.796 33.9272 114.892 33.4712 114.892 32.7992V25.3352C114.892 24.9352 114.852 24.5912 114.772 24.3032C114.692 23.9992 114.548 23.7672 114.34 23.6072C114.132 23.4312 113.82 23.3432 113.404 23.3432C112.732 23.3432 112.164 23.6072 111.7 24.1352C111.252 24.6632 111.028 25.3272 111.028 26.1272V32.7992C111.028 33.4712 111.124 33.9272 111.316 34.1672C111.524 34.4072 111.86 34.5272 112.324 34.5272V35.0312C112.036 35.0152 111.612 34.9992 111.052 34.9832C110.508 34.9512 109.94 34.9352 109.348 34.9352C108.74 34.9352 108.116 34.9512 107.476 34.9832C106.836 34.9992 106.356 35.0152 106.036 35.0312V34.5272C106.596 34.5272 106.988 34.4072 107.212 34.1672C107.452 33.9272 107.572 33.4712 107.572 32.7992V25.2392C107.572 24.5192 107.46 23.9912 107.236 23.6552C107.028 23.3032 106.628 23.1272 106.036 23.1272V22.6232C106.548 22.6712 107.044 22.6953 107.524 22.6953C108.196 22.6953 108.82 22.6712 109.396 22.6232C109.988 22.5592 110.532 22.4712 111.028 22.3593V24.5192C111.428 23.7032 111.972 23.1272 112.66 22.7912C113.348 22.4552 114.116 22.2872 114.964 22.2872ZM128.794 17.9912L134.626 33.0152C134.85 33.5912 135.098 33.9912 135.37 34.2152C135.658 34.4232 135.914 34.5352 136.138 34.5512V35.0312C135.658 34.9992 135.09 34.9832 134.434 34.9832C133.794 34.9672 133.146 34.9592 132.49 34.9592C131.754 34.9592 131.058 34.9672 130.402 34.9832C129.746 34.9832 129.226 34.9992 128.842 35.0312V34.5512C129.658 34.5192 130.17 34.3832 130.378 34.1432C130.602 33.8872 130.554 33.3512 130.234 32.5352L126.154 21.3752L126.586 20.7512L122.938 30.2552C122.49 31.4392 122.266 32.3352 122.266 32.9432C122.282 33.5512 122.482 33.9672 122.866 34.1912C123.25 34.3992 123.762 34.5192 124.402 34.5512V35.0312C123.874 34.9992 123.37 34.9832 122.89 34.9832C122.41 34.9672 121.922 34.9592 121.426 34.9592C121.074 34.9592 120.738 34.9672 120.418 34.9832C120.114 34.9832 119.842 34.9992 119.602 35.0312V34.5512C119.938 34.4872 120.282 34.2712 120.634 33.9032C120.986 33.5352 121.33 32.9112 121.666 32.0312L127.138 17.9912C127.394 18.0072 127.666 18.0152 127.954 18.0152C128.258 18.0152 128.538 18.0072 128.794 17.9912ZM130.474 28.1192V28.5992H123.322L123.562 28.1192H130.474ZM148.114 16.2392V32.3912C148.114 33.1112 148.226 33.6472 148.45 33.9992C148.674 34.3352 149.074 34.5032 149.65 34.5032V35.0072C149.154 34.9592 148.658 34.9352 148.162 34.9352C147.49 34.9352 146.858 34.9592 146.266 35.0072C145.69 35.0553 145.154 35.1433 144.658 35.2713V19.1192C144.658 18.3992 144.546 17.8712 144.322 17.5352C144.114 17.1832 143.714 17.0072 143.122 17.0072V16.5032C143.634 16.5512 144.13 16.5752 144.61 16.5752C145.266 16.5752 145.89 16.5512 146.482 16.5032C147.074 16.4392 147.618 16.3512 148.114 16.2392ZM141.994 22.2872C142.698 22.2872 143.314 22.4072 143.842 22.6472C144.386 22.8712 144.81 23.2552 145.114 23.7992L144.826 24.0632C144.618 23.6792 144.338 23.4072 143.986 23.2472C143.65 23.0712 143.29 22.9832 142.906 22.9832C142.09 22.9832 141.442 23.4632 140.962 24.4232C140.482 25.3672 140.25 26.8312 140.266 28.8152C140.266 30.1752 140.354 31.2632 140.53 32.0792C140.722 32.8792 140.986 33.4552 141.322 33.8072C141.674 34.1592 142.074 34.3352 142.522 34.3352C143.066 34.3352 143.554 34.1192 143.986 33.6872C144.418 33.2552 144.65 32.6712 144.682 31.9352L144.802 32.7752C144.562 33.6232 144.17 34.2712 143.626 34.7192C143.098 35.1513 142.402 35.3673 141.538 35.3673C140.594 35.3673 139.746 35.1353 138.994 34.6712C138.258 34.2072 137.682 33.4952 137.266 32.5352C136.85 31.5592 136.642 30.3032 136.642 28.7672C136.642 27.3112 136.874 26.1112 137.338 25.1672C137.802 24.2072 138.434 23.4872 139.234 23.0072C140.05 22.5272 140.97 22.2872 141.994 22.2872ZM162.001 22.6232V23.1032C161.697 23.1832 161.409 23.3752 161.137 23.6792C160.865 23.9672 160.601 24.4632 160.345 25.1672L156.841 35.0793C156.585 35.0633 156.321 35.0553 156.049 35.0553C155.793 35.0553 155.537 35.0633 155.281 35.0793L151.009 24.4712C150.753 23.8472 150.497 23.4712 150.241 23.3432C150.001 23.1992 149.793 23.1272 149.617 23.1272V22.6232C150.129 22.6552 150.657 22.6872 151.201 22.7192C151.761 22.7352 152.369 22.7432 153.025 22.7432C153.521 22.7432 154.041 22.7352 154.585 22.7192C155.145 22.6872 155.665 22.6552 156.145 22.6232V23.1272C155.809 23.1272 155.505 23.1432 155.233 23.1752C154.977 23.2072 154.801 23.3112 154.705 23.4872C154.609 23.6632 154.625 23.9752 154.753 24.4232L157.561 31.8633L157.321 32.1992L159.217 26.9432C159.665 25.6472 159.737 24.7032 159.433 24.1112C159.129 23.5032 158.601 23.1672 157.849 23.1032V22.6232C158.217 22.6392 158.609 22.6552 159.025 22.6712C159.457 22.6872 159.833 22.6953 160.153 22.6953C160.473 22.6953 160.809 22.6872 161.161 22.6712C161.513 22.6552 161.793 22.6392 162.001 22.6232ZM165.477 16.4312C166.149 16.4312 166.677 16.5992 167.061 16.9352C167.461 17.2552 167.661 17.7032 167.661 18.2792C167.661 18.8552 167.461 19.3112 167.061 19.6472C166.677 19.9672 166.149 20.1272 165.477 20.1272C164.805 20.1272 164.269 19.9672 163.869 19.6472C163.485 19.3112 163.293 18.8552 163.293 18.2792C163.293 17.7032 163.485 17.2552 163.869 16.9352C164.269 16.5992 164.805 16.4312 165.477 16.4312ZM167.349 22.3593V32.7992C167.349 33.4712 167.461 33.9272 167.685 34.1672C167.925 34.4072 168.325 34.5272 168.885 34.5272V35.0312C168.597 35.0152 168.149 34.9992 167.541 34.9832C166.933 34.9512 166.317 34.9352 165.693 34.9352C165.069 34.9352 164.437 34.9512 163.797 34.9832C163.157 34.9992 162.677 35.0152 162.357 35.0312V34.5272C162.917 34.5272 163.309 34.4072 163.533 34.1672C163.773 33.9272 163.893 33.4712 163.893 32.7992V25.2392C163.893 24.5192 163.781 23.9912 163.557 23.6552C163.349 23.3032 162.949 23.1272 162.357 23.1272V22.6232C162.869 22.6712 163.365 22.6953 163.845 22.6953C164.517 22.6953 165.141 22.6712 165.717 22.6232C166.309 22.5592 166.853 22.4712 167.349 22.3593ZM174.439 22.2872C175.111 22.2872 175.695 22.3752 176.191 22.5512C176.703 22.7112 177.071 22.8712 177.295 23.0312C177.839 23.3992 178.175 23.1592 178.303 22.3112H178.807C178.775 22.7592 178.751 23.3112 178.735 23.9672C178.719 24.6072 178.711 25.4632 178.711 26.5352H178.207C178.127 25.9432 177.975 25.3592 177.751 24.7832C177.527 24.2072 177.199 23.7352 176.767 23.3672C176.351 22.9992 175.807 22.8152 175.135 22.8152C174.671 22.8152 174.279 22.9512 173.959 23.2232C173.639 23.4792 173.479 23.8552 173.479 24.3512C173.479 24.8312 173.623 25.2552 173.911 25.6232C174.199 25.9752 174.567 26.3192 175.015 26.6552C175.479 26.9752 175.959 27.3192 176.455 27.6872C177.255 28.2792 177.927 28.8792 178.471 29.4872C179.031 30.0792 179.311 30.8552 179.311 31.8152C179.311 32.5352 179.103 33.1672 178.687 33.7112C178.271 34.2392 177.719 34.6472 177.031 34.9352C176.359 35.2233 175.607 35.3673 174.775 35.3673C174.295 35.3673 173.863 35.3193 173.479 35.2233C173.111 35.1273 172.791 35.0072 172.519 34.8632C172.311 34.7672 172.111 34.6792 171.919 34.5992C171.743 34.5032 171.575 34.4232 171.415 34.3592C171.255 34.3112 171.111 34.3672 170.983 34.5272C170.871 34.6872 170.783 34.9112 170.719 35.1993H170.215C170.247 34.6872 170.271 34.0632 170.287 33.3272C170.303 32.5912 170.311 31.6152 170.311 30.3992H170.815C170.911 31.2632 171.087 32.0312 171.343 32.7032C171.599 33.3592 171.943 33.8792 172.375 34.2632C172.823 34.6312 173.383 34.8152 174.055 34.8152C174.471 34.8152 174.855 34.6872 175.207 34.4312C175.559 34.1592 175.735 33.7192 175.735 33.1112C175.735 32.4072 175.503 31.8232 175.039 31.3592C174.591 30.8952 174.015 30.3912 173.311 29.8472C172.799 29.4312 172.311 29.0232 171.847 28.6232C171.399 28.2072 171.031 27.7592 170.743 27.2792C170.455 26.7832 170.311 26.2232 170.311 25.5992C170.311 24.8792 170.503 24.2712 170.887 23.7752C171.271 23.2792 171.775 22.9112 172.399 22.6712C173.039 22.4152 173.719 22.2872 174.439 22.2872ZM186.725 22.2872C187.893 22.2872 188.917 22.5032 189.797 22.9352C190.677 23.3672 191.365 24.0632 191.861 25.0232C192.357 25.9832 192.605 27.2552 192.605 28.8392C192.605 30.4232 192.357 31.6952 191.861 32.6552C191.365 33.5992 190.677 34.2872 189.797 34.7192C188.917 35.1513 187.893 35.3673 186.725 35.3673C185.589 35.3673 184.573 35.1513 183.677 34.7192C182.797 34.2872 182.101 33.5992 181.589 32.6552C181.093 31.6952 180.845 30.4232 180.845 28.8392C180.845 27.2552 181.093 25.9832 181.589 25.0232C182.101 24.0632 182.797 23.3672 183.677 22.9352C184.573 22.5032 185.589 22.2872 186.725 22.2872ZM186.725 22.7672C186.085 22.7672 185.549 23.2472 185.117 24.2072C184.685 25.1512 184.469 26.6952 184.469 28.8392C184.469 30.9832 184.685 32.5272 185.117 33.4712C185.549 34.4152 186.085 34.8872 186.725 34.8872C187.381 34.8872 187.917 34.4152 188.333 33.4712C188.765 32.5272 188.981 30.9832 188.981 28.8392C188.981 26.6952 188.765 25.1512 188.333 24.2072C187.917 23.2472 187.381 22.7672 186.725 22.7672ZM202.12 22.2872C202.632 22.2872 203.048 22.3992 203.368 22.6232C203.688 22.8312 203.92 23.1032 204.064 23.4392C204.224 23.7752 204.304 24.1272 204.304 24.4952C204.304 25.0872 204.128 25.5752 203.776 25.9592C203.44 26.3272 202.992 26.5112 202.432 26.5112C201.872 26.5112 201.432 26.3752 201.112 26.1032C200.808 25.8152 200.656 25.4392 200.656 24.9752C200.656 24.5272 200.752 24.1592 200.944 23.8712C201.152 23.5672 201.408 23.3112 201.712 23.1032C201.488 23.0392 201.264 23.0472 201.04 23.1272C200.624 23.1912 200.248 23.3912 199.912 23.7272C199.592 24.0472 199.336 24.4312 199.144 24.8792C198.952 25.3272 198.856 25.7672 198.856 26.1992V32.5592C198.856 33.3272 199.04 33.8472 199.408 34.1192C199.792 34.3912 200.36 34.5272 201.112 34.5272V35.0312C200.744 35.0152 200.208 34.9992 199.504 34.9832C198.8 34.9512 198.064 34.9352 197.296 34.9352C196.656 34.9352 196.008 34.9512 195.352 34.9832C194.696 34.9992 194.2 35.0152 193.864 35.0312V34.5272C194.424 34.5272 194.816 34.4072 195.04 34.1672C195.28 33.9272 195.4 33.4712 195.4 32.7992V25.2392C195.4 24.5192 195.288 23.9912 195.064 23.6552C194.856 23.3032 194.456 23.1272 193.864 23.1272V22.6232C194.376 22.6712 194.872 22.6953 195.352 22.6953C196.024 22.6953 196.648 22.6712 197.224 22.6232C197.816 22.5592 198.36 22.4712 198.856 22.3593V24.5912C199.048 24.1592 199.304 23.7672 199.624 23.4152C199.944 23.0632 200.312 22.7912 200.728 22.5992C201.144 22.3912 201.608 22.2872 202.12 22.2872Z" fill="black"/>
<rect x="0.804688" y="0.03125" width="50.9611" height="50.9611" fill="#FFDB43"/>
<g clip-path="url(#clip0_2957_12915)">
<path d="M11.5312 39.9396C11.6392 39.7383 11.7082 39.6003 11.7852 39.4677C12.9814 37.4223 14.172 35.3736 15.3841 33.3376C15.5505 33.0582 15.5372 32.8905 15.3404 32.6337C8.96869 24.3168 13.9684 12.3219 24.4012 10.8869C31.7898 9.87062 38.7633 14.9663 39.8822 22.2488C40.4792 26.1287 39.5512 29.6523 37.1214 32.7655C36.904 33.0439 36.868 33.2277 37.055 33.5433C38.2149 35.4993 39.348 37.4708 40.4893 39.4376C40.568 39.5734 40.6415 39.7122 40.7668 39.9396C40.1713 39.9396 39.64 39.9428 39.1087 39.9396C38.5482 39.9355 37.8848 40.1058 37.4586 39.8654C37.0323 39.6249 36.8373 38.9765 36.5565 38.4979C33.5386 33.3551 27.7874 23.5427 24.7679 18.4C24.5954 18.1078 24.5682 17.8883 24.7428 17.5818C25.231 16.7271 25.6782 15.8494 26.198 14.8752L35.1615 30.2628C37.54 27.1707 38.0795 21.3506 34.1677 17.1762C30.2414 12.9858 23.7703 12.5887 19.3593 16.2704C14.8755 20.0126 14.559 26.1559 17.2649 30.1126L26.198 14.8752C26.4729 15.345 26.7196 15.7547 26.955 16.1708C27.2827 16.747 27.6779 17.3137 27.6815 17.8963C27.6847 18.4594 27.28 19.0434 26.9502 19.6059C23.0519 26.2427 19.1551 32.8804 15.2599 39.5188C15.0761 39.8323 14.8858 39.9624 14.5103 39.9507C13.5401 39.9197 12.5684 39.9396 11.5312 39.9396Z" fill="#1D2624"/>
<path d="M18.3594 37.3987L19.8423 34.875C24.0694 37.6287 28.3114 37.6591 32.6084 34.9583L34.0725 37.4502C30.0813 40.5858 23.0411 40.9405 18.3594 37.3987Z" fill="#1D2624"/>
</g>
<defs>
<clipPath id="clip0_2957_12915">
<rect width="29.2356" height="29.2356" fill="white" transform="translate(11.5312 10.7578)"/>
</clipPath>
</defs>
</svg>
