<svg width="29" height="29" viewBox="0 0 29 29" fill="none" xmlns="http://www.w3.org/2000/svg">
<g clip-path="url(#clip0_3106_13563)">
<path d="M0 28.9466C0.107095 28.7469 0.175566 28.6101 0.251937 28.4785C1.43847 26.4496 2.61944 24.4175 3.82178 22.3978C3.98681 22.1207 3.97364 21.9543 3.77847 21.6996C-2.5419 13.4497 2.41754 1.55148 12.7663 0.128048C20.0953 -0.880038 27.0126 4.17459 28.1225 11.3984C28.7147 15.247 27.7942 18.7423 25.3839 21.8303C25.1683 22.1065 25.1326 22.2888 25.3181 22.6019C26.4686 24.5421 27.5925 26.4977 28.7247 28.4486C28.8028 28.5834 28.8756 28.7211 29 28.9466C28.4092 28.9466 27.8822 28.9498 27.3552 28.9466C26.7993 28.9425 26.1412 29.1115 25.7184 28.873C25.2956 28.6344 25.1021 27.9913 24.8236 27.5165C21.83 22.4152 16.1252 12.6819 13.13 7.58058C12.9588 7.29073 12.9319 7.07306 13.1051 6.76901C13.5894 5.92121 14.033 5.05051 14.5486 4.08416L23.4398 19.3478C25.7991 16.2806 26.3343 10.5074 22.454 6.3667C18.5594 2.21001 12.1404 1.81611 7.76499 5.46817C3.31732 9.18024 3.00335 15.274 5.68746 19.1988L14.5486 4.08416C14.8213 4.55023 15.0659 4.9566 15.2994 5.36934C15.6245 5.94091 16.0166 6.50301 16.0201 7.08096C16.0233 7.6395 15.6219 8.21882 15.2947 8.77677C11.4278 15.3601 7.56241 21.9443 3.69859 28.5292C3.51629 28.8402 3.32756 28.9692 2.95507 28.9576C1.99267 28.9269 1.02882 28.9466 0 28.9466Z" fill="#E18427"/>
<path d="M6.77344 26.4253L8.24439 23.9219C12.4375 26.6534 16.6452 26.6835 20.9077 24.0045L22.3599 26.4763C18.4009 29.5866 11.4175 29.9385 6.77344 26.4253Z" fill="#E18427"/>
</g>
<defs>
<clipPath id="clip0_3106_13563">
<rect width="29" height="29" fill="white"/>
</clipPath>
</defs>
</svg>
