<svg width="101" height="101" viewBox="0 0 101 101" fill="none" xmlns="http://www.w3.org/2000/svg">
<path fill-rule="evenodd" clip-rule="evenodd" d="M96.6497 10.969C96.4493 7.29403 93.5266 4.37165 89.8516 4.17108C82.4362 3.76596 67.9257 4.16005 54.0505 11.3367C46.9772 14.9954 39.4964 21.1985 33.5264 28.3555C33.4837 28.4067 33.4416 28.4582 33.3995 28.5096L33.3994 28.5098L33.3992 28.51L33.3988 28.5104L33.3985 28.5109C33.3685 28.5475 33.3385 28.5842 33.3083 28.6207L19.7598 29.6673C17.5296 29.8397 15.5433 31.0086 14.3098 32.8741L5.06656 46.8549C4.13111 48.2697 3.98239 50.0403 4.66849 51.5912C5.35477 53.1423 6.76492 54.2232 8.44086 54.4829L19.8556 56.2508L19.8485 56.2894L19.8485 56.2896C19.8105 56.4986 19.7726 56.7074 19.7377 56.9163C19.3577 59.1895 20.1109 61.5266 21.7527 63.1682L37.6524 79.0681C39.0136 80.4293 40.8529 81.1797 42.7375 81.1797C43.1256 81.1797 43.5159 81.1477 43.9044 81.0828C44.1132 81.048 44.3218 81.0101 44.5306 80.9721L44.5311 80.972L44.5317 80.972L44.5322 80.9719L44.5699 80.965L46.3379 92.3799C46.5975 94.0558 47.6784 95.4662 49.2292 96.1523C49.8744 96.4378 50.5573 96.5787 51.237 96.5787C52.1917 96.5785 53.1396 96.3006 53.9657 95.7544L67.9465 86.5109C69.8121 85.2773 70.9809 83.2909 71.1529 81.061L72.1995 67.5126C72.2369 67.4817 72.2744 67.4511 72.3119 67.4204L72.3141 67.4186C72.3363 67.4005 72.3585 67.3824 72.3806 67.3642C72.4088 67.3411 72.4369 67.3179 72.4649 67.2945C79.6221 61.3246 85.8253 53.8438 89.4839 46.7703C96.6609 32.8945 97.0543 18.3838 96.6497 10.969ZM64.9569 81.9888L51.5834 90.8308L49.8603 79.7063C55.5125 78.0444 61.1037 75.3828 66.4304 71.8172L65.7487 80.6432C65.7062 81.1938 65.4174 81.6844 64.9569 81.9888ZM41.4855 75.235L25.5856 59.3351C25.1799 58.9293 24.9923 58.3592 25.0843 57.81C25.557 54.9834 26.2915 52.2927 27.2008 49.7579L51.0576 73.6147C48.0133 74.7052 45.2864 75.3557 43.0105 75.7363C42.4605 75.8277 41.8911 75.6407 41.4855 75.235ZM20.1774 35.0721L29.0032 34.3903C25.4374 39.717 22.7758 45.3083 21.1139 50.9604L9.9896 49.2375L18.8317 35.8639C19.1364 35.4031 19.627 35.1146 20.1774 35.0721ZM68.993 63.1315C64.6143 66.7839 60.3638 69.4257 56.4459 71.3372L29.4824 44.3737C31.9865 39.2593 35.0426 35.0005 37.6891 31.8279C43.2138 25.2045 50.0851 19.4908 56.5412 16.1515C69.2755 9.56464 82.6923 9.20994 89.5565 9.58361C90.465 9.63313 91.1876 10.3557 91.2371 11.2644C91.6114 18.1287 91.2559 31.5453 84.6691 44.2798C81.33 50.7356 75.6162 57.6068 68.993 63.1315ZM67.6143 46.7508C71.084 46.7504 74.5551 45.4295 77.1967 42.7879C79.7564 40.2284 81.1659 36.8252 81.1659 33.2055C81.1659 29.5858 79.7563 26.1826 77.1967 23.6231C71.9128 18.339 63.3154 18.3394 58.0318 23.6231C55.4721 26.1826 54.0625 29.5858 54.0625 33.2055C54.0625 36.8252 55.4723 40.2284 58.0318 42.7879C60.674 45.4301 64.1433 46.7511 67.6143 46.7508ZM61.8646 27.456C63.4496 25.8707 65.5318 25.0782 67.6139 25.0782C69.6962 25.0782 71.7784 25.8707 73.3634 27.456C74.8992 28.9917 75.7448 31.0336 75.7448 33.2053C75.7448 35.3771 74.8992 37.4191 73.3634 38.9549C70.1933 42.1252 65.0347 42.125 61.8644 38.9549C60.3286 37.4191 59.4828 35.3773 59.4828 33.2055C59.4828 31.0337 60.3288 28.9917 61.8646 27.456ZM8.92366 79.5113C8.39459 80.0407 7.7009 80.3053 7.00721 80.3053C6.31352 80.3053 5.61983 80.0406 5.09076 79.5113C4.03225 78.4528 4.03225 76.7367 5.09076 75.6782L13.9398 66.829C14.9983 65.7705 16.7145 65.7705 17.7728 66.829C18.8314 67.8876 18.8314 69.6036 17.7728 70.6621L8.92366 79.5113ZM25.8823 74.9384C24.824 73.8799 23.1077 73.8799 22.0492 74.9384L5.03607 91.9518C3.97756 93.0103 3.97756 94.7263 5.03607 95.7848C5.56533 96.3141 6.25883 96.5786 6.95252 96.5786C7.64621 96.5786 8.3399 96.3141 8.86898 95.7847L25.8821 78.7715C26.9408 77.713 26.9408 75.9969 25.8823 74.9384ZM21.3095 91.897L30.1587 83.0478C31.217 81.9893 32.9333 81.9893 33.9916 83.0478C35.0501 84.1063 35.0501 85.8224 33.9916 86.8809L25.1424 95.7301C24.6133 96.2595 23.9195 96.524 23.226 96.524C22.5325 96.524 21.8388 96.2593 21.3095 95.7301C20.251 94.6715 20.251 92.9555 21.3095 91.897Z" fill="#E4903D"/>
</svg>
