<svg width="40" height="41" viewBox="0 0 40 41" fill="none" xmlns="http://www.w3.org/2000/svg">
<g clip-path="url(#clip0_741_637)">
<path d="M19.375 35.0312C19.375 35.4628 19.7247 35.8125 20.1562 35.8125C20.5878 35.8125 20.9375 35.4628 20.9375 35.0312C20.9375 34.5997 20.5878 34.25 20.1562 34.25C19.7247 34.25 19.375 34.5997 19.375 35.0312Z" fill="#E18427"/>
<path d="M24.006 20.6959C26.6061 22.6454 28.3871 25.764 28.8202 29.0956C30.08 29.1328 31.0938 30.1686 31.0938 31.4375V34.4771C33.3929 35.1548 35 37.2609 35 39.7188C35 40.1503 34.6503 40.5 34.2188 40.5H6.09375C5.66223 40.5 5.3125 40.1503 5.3125 39.7188C5.3125 37.2612 6.91925 35.1548 9.21875 34.4771V31.4375C9.21875 30.1979 10.1865 29.1804 11.4059 29.0995C11.6617 27.8654 11.5439 26.7448 11.1844 25.5781H7.0282C6.6861 25.5781 6.38397 25.3557 6.28204 25.0291C5.26367 21.7589 4.29688 17.7903 5.72632 12.0698C7.39441 5.39746 13.8251 0.5 19.2392 0.5C20.4922 0.5 21.9562 0.5 23.2031 0.5C23.6346 0.5 23.9844 0.849731 23.9844 1.28125V5.69318C26.5005 6.05878 28.4631 8.16479 28.6197 10.7524L31.9641 14.0968C32.8799 15.0126 32.8802 16.4958 31.9641 17.4119L30.0513 19.3242C28.8391 20.5372 26.8988 20.5323 25.6885 19.3669C25.1978 18.9723 23.6792 16.7555 21.2439 17.6301C21.9568 18.8167 22.8998 19.8665 24.006 20.6959ZM10.7812 31.4375V34.25H17.0312C17.4628 34.25 17.8125 34.5997 17.8125 35.0312C17.8125 35.4628 17.4628 35.8125 17.0312 35.8125H10.7812C8.92365 35.8125 7.32025 37.1068 6.95221 38.9375H33.3603C32.9935 37.1122 31.395 35.8125 29.5312 35.8125H23.2812C22.8497 35.8125 22.5 35.4628 22.5 35.0312C22.5 34.5997 22.8497 34.25 23.2812 34.25H29.5312V31.4375C29.5312 31.0066 29.1809 30.6562 28.75 30.6562H11.5625C11.1316 30.6562 10.7812 31.0066 10.7812 31.4375ZM7.24243 12.4489C5.98602 17.4754 6.68396 20.9449 7.6059 24.0156H10.6915C9.72076 20.9471 8.89832 17.9457 10.0882 13.1865C10.91 9.89423 13.8062 6.78357 17.7344 5.85431V3.61554C17.7344 3.08392 17.8683 2.58313 18.1039 2.14459C13.6078 2.77783 8.60718 6.98834 7.24243 12.4489ZM19.7742 18.2136C18.1982 18.6354 16.8567 18.1425 15.8322 17.6365C15.4453 17.4455 15.2866 16.9767 15.4776 16.5898C15.6686 16.2028 16.1371 16.0444 16.524 16.2355C17.7585 16.8452 18.8165 17.0576 20.0751 16.4332C21.5088 15.7161 22.9913 15.6791 24.3616 16.3255C25.5124 16.8684 26.2073 17.6783 26.7502 18.2194C27.3572 18.8264 28.3392 18.8267 28.9462 18.2194L30.8594 16.3069C31.1646 16.0017 31.1646 15.507 30.8594 15.2015L27.2961 11.6383C27.1497 11.4918 27.0673 11.2932 27.0673 11.0859C27.0673 8.94269 25.3339 7.19922 23.2031 7.19922C22.7716 7.19922 22.4219 6.84949 22.4219 6.41797V2.0625H20.8459C19.9918 2.0625 19.2969 2.75922 19.2969 3.61554V6.49213C19.2969 6.87268 19.0228 7.19769 18.6478 7.26208C15.0232 7.88434 12.3273 10.6672 11.604 13.5652C10.4367 18.2344 11.3336 20.8586 12.5037 24.5591C12.9626 26.0124 13.295 27.2868 12.9965 29.0938H27.2421C26.8188 26.2501 25.2847 23.6076 23.0688 21.9462C21.7331 20.9443 20.6042 19.6635 19.7742 18.2136Z" fill="#E18427"/>
<path d="M22.5 11.125H24.0625C24.494 11.125 24.8438 11.4747 24.8438 11.9062C24.8438 12.3378 24.494 12.6875 24.0625 12.6875H22.5C22.0685 12.6875 21.7188 12.3378 21.7188 11.9062C21.7188 11.4747 22.0685 11.125 22.5 11.125Z" fill="#E18427"/>
</g>
<defs>
<clipPath id="clip0_741_637">
<rect width="40" height="40" fill="white" transform="matrix(-1 0 0 1 40 0.5)"/>
</clipPath>
</defs>
</svg>
