<svg width="21" height="16" viewBox="0 0 21 16" fill="none" xmlns="http://www.w3.org/2000/svg">
<path fill-rule="evenodd" clip-rule="evenodd" d="M20.3047 1.80859C20.3047 1.25631 19.857 0.808594 19.3047 0.808594H8.80469C8.2524 0.808594 7.80469 1.25631 7.80469 1.80859C7.80469 2.36088 8.2524 2.80859 8.80469 2.80859H19.3047C19.857 2.80859 20.3047 2.36088 20.3047 1.80859ZM20.3047 8.01172C20.3047 7.45943 19.857 7.01172 19.3047 7.01172H4.63802C4.08574 7.01172 3.63802 7.45943 3.63802 8.01172C3.63802 8.564 4.08574 9.01172 4.63802 9.01172H19.3047C19.857 9.01172 20.3047 8.564 20.3047 8.01172ZM19.3047 13.1914C19.857 13.1914 20.3047 13.6391 20.3047 14.1914C20.3047 14.7437 19.857 15.1914 19.3047 15.1914H1.30469C0.752403 15.1914 0.304688 14.7437 0.304688 14.1914C0.304688 13.6391 0.752403 13.1914 1.30469 13.1914H19.3047Z" fill="white"/>
</svg>
