<svg width="215" height="69" viewBox="0 0 215 69" fill="none" xmlns="http://www.w3.org/2000/svg">
<path d="M1.07687 44.2217C0.532637 43.5719 0.618229 42.604 1.26804 42.0598C1.91785 41.5155 2.88581 41.6011 3.43004 42.2509L1.07687 44.2217ZM56.1225 65.587L55.7786 64.0913L56.1225 65.587ZM91.7488 21.5091L90.3205 22.0705L90.3205 22.0705L91.7488 21.5091ZM71.2978 10.3992L71.7708 11.8592L71.7708 11.8592L71.2978 10.3992ZM61.5791 28.4141L63.1129 28.3592L61.5791 28.4141ZM117.085 53.8811L117.498 55.3592L117.085 53.8811ZM148.302 10.668L149.756 10.1776L148.302 10.668ZM133.194 1.84938L132.99 0.328309L132.99 0.328309L133.194 1.84938ZM122.541 16.7082L121.009 16.6234L122.541 16.7082ZM184.601 42.6118L183.917 41.2379L183.917 41.2379L184.601 42.6118ZM212.184 4.96297L211.304 3.70612C211.762 3.38479 212.359 3.33868 212.862 3.58581C213.364 3.83295 213.692 4.3341 213.718 4.89345L212.184 4.96297ZM200.454 15.0571C199.76 15.5436 198.803 15.3752 198.317 14.681C197.83 13.9869 197.999 13.0299 198.693 12.5434L200.454 15.0571ZM214.45 21.0474C214.488 21.8941 213.833 22.6117 212.986 22.6501C212.14 22.6885 211.422 22.0332 211.384 21.1864L214.45 21.0474ZM2.25345 43.2363C3.43004 42.2509 3.42979 42.2506 3.42963 42.2504C3.4297 42.2505 3.42964 42.2505 3.42978 42.2506C3.43007 42.251 3.43072 42.2517 3.43174 42.253C3.43379 42.2554 3.4373 42.2595 3.44228 42.2654C3.45224 42.2772 3.46805 42.2958 3.48963 42.321C3.5328 42.3713 3.59907 42.4481 3.68785 42.5492C3.86542 42.7514 4.13295 43.0511 4.48573 43.4324C5.19144 44.1952 6.23732 45.2836 7.58566 46.5717C10.2848 49.1503 14.1828 52.5162 18.9781 55.6703C28.5995 61.9987 41.6266 67.3444 55.7786 64.0913L56.4663 67.0828C41.143 70.6051 27.2355 64.7755 17.2913 58.2347C12.3037 54.9541 8.26114 51.462 5.46537 48.7912C4.06624 47.4545 2.9761 46.3205 2.23264 45.5169C1.86083 45.115 1.5755 44.7955 1.38135 44.5744C1.28427 44.4638 1.20996 44.3778 1.15902 44.3184C1.13356 44.2887 1.11392 44.2656 1.10021 44.2494C1.09335 44.2413 1.08797 44.235 1.08407 44.2303C1.08213 44.228 1.08055 44.2261 1.07935 44.2247C1.07875 44.224 1.07813 44.2233 1.07783 44.2229C1.0773 44.2223 1.07687 44.2217 2.25345 43.2363ZM55.7786 64.0913C66.8182 61.5537 77.1854 55.1621 83.9112 47.2784C90.6528 39.3762 93.5367 30.2534 90.3205 22.0705L93.1772 20.9477C96.9665 30.5887 93.3919 40.8948 86.2463 49.2705C79.085 57.6647 68.1362 64.4002 56.4663 67.0828L55.7786 64.0913ZM90.3205 22.0705C89.3744 19.6636 86.8863 16.3397 83.4766 14.0075C80.0965 11.6956 76.0122 10.4851 71.7708 11.8592L70.8247 8.93916C76.2409 7.18446 81.313 8.80886 85.2095 11.474C89.0764 14.119 91.985 17.9145 93.1772 20.9477L90.3205 22.0705ZM71.7708 11.8592C67.7636 13.1574 65.589 15.8238 64.3998 18.8866C63.1863 22.0119 63.0118 25.5377 63.1129 28.3592L60.0454 28.469C59.9388 25.4924 60.1017 21.4758 61.5384 17.7756C62.9994 14.013 65.788 10.5709 70.8247 8.93916L71.7708 11.8592ZM63.1129 28.3592C63.5173 39.6496 70.98 47.2163 81.4617 51.2307C91.9763 55.2577 105.296 55.5813 116.672 52.403L117.498 55.3592C105.555 58.6959 91.5558 58.3835 80.3638 54.0971C69.1388 49.798 60.5076 41.3738 60.0454 28.469L63.1129 28.3592ZM116.672 52.403C126.43 49.6765 135.607 43.9657 141.51 36.6109C147.391 29.2839 149.97 20.4177 146.848 11.1584L149.756 10.1776C153.286 20.6456 150.282 30.5849 143.904 38.5321C137.548 46.4515 127.79 52.4836 117.498 55.3592L116.672 52.403ZM146.848 11.1584C145.866 8.24571 144.209 6.10444 142.019 4.78777C139.824 3.4688 136.953 2.89308 133.398 3.37046L132.99 0.328309C137.09 -0.222337 140.694 0.410165 143.6 2.15698C146.51 3.9061 148.58 6.68816 149.756 10.1776L146.848 11.1584ZM133.398 3.37046C130.129 3.80949 127.964 5.38054 126.522 7.65716C125.039 9.99858 124.274 13.1693 124.074 16.793L121.009 16.6234C121.224 12.7308 122.055 8.97308 123.929 6.01464C125.844 2.99139 128.798 0.891182 132.99 0.328309L133.398 3.37046ZM124.074 16.793C123.399 28.9797 132.803 37.6613 145.605 42.0594C158.379 46.4478 173.817 46.2657 183.917 41.2379L185.285 43.9857C174.274 49.4673 157.951 49.5464 144.608 44.9623C131.292 40.3878 120.221 30.8628 121.009 16.6234L124.074 16.793ZM183.917 41.2379C191.764 37.3314 198.47 28.2783 203.276 19.9284C205.656 15.7941 207.528 11.9098 208.804 9.05859C209.442 7.63395 209.93 6.46969 210.257 5.66415C210.421 5.26144 210.545 4.94856 210.627 4.73782C210.668 4.63246 210.699 4.55264 210.719 4.49992C210.729 4.47355 210.736 4.45397 210.741 4.44134C210.743 4.43503 210.745 4.43046 210.746 4.42766C210.747 4.42626 210.747 4.4253 210.747 4.42478C210.747 4.42452 210.747 4.42447 210.747 4.42434C210.747 4.4244 210.747 4.42457 212.184 4.96297C213.622 5.50136 213.622 5.50175 213.621 5.50226C213.621 5.50258 213.621 5.5032 213.621 5.50383C213.62 5.50511 213.62 5.50683 213.619 5.50899C213.617 5.51332 213.615 5.51942 213.612 5.52727C213.606 5.54297 213.597 5.56568 213.586 5.59519C213.564 5.65423 213.53 5.74051 213.487 5.85249C213.399 6.07644 213.27 6.40326 213.101 6.82057C212.761 7.65507 212.259 8.85214 211.605 10.3126C210.299 13.2317 208.381 17.213 205.936 21.4598C201.094 29.8721 194.007 39.6435 185.285 43.9857L183.917 41.2379ZM213.065 6.21981L200.454 15.0571L198.693 12.5434L211.304 3.70612L213.065 6.21981ZM213.718 4.89345L214.45 21.0474L211.384 21.1864L210.651 5.03248L213.718 4.89345Z" fill="#E4903D"/>
</svg>
