<svg width="448" height="400" viewBox="0 0 448 400" fill="none" xmlns="http://www.w3.org/2000/svg">
<mask id="mask0_3003_13763" style="mask-type:alpha" maskUnits="userSpaceOnUse" x="0" y="0" width="448" height="400">
<path fill-rule="evenodd" clip-rule="evenodd" d="M245.599 399.57C215.924 403.539 190.649 378.828 161.108 373.961C111.669 365.817 47.2342 398.795 13.8884 361.397C-16.5383 327.273 9.48042 268.156 30.622 227.619C48.7449 192.87 89.2198 178.505 121.135 155.76C140.981 141.617 166.849 137.386 182.931 119.076C210.3 87.9133 209.195 33.9196 245.599 14.0466C281.453 -5.52684 333.301 -5.38617 365.951 19.1634C399.158 44.132 391.438 96.0465 406.269 134.856C418.466 166.774 454.75 194.695 445.611 227.619C435.876 262.687 387.847 269.254 361.883 294.756C344.241 312.085 336.346 336.425 317.977 352.982C296.295 372.525 274.53 395.701 245.599 399.57Z" fill="#C4C4C4"/>
</mask>
<g mask="url(#mask0_3003_13763)">
<path fill-rule="evenodd" clip-rule="evenodd" d="M191.907 323.848C162.228 327.816 136.95 303.111 107.405 298.245C57.9595 290.102 -6.48432 323.073 -39.8346 285.684C-70.2655 251.568 -44.2432 192.466 -23.0987 151.939C-4.9734 117.198 35.507 102.837 67.427 80.0974C87.2756 65.9576 113.147 61.7277 129.231 43.4217C156.604 12.267 155.499 -41.7135 191.907 -61.5816C227.767 -81.1503 279.621 -81.0097 312.276 -56.4661C345.487 -31.5036 337.767 20.3982 352.6 59.1983C364.798 91.1084 401.087 119.023 391.946 151.939C382.211 186.998 334.175 193.563 308.208 219.059C290.563 236.384 282.667 260.718 264.295 277.271C242.611 296.809 220.843 319.98 191.907 323.848Z" stroke="#E4903D" stroke-opacity="0.1" stroke-width="5.36256"/>
<path fill-rule="evenodd" clip-rule="evenodd" d="M160.105 262.204C134.269 265.658 112.263 244.153 86.5435 239.918C43.4998 232.829 -12.6004 261.53 -41.6327 228.984C-68.1237 199.287 -45.4705 147.84 -27.0637 112.561C-11.2851 82.3207 23.9543 69.8193 51.7415 50.0253C69.0203 37.7169 91.5422 34.0349 105.544 18.0999C129.372 -9.01948 128.41 -56.0082 160.105 -73.3029C191.322 -90.337 236.463 -90.2146 264.889 -68.85C293.801 -47.1207 287.08 -1.94144 299.992 31.8331C310.612 59.6101 342.202 83.9088 334.245 112.561C325.77 143.079 283.953 148.795 261.348 170.988C245.987 186.069 239.114 207.251 223.121 221.66C204.244 238.668 185.294 258.837 160.105 262.204Z" stroke="#E4903D" stroke-opacity="0.1" stroke-width="5.36256"/>
<path fill-rule="evenodd" clip-rule="evenodd" d="M117.976 209.687C95.0218 212.762 75.4706 193.61 52.62 189.838C14.3777 183.526 -35.4647 209.086 -61.2587 180.101C-84.7946 153.653 -64.6684 107.834 -48.3147 76.4161C-34.2962 49.484 -2.98761 38.3503 21.7 20.722C37.0514 9.76024 57.0611 6.48104 69.5007 -7.71049C90.6714 -31.8628 89.8169 -73.7105 117.976 -89.113C145.711 -104.283 185.816 -104.174 211.072 -85.1473C236.758 -65.7954 230.787 -25.5591 242.259 4.52015C251.694 29.2581 279.761 50.8983 272.691 76.4161C265.162 103.595 228.01 108.685 207.926 128.45C194.278 141.881 188.172 160.746 173.963 173.578C157.191 188.725 140.356 206.688 117.976 209.687Z" stroke="#E4903D" stroke-opacity="0.1" stroke-width="5.36256"/>
</g>
</svg>
