<svg width="186" height="72" viewBox="0 0 186 72" fill="none" xmlns="http://www.w3.org/2000/svg">
<mask id="mask0_2809_10108" style="mask-type:alpha" maskUnits="userSpaceOnUse" x="0" y="0" width="186" height="72">
<rect width="186" height="72" fill="#D9D9D9"/>
</mask>
<g mask="url(#mask0_2809_10108)">
<path fill-rule="evenodd" clip-rule="evenodd" d="M134.414 43.3837C122.077 49.8055 107.132 43.0034 93.4578 45.5443C70.5734 49.7967 47.6346 74.3833 27.159 63.3139C8.47589 53.2135 10.5029 23.2774 13.3345 2.2284C15.7619 -15.8151 31.1742 -28.4849 41.5234 -43.4633C47.9588 -52.7772 58.591 -58.7122 62.7236 -69.2519C69.7568 -87.1892 60.7441 -110.602 73.5076 -125.035C86.0787 -139.25 108.751 -147.38 126.893 -141.813C145.344 -136.152 150.173 -112.253 162.784 -97.6419C173.154 -85.6252 193.416 -79.1599 194.625 -63.3329C195.913 -46.4756 175.968 -36.0188 168.655 -20.7761C163.685 -10.4187 164.082 1.46171 158.673 11.5967C152.288 23.5595 146.442 37.1227 134.414 43.3837Z" fill="#E4903D"/>
<mask id="mask1_2809_10108" style="mask-type:alpha" maskUnits="userSpaceOnUse" x="11" y="-144" width="184" height="211">
<path fill-rule="evenodd" clip-rule="evenodd" d="M134.414 43.3837C122.077 49.8055 107.132 43.0034 93.4578 45.5443C70.5734 49.7967 47.6346 74.3833 27.159 63.3139C8.47589 53.2135 10.5029 23.2774 13.3345 2.2284C15.7619 -15.8151 31.1742 -28.4849 41.5234 -43.4633C47.9588 -52.7772 58.591 -58.7122 62.7236 -69.2519C69.7568 -87.1892 60.7441 -110.602 73.5076 -125.035C86.0787 -139.25 108.751 -147.38 126.893 -141.813C145.344 -136.152 150.173 -112.253 162.784 -97.6419C173.154 -85.6252 193.416 -79.1599 194.625 -63.3329C195.913 -46.4756 175.968 -36.0188 168.655 -20.7761C163.685 -10.4187 164.082 1.46171 158.673 11.5967C152.288 23.5595 146.442 37.1227 134.414 43.3837Z" fill="white"/>
</mask>
<g mask="url(#mask1_2809_10108)">
<path fill-rule="evenodd" clip-rule="evenodd" d="M118.089 35.7396C105.751 42.1617 90.8048 35.3627 77.1293 37.9048C54.2423 42.1591 31.2983 66.7435 10.8222 55.6788C-7.8614 45.5827 -5.83058 15.6524 -2.99611 -5.39269C-0.566364 -23.4328 14.8489 -36.102 25.2009 -51.0786C31.6381 -60.3914 42.272 -66.3266 46.4062 -76.8647C53.4423 -94.7992 44.4315 -118.206 57.198 -132.638C69.772 -146.852 92.4473 -154.983 110.59 -149.419C129.042 -143.761 133.869 -119.868 146.479 -105.261C156.849 -93.2481 177.112 -86.7866 178.319 -70.9629C179.605 -54.1091 159.657 -43.652 152.341 -28.4115C147.37 -18.0555 147.765 -6.17755 142.354 3.95611C135.968 15.9173 130.119 29.4784 118.089 35.7396Z" fill="#E4903D" stroke="white" stroke-width="4.30886"/>
<path fill-rule="evenodd" clip-rule="evenodd" d="M94.4562 13.8377C83.7151 19.4282 70.7042 13.5101 58.7994 15.7231C38.8756 19.4268 18.902 40.8275 1.07731 31.1962C-15.187 22.408 -13.4187 -3.6458 -10.9509 -21.9652C-8.83541 -37.6689 4.58412 -48.6975 13.596 -61.7345C19.1999 -69.8413 28.457 -75.0079 32.0561 -84.1812C38.1815 -99.793 30.3378 -120.168 41.4515 -132.731C52.3977 -145.104 72.1372 -152.182 87.9307 -147.34C103.994 -142.415 108.195 -121.616 119.172 -108.901C128.2 -98.4445 145.839 -92.8202 146.889 -79.046C148.008 -64.3751 130.643 -55.272 124.274 -42.0053C119.946 -32.9905 120.29 -22.651 115.58 -13.8297C110.02 -3.41761 104.928 8.38721 94.4562 13.8377Z" fill="#E4903D" stroke="white" stroke-width="4.30886"/>
<path fill-rule="evenodd" clip-rule="evenodd" d="M67.7564 -2.45433C58.2146 2.51577 46.6478 -2.76226 36.0695 -0.800036C18.3657 2.48391 0.629784 21.5242 -15.2176 12.9369C-29.6778 5.10129 -28.1241 -18.0944 -25.9434 -34.4033C-24.0741 -48.3835 -12.1557 -58.1935 -4.15574 -69.7948C0.818852 -77.0088 9.04216 -81.6025 12.2345 -89.7674C17.6674 -103.663 10.6828 -121.81 20.551 -132.987C30.2704 -143.996 47.808 -150.284 61.8471 -145.962C76.1257 -141.566 79.8738 -123.045 89.6375 -111.717C97.6674 -102.401 113.347 -97.3814 114.29 -85.1169C115.295 -72.054 99.8687 -63.961 94.2175 -52.1534C90.3775 -44.1301 90.6901 -34.9241 86.5101 -27.0734C81.5764 -17.8069 77.0593 -7.29999 67.7564 -2.45433Z" fill="#E4903D" stroke="white" stroke-width="4.30886"/>
</g>
</g>
</svg>
