<svg width="170" height="48" viewBox="0 0 170 48" fill="none" xmlns="http://www.w3.org/2000/svg">
<path d="M13.2812 18.2875C13.2812 18.2875 13.7375 10.8125 21.3419 10.8125C28.9463 10.8125 29.149 16.4145 29.149 18.2875C29.149 24.7749 24.1471 26.8693 19.2127 32.3861H29.149V36.694H13.4164V32.3861L21.2236 24.8941C21.2236 24.8941 24.6709 21.744 24.6709 18.2875C24.6709 14.8309 22.0347 14.5074 21.4095 14.5074C20.5645 14.5074 18.1987 14.6266 17.5566 18.2875H13.2812Z" fill="#008B8B"/>
<path d="M55.1064 11.2578H53.7376L46.7416 22.615L39.7455 11.2578H38.4105H34V36.6966H38.4105V17.3195L44.2237 26.7016L44.5785 27.2635H48.9046L49.2594 26.7016L55.1064 17.2855V36.6966H59.5V11.2578H55.1064Z" fill="#8BC75A"/>
<path d="M71.9024 20.1484C66.8159 20.1484 63.4531 23.9626 63.4531 28.6621C63.4531 33.3616 67.2384 37.1758 71.9024 37.1758C71.9024 37.1758 76.5326 37.2609 78.8309 33.8214L76.0426 31.5567C76.0426 31.5567 74.471 33.4297 71.8686 33.4297C69.2662 33.4297 67.7116 31.3354 67.5088 29.9562H79.8955V28.2194C79.9124 28.2194 79.5744 20.4379 71.9024 20.1484ZM67.6778 26.8913C67.6778 26.8913 68.4889 23.9796 71.7165 23.9796C75.299 23.9796 75.7553 26.8913 75.7553 26.8913H67.6778Z" fill="#8BC75A"/>
<path d="M91.1329 20.1484C86.0464 20.1484 82.6836 23.9626 82.6836 28.6621C82.6836 33.3616 86.4689 37.1758 91.1329 37.1758C91.1329 37.1758 95.7631 37.2609 98.0613 33.8214L95.2731 31.5397C95.2731 31.5397 93.7015 33.4127 91.0991 33.4127C88.4967 33.4127 86.942 31.3184 86.7393 29.9391H99.1259V28.2024C99.1428 28.2194 98.8049 20.4379 91.1329 20.1484ZM86.9082 26.8913C86.9082 26.8913 87.7194 23.9796 90.947 23.9796C94.5295 23.9796 94.9858 26.8913 94.9858 26.8913H86.9082Z" fill="#8BC75A"/>
<path d="M122.598 20.1484C117.511 20.1484 114.148 23.9626 114.148 28.6621C114.148 33.3616 117.934 37.1758 122.598 37.1758C122.598 37.1758 127.228 37.2609 129.526 33.8214L126.738 31.5567C126.738 31.5567 125.166 33.4297 122.564 33.4297C119.962 33.4297 118.407 31.3354 118.204 29.9562H130.591V28.2194C130.591 28.2194 130.27 20.4379 122.598 20.1484ZM118.356 26.8913C118.356 26.8913 119.167 23.9796 122.395 23.9796C125.977 23.9796 126.434 26.8913 126.434 26.8913H118.356Z" fill="#8BC75A"/>
<path d="M107.409 14.8516H103.303V20.3514H100.734V24.4209H103.303V32.3897C103.303 32.3897 103.303 37.1914 107.967 37.1914C107.967 37.1914 110.13 37.2255 111.279 36.7487V33.0197C111.279 33.0197 110.265 33.2921 108.694 33.1389C107.409 32.9686 107.409 30.9083 107.409 30.9083V24.4379H111.735V20.3684H107.409V14.8516Z" fill="#8BC75A"/>
<path d="M138.584 21.6948V20.3837H134.41V36.6959H138.584V27.2627C138.584 27.2627 138.719 23.67 144.769 24.2319V20.1623C144.769 20.1453 140.308 19.958 138.584 21.6948Z" fill="#8BC75A"/>
<path d="M153.116 26.6018C151.714 26.2102 151.207 25.9377 151.038 25.4439C150.869 24.9842 151.072 24.4563 151.477 24.2009C152.153 23.7923 153.539 23.5539 156.243 25.1885L158.507 22.1747C158.507 22.1747 156.412 20.1484 152.559 20.1484C148.706 20.1484 146.915 22.4301 146.915 25.4269C146.915 28.4237 149.111 29.4794 151.595 30.2116C154.08 30.9438 155.06 31.1651 155.06 32.1186C155.06 33.0722 153.944 33.3787 153.133 33.3787C152.322 33.3787 149.99 33.0381 148.638 31.6589L146.441 34.8771C146.441 34.8771 148.926 37.1928 152.897 37.1928C156.868 37.1928 159.098 34.7238 159.098 32.3911C159.082 30.0754 158.49 27.9469 153.116 26.6018Z" fill="#8BC75A"/>
</svg>
