<svg width="30" height="31" viewBox="0 0 30 31" fill="none" xmlns="http://www.w3.org/2000/svg">
<g clip-path="url(#clip0_741_600)">
<path d="M17.0079 19.7845C16.7372 18.5529 16.4759 17.3237 16.1876 15.9796C16.7735 16.0757 17.2774 16.1284 17.7637 16.2397C21.0695 16.9909 23.6815 18.7756 25.6337 21.5423C26.1025 22.2055 26.7809 22.3555 27.3516 21.9548C27.9223 21.554 28.009 20.8732 27.5497 20.2052C26.5325 18.7264 25.3232 17.4116 23.8221 16.4378C22.5729 15.6292 21.23 14.966 20.0336 14.2969C20.6347 13.5152 21.3812 12.6668 21.9846 11.7259C22.6139 10.7462 22.8682 9.60485 22.9432 8.44474C23.0126 7.31063 22.8343 6.175 22.4206 5.11675C22.0126 4.0344 21.3671 3.05733 20.5316 2.25748C17.493 -0.650996 12.8268 -0.759976 9.73083 1.99382C8.14065 3.40822 7.2196 5.18237 7.0532 7.29283C6.82821 10.1673 7.95317 12.4981 10.1738 14.3437C10.025 14.4082 9.93941 14.4504 9.84801 14.4843C4.73415 16.4448 1.51045 20.0939 0.141754 25.3824C-0.507439 27.8901 1.13898 29.9923 3.73575 29.9994C5.29819 30.0064 6.86063 30.0064 8.42307 29.9994C9.28671 29.9994 9.8152 29.5599 9.82926 28.851C9.8445 28.1198 9.30077 27.6581 8.41018 27.6557C6.86688 27.6557 5.32358 27.6557 3.78028 27.6557C2.67759 27.6557 2.1655 27.0077 2.42916 25.9472C3.55529 21.4181 6.34776 18.3537 10.6777 16.6897C11.6046 16.3382 12.61 16.1858 13.6717 15.9175C13.6002 16.2983 13.5709 16.4905 13.5287 16.6804C12.853 19.7466 12.1753 22.8129 11.4956 25.8792C11.3562 26.5038 11.4792 27.0171 11.9643 27.4694C12.6475 28.1104 13.2897 28.7959 13.9564 29.4521C14.6232 30.1083 15.2455 30.1001 15.897 29.4615C16.5673 28.8064 17.2083 28.1186 17.8891 27.4788C18.3918 27.01 18.5008 26.4804 18.3578 25.8382C17.8938 23.8227 17.452 21.8036 17.0079 19.7845ZM9.36053 7.94906C9.36309 6.83634 9.69562 5.74937 10.3161 4.82568C10.9365 3.90199 11.817 3.18307 12.8461 2.75987C13.8752 2.33668 15.0067 2.22823 16.0974 2.44824C17.1882 2.66825 18.1892 3.20684 18.9738 3.99587C19.7584 4.78489 20.2913 5.7889 20.5052 6.88088C20.7191 7.97286 20.6043 9.10374 20.1753 10.1304C19.7463 11.1572 19.0224 12.0336 18.0953 12.6488C17.1681 13.264 16.0793 13.5904 14.9666 13.5867C13.4771 13.5774 12.0518 12.9795 11.0016 11.9233C9.95135 10.8672 9.36143 9.43851 9.36053 7.94906ZM15.6708 26.355C15.4728 26.6186 15.2349 26.8518 15.0134 27.0991C14.8881 27.0393 14.8693 27.0335 14.8541 27.0229C14.049 26.4628 13.7889 25.7925 14.1217 24.7964C14.4814 23.716 14.6361 22.57 14.9736 21.4462C15.2923 22.9039 15.6216 24.3594 15.9111 25.823C15.9462 25.9765 15.7892 26.1991 15.6708 26.355Z" fill="#E18427"/>
<path d="M29.9332 25.8473C29.7832 25.1207 29.2746 24.7059 28.629 24.7926C27.9657 24.8758 27.5872 25.3785 27.6165 26.125C27.6598 27.2089 27.231 27.6542 26.1283 27.6566C24.5088 27.6566 22.8893 27.6566 21.2699 27.6566C20.4719 27.6566 19.9644 28.1441 19.9809 28.8518C19.9949 29.535 20.4918 29.9885 21.2699 29.9979C22.1476 30.0084 23.0276 29.9979 23.903 29.9979C24.8006 29.9979 25.6994 30.0248 26.5982 29.9979C28.711 29.9135 30.3492 27.871 29.9332 25.8473Z" fill="#E18427"/>
</g>
<defs>
<clipPath id="clip0_741_600">
<rect width="30" height="30.0117" fill="white"/>
</clipPath>
</defs>
</svg>
