<svg width="32" height="33" viewBox="0 0 32 33" fill="none" xmlns="http://www.w3.org/2000/svg">
<path d="M16.4907 3.78312L28.4907 8.58309C28.9574 8.76976 29.3307 9.32975 29.3307 9.82308V14.2498C29.3307 14.9831 28.7307 15.5831 27.9974 15.5831H3.9974C3.26406 15.5831 2.66406 14.9831 2.66406 14.2498V9.82308C2.66406 9.32975 3.0374 8.76976 3.50407 8.58309L15.5041 3.78312C15.7707 3.67646 16.2241 3.67646 16.4907 3.78312Z" stroke="#B672E5" stroke-width="2" stroke-miterlimit="10" stroke-linecap="round" stroke-linejoin="round"/>
<path d="M29.3307 30.2474H2.66406V26.2474C2.66406 25.5141 3.26406 24.9141 3.9974 24.9141H27.9974C28.7307 24.9141 29.3307 25.5141 29.3307 26.2474V30.2474Z" stroke="#B672E5" stroke-width="2" stroke-miterlimit="10" stroke-linecap="round" stroke-linejoin="round"/>
<path d="M5.33594 24.9115V15.5781" stroke="#B672E5" stroke-width="2" stroke-miterlimit="10" stroke-linecap="round" stroke-linejoin="round"/>
<path d="M10.6641 24.9115V15.5781" stroke="#B672E5" stroke-width="2" stroke-miterlimit="10" stroke-linecap="round" stroke-linejoin="round"/>
<path d="M16 24.9115V15.5781" stroke="#B672E5" stroke-width="2" stroke-miterlimit="10" stroke-linecap="round" stroke-linejoin="round"/>
<path d="M21.3359 24.9115V15.5781" stroke="#B672E5" stroke-width="2" stroke-miterlimit="10" stroke-linecap="round" stroke-linejoin="round"/>
<path d="M26.6641 24.9115V15.5781" stroke="#B672E5" stroke-width="2" stroke-miterlimit="10" stroke-linecap="round" stroke-linejoin="round"/>
<path d="M1.33594 30.25H30.6693" stroke="#B672E5" stroke-width="2" stroke-miterlimit="10" stroke-linecap="round" stroke-linejoin="round"/>
<path d="M16 12.25C17.1046 12.25 18 11.3546 18 10.25C18 9.14543 17.1046 8.25 16 8.25C14.8954 8.25 14 9.14543 14 10.25C14 11.3546 14.8954 12.25 16 12.25Z" stroke="#B672E5" stroke-width="2" stroke-miterlimit="10" stroke-linecap="round" stroke-linejoin="round"/>
</svg>
