<svg width="107" height="101" viewBox="0 0 107 101" fill="none" xmlns="http://www.w3.org/2000/svg">
<g opacity="0.3">
<mask id="path-1-outside-1_741_596" maskUnits="userSpaceOnUse" x="0" y="0" width="78" height="101" fill="black">
<rect fill="white" width="78" height="101"/>
<path d="M4.24602 83.785C12.9796 72.4825 17.4165 61.791 17.5038 51.0079C17.5912 40.2248 13.3466 29.014 5.03218 16.8868C4.06619 15.6061 3.44067 14.1524 3.20187 12.6326C2.96307 11.1128 3.11698 9.56543 3.6522 8.10445C4.25042 6.56413 5.327 5.19971 6.76142 4.16384C8.12605 3.15921 9.76132 2.4758 11.5125 2.1783C13.1571 1.89475 14.8548 1.95 16.4708 2.33971C18.0867 2.72942 19.5767 3.44288 20.8226 4.42351L70.5868 41.5688C74.0803 44.257 75.9841 47.1589 75.9841 50.3206C75.9841 53.4822 74.2375 56.43 70.5868 59.0112L20.0889 96.4315C18.7203 97.4504 17.0943 98.1701 15.3449 98.5313C13.5956 98.8925 11.773 98.8847 10.0278 98.5087C8.37543 98.1163 6.83872 97.4183 5.52131 96.462C4.12957 95.4081 3.08595 94.0474 2.4993 92.5214C1.97641 91.0485 1.86229 89.4879 2.16603 87.9687C2.46977 86.4495 3.18264 85.0154 4.24602 83.785ZM27.9492 51.0537C27.8619 63.7308 22.9012 76.1176 12.9099 88.9321C12.7003 89.1248 12.5291 89.3468 12.4033 89.5889H12.5605C12.6988 89.6094 12.8408 89.6037 12.9764 89.5721C13.1121 89.5405 13.2383 89.4837 13.3466 89.4056L63.8617 52.0007C64.9447 51.1759 65.6085 50.5802 65.6085 50.2747C65.6085 49.9693 65.0146 49.3125 63.8617 48.4878L14.0976 11.2966C14.0344 11.227 13.9503 11.1743 13.8545 11.1446C13.7587 11.1149 13.6554 11.1093 13.5562 11.1286C13.6312 11.5017 13.7981 11.8561 14.0453 12.1672C23.3554 25.7149 28.0191 38.4072 28.0191 51.0079L27.9492 51.0537Z"/>
</mask>
<path d="M4.24602 83.785C12.9796 72.4825 17.4165 61.791 17.5038 51.0079C17.5912 40.2248 13.3466 29.014 5.03218 16.8868C4.06619 15.6061 3.44067 14.1524 3.20187 12.6326C2.96307 11.1128 3.11698 9.56543 3.6522 8.10445C4.25042 6.56413 5.327 5.19971 6.76142 4.16384C8.12605 3.15921 9.76132 2.4758 11.5125 2.1783C13.1571 1.89475 14.8548 1.95 16.4708 2.33971C18.0867 2.72942 19.5767 3.44288 20.8226 4.42351L70.5868 41.5688C74.0803 44.257 75.9841 47.1589 75.9841 50.3206C75.9841 53.4822 74.2375 56.43 70.5868 59.0112L20.0889 96.4315C18.7203 97.4504 17.0943 98.1701 15.3449 98.5313C13.5956 98.8925 11.773 98.8847 10.0278 98.5087C8.37543 98.1163 6.83872 97.4183 5.52131 96.462C4.12957 95.4081 3.08595 94.0474 2.4993 92.5214C1.97641 91.0485 1.86229 89.4879 2.16603 87.9687C2.46977 86.4495 3.18264 85.0154 4.24602 83.785ZM27.9492 51.0537C27.8619 63.7308 22.9012 76.1176 12.9099 88.9321C12.7003 89.1248 12.5291 89.3468 12.4033 89.5889H12.5605C12.6988 89.6094 12.8408 89.6037 12.9764 89.5721C13.1121 89.5405 13.2383 89.4837 13.3466 89.4056L63.8617 52.0007C64.9447 51.1759 65.6085 50.5802 65.6085 50.2747C65.6085 49.9693 65.0146 49.3125 63.8617 48.4878L14.0976 11.2966C14.0344 11.227 13.9503 11.1743 13.8545 11.1446C13.7587 11.1149 13.6554 11.1093 13.5562 11.1286C13.6312 11.5017 13.7981 11.8561 14.0453 12.1672C23.3554 25.7149 28.0191 38.4072 28.0191 51.0079L27.9492 51.0537Z" fill="white" fill-opacity="0.3"/>
<path d="M5.03218 16.8868L6.26934 16.0386L6.25014 16.0106L6.2297 15.9835L5.03218 16.8868ZM3.6522 8.10445L2.25395 7.5614L2.24871 7.57489L2.24373 7.58848L3.6522 8.10445ZM6.76142 4.16384L7.63963 5.37995L7.65071 5.3718L6.76142 4.16384ZM11.5125 2.1783L11.7637 3.65711L11.7673 3.65649L11.5125 2.1783ZM20.8226 4.42351L19.8949 5.60221L19.91 5.61409L19.9254 5.62557L20.8226 4.42351ZM70.5868 41.5688L71.5016 40.38L71.4929 40.3733L71.4841 40.3668L70.5868 41.5688ZM70.5868 59.0112L69.7208 57.7865L69.7072 57.7961L69.6937 57.8061L70.5868 59.0112ZM20.0889 96.4315L19.1959 95.2263L19.1932 95.2283L20.0889 96.4315ZM10.0278 98.5087L9.68119 99.9681L9.69649 99.9717L9.71185 99.975L10.0278 98.5087ZM5.52131 96.462L4.61576 97.6578L4.62786 97.667L4.64014 97.6759L5.52131 96.462ZM2.4993 92.5214L1.08573 93.0233L1.09223 93.0416L1.0992 93.0597L2.4993 92.5214ZM27.9492 51.0537L27.1272 49.799L26.4548 50.2395L26.4492 51.0434L27.9492 51.0537ZM12.9099 88.9321L13.9251 90.0364L14.0165 89.9524L14.0929 89.8545L12.9099 88.9321ZM12.4033 89.5889L11.0722 88.8975L9.93387 91.0889H12.4033V89.5889ZM12.5605 89.5889L12.7808 88.1052L12.6712 88.0889H12.5605L12.5605 89.5889ZM13.3466 89.4056L14.2238 90.6224L14.2315 90.6168L14.2392 90.6111L13.3466 89.4056ZM63.8617 52.0007L64.7544 53.2062L64.7625 53.2001L64.7706 53.194L63.8617 52.0007ZM63.8617 48.4878L62.9638 49.6893L62.9763 49.6986L62.989 49.7077L63.8617 48.4878ZM14.0976 11.2966L12.9866 12.3044L13.0838 12.4116L13.1996 12.4981L14.0976 11.2966ZM14.0453 12.1672L15.2816 11.3177L15.2521 11.2747L15.2196 11.2339L14.0453 12.1672ZM28.0191 51.0079L28.8411 52.2626L29.5191 51.8184V51.0079H28.0191ZM5.43295 84.7021C14.2924 73.2369 18.9129 62.235 19.0038 51.02L16.0039 50.9957C15.92 61.3471 11.6669 71.7281 3.05909 82.8678L5.43295 84.7021ZM19.0038 51.02C19.0945 39.8217 14.6839 28.3118 6.26934 16.0386L3.79502 17.7349C12.0093 29.7161 16.0878 40.6278 16.0039 50.9957L19.0038 51.02ZM6.2297 15.9835C5.40551 14.8908 4.88257 13.6655 4.68369 12.3998L1.72005 12.8654C1.99877 14.6393 2.72686 16.3214 3.83466 17.79L6.2297 15.9835ZM4.68369 12.3998C4.48492 11.1347 4.61206 9.84497 5.06066 8.62042L2.24373 7.58848C1.6219 9.2859 1.44121 11.0908 1.72005 12.8654L4.68369 12.3998ZM5.05044 8.6475C5.53638 7.39632 6.42246 6.25886 7.6396 5.3799L5.88324 2.94778C4.23155 4.14055 2.96447 5.73195 2.25395 7.5614L5.05044 8.6475ZM7.65071 5.3718C8.81758 4.51276 10.232 3.91733 11.7637 3.65711L11.2612 0.699487C9.29062 1.03427 7.43452 1.80566 5.87213 2.95589L7.65071 5.3718ZM11.7673 3.65649C13.2114 3.40753 14.7026 3.45632 16.1191 3.79791L16.8224 0.881516C15.0069 0.44369 13.1028 0.381979 11.2576 0.700105L11.7673 3.65649ZM16.1191 3.79791C17.5356 4.1395 18.8269 4.76157 19.8949 5.60221L21.7504 3.24482C20.3266 2.12419 18.6379 1.31934 16.8224 0.881516L16.1191 3.79791ZM19.9254 5.62557L69.6896 42.7709L71.4841 40.3668L21.7199 3.22146L19.9254 5.62557ZM69.6721 42.7576C72.9955 45.315 74.4841 47.8284 74.4841 50.3206H77.4841C77.4841 46.4895 75.165 43.199 71.5016 40.38L69.6721 42.7576ZM74.4841 50.3206C74.4841 52.8428 73.1171 55.3851 69.7208 57.7865L71.4528 60.236C75.3578 57.4749 77.4841 54.1215 77.4841 50.3206H74.4841ZM69.6937 57.8061L19.1959 95.2263L20.982 97.6366L71.4799 60.2164L69.6937 57.8061ZM19.1932 95.2283C18.0085 96.1103 16.5868 96.7433 15.0416 97.0623L15.6482 100C17.6018 99.597 19.4321 98.7905 20.9847 97.6346L19.1932 95.2283ZM15.0416 97.0623C13.4965 97.3813 11.8849 97.3744 10.3437 97.0423L9.71185 99.975C11.6612 100.395 13.6946 100.404 15.6482 100L15.0416 97.0623ZM10.3744 97.0493C8.90623 96.7006 7.55277 96.0831 6.40248 95.2481L4.64014 97.6759C6.12467 98.7535 7.84464 99.5319 9.68119 99.9681L10.3744 97.0493ZM6.42686 95.2662C5.24219 94.3691 4.37881 93.2302 3.8994 91.9832L1.0992 93.0597C1.79309 94.8646 3.01695 96.4471 4.61576 97.6578L6.42686 95.2662ZM3.91287 92.0196C3.47979 90.7997 3.38675 89.5141 3.63692 88.2628L0.69514 87.6746C0.337825 89.4618 0.473027 91.2973 1.08573 93.0233L3.91287 92.0196ZM3.63692 88.2628C3.88732 87.0104 4.4783 85.8102 5.38092 84.7658L3.11113 82.8041C1.88698 84.2206 1.05222 85.8887 0.69514 87.6746L3.63692 88.2628ZM26.4492 51.0434C26.3648 63.3027 21.576 75.3778 11.727 88.0098L14.0929 89.8545C24.2264 76.8574 29.3589 64.1589 29.4492 51.064L26.4492 51.0434ZM11.8947 87.8279C11.5624 88.1334 11.282 88.4935 11.0722 88.8975L13.7344 90.2803C13.7761 90.2 13.8382 90.1163 13.9251 90.0364L11.8947 87.8279ZM12.4033 91.0889H12.5605L12.5605 88.0889H12.4033L12.4033 91.0889ZM12.3401 91.0726C12.6642 91.1207 12.9965 91.1077 13.3171 91.0329L12.6358 88.1113C12.6851 88.0998 12.7335 88.0981 12.7808 88.1052L12.3401 91.0726ZM13.3171 91.0329C13.6377 90.9582 13.9478 90.8214 14.2238 90.6224L12.4694 88.1888C12.5288 88.146 12.5865 88.1228 12.6358 88.1113L13.3171 91.0329ZM14.2392 90.6111L64.7544 53.2062L62.9691 50.7952L12.454 88.2001L14.2392 90.6111ZM64.7706 53.194C65.3207 52.775 65.8149 52.3767 66.1818 52.0234C66.363 51.8488 66.5549 51.6458 66.7117 51.4246C66.8338 51.2523 67.1085 50.8353 67.1085 50.2747H64.1085C64.1085 50.0478 64.168 49.8842 64.1998 49.8103C64.2333 49.7324 64.2635 49.6907 64.264 49.69C64.2666 49.6864 64.2568 49.7004 64.2268 49.7337C64.1977 49.766 64.1566 49.8087 64.1007 49.8626C63.8649 50.0896 63.4857 50.4016 62.9529 50.8073L64.7706 53.194ZM67.1085 50.2747C67.1085 49.7702 66.8884 49.3768 66.7682 49.1853C66.6217 48.9519 66.4381 48.7341 66.2507 48.5384C65.8723 48.1434 65.3563 47.7127 64.7345 47.2678L62.989 49.7077C63.52 50.0876 63.8774 50.3977 64.0842 50.6136C64.1337 50.6653 64.1698 50.7066 64.1947 50.7374C64.2204 50.769 64.229 50.783 64.2272 50.78C64.2268 50.7794 64.2037 50.7433 64.178 50.6755C64.1541 50.6125 64.1085 50.4713 64.1085 50.2747H67.1085ZM64.7597 47.2862L14.9955 10.0951L13.1996 12.4981L62.9638 49.6893L64.7597 47.2862ZM15.2086 10.2888C14.9535 10.0077 14.6337 9.81586 14.299 9.71199L13.41 12.5772C13.2668 12.5328 13.1153 12.4464 12.9866 12.3044L15.2086 10.2888ZM14.299 9.71199C13.9651 9.60839 13.6109 9.59004 13.2706 9.65602L13.8418 12.6011C13.6999 12.6287 13.5524 12.6214 13.41 12.5772L14.299 9.71199ZM12.0856 11.424C12.2095 12.0407 12.4827 12.6118 12.871 13.1005L15.2196 11.2339C15.1135 11.1004 15.0528 10.9627 15.0268 10.8331L12.0856 11.424ZM12.8091 13.0168C22.0059 26.3996 26.5191 38.7997 26.5191 51.0079H29.5191C29.5191 38.0147 24.7049 25.0301 15.2816 11.3177L12.8091 13.0168ZM27.1971 49.7532L27.1272 49.799L28.7712 52.3084L28.8411 52.2626L27.1971 49.7532Z" fill="black" mask="url(#path-1-outside-1_741_596)"/>
<path d="M90.7037 13.6324C82.1149 26.5686 77.7499 38.7591 77.8515 51.054C77.9518 63.1797 82.3801 75.0032 91.3349 87.1135L43.2053 51.4381L43.1939 51.4297L43.1823 51.4217C42.5932 51.0186 42.2003 50.705 41.9623 50.4683C41.9014 50.4078 41.8558 50.3573 41.8221 50.3164C41.8626 50.2654 41.9186 50.2016 41.9943 50.1246C42.2467 49.868 42.6452 49.5372 43.1995 49.1345L43.1995 49.1346L43.2077 49.1285L90.7037 13.6324ZM41.7435 50.2038C41.7435 50.2038 41.7441 50.2049 41.745 50.2071C41.7439 50.2049 41.7434 50.2038 41.7435 50.2038ZM41.744 50.4306C41.7427 50.4339 41.7419 50.4356 41.7417 50.4357C41.7416 50.4358 41.7423 50.4341 41.744 50.4306ZM101.457 97.0601L101.459 97.0581C102.97 95.9358 104.105 94.4556 104.719 92.7765C105.321 91.1783 105.464 89.4708 105.132 87.8087C104.801 86.1543 104.012 84.6063 102.846 83.2982C94.3235 72.3513 90.004 62.0577 89.8042 51.752H89.8205L89.8144 50.996C89.7287 40.3789 93.852 29.3689 102.107 17.3227C103.16 15.9587 103.846 14.3937 104.105 12.7471C104.365 11.0929 104.185 9.40978 103.582 7.83085L103.578 7.82256C102.92 6.15973 101.776 4.69153 100.276 3.5593L100.27 3.5549L100.264 3.55062C98.7811 2.47608 97.0204 1.75036 95.146 1.43296L95.1456 1.43289C93.4013 1.13852 91.6032 1.20008 89.8894 1.61337C88.1785 2.02598 86.5921 2.77949 85.2555 3.82142L35.5025 40.9585C35.5018 40.959 35.501 40.9596 35.5002 40.9601C31.785 43.6891 29.8516 46.8361 29.8516 50.3147C29.8516 53.8055 31.8279 56.9007 35.5014 59.609L85.9964 97.0272C85.9969 97.0275 85.9973 97.0279 85.9978 97.0282C87.4581 98.115 89.1857 98.8778 91.0367 99.2599C92.8881 99.6422 94.8161 99.634 96.6634 99.236L96.6634 99.2361L96.6743 99.2336C98.426 98.8288 100.06 98.0883 101.457 97.0601Z" stroke="black" stroke-width="1.5"/>
</g>
</svg>
