<svg width="32" height="32" viewBox="0 0 32 32" fill="none" xmlns="http://www.w3.org/2000/svg">
<path d="M10.6641 2.66406V6.66406" stroke="#E18427" stroke-width="2.5" stroke-miterlimit="10" stroke-linecap="round" stroke-linejoin="round"/>
<path d="M21.3359 2.66406V6.66406" stroke="#E18427" stroke-width="2.5" stroke-miterlimit="10" stroke-linecap="round" stroke-linejoin="round"/>
<path d="M4.66406 12.1172H27.3307" stroke="#E18427" stroke-width="2.5" stroke-miterlimit="10" stroke-linecap="round" stroke-linejoin="round"/>
<path d="M29.3307 25.3333C29.3307 26.3333 29.0507 27.28 28.5574 28.08C27.6374 29.6267 25.9441 30.6667 23.9974 30.6667C22.6507 30.6667 21.4241 30.1733 20.4907 29.3333C20.0774 28.9867 19.7174 28.56 19.4374 28.08C18.9441 27.28 18.6641 26.3333 18.6641 25.3333C18.6641 22.3867 21.0507 20 23.9974 20C25.5974 20 27.0241 20.7066 27.9974 21.8133C28.8241 22.76 29.3307 23.9867 29.3307 25.3333Z" stroke="#E18427" stroke-width="2" stroke-miterlimit="10" stroke-linecap="round" stroke-linejoin="round"/>
<path d="M21.9141 25.3301L23.2341 26.6501L26.0741 24.0234" stroke="#E18427" stroke-width="2" stroke-linecap="round" stroke-linejoin="round"/>
<path d="M28 11.3307V21.8107C27.0267 20.704 25.6 19.9974 24 19.9974C21.0533 19.9974 18.6667 22.3841 18.6667 25.3307C18.6667 26.3307 18.9467 27.2774 19.44 28.0774C19.72 28.5574 20.08 28.9841 20.4933 29.3307H10.6667C6 29.3307 4 26.6641 4 22.6641V11.3307C4 7.33073 6 4.66406 10.6667 4.66406H21.3333C26 4.66406 28 7.33073 28 11.3307Z" stroke="#E18427" stroke-width="2" stroke-miterlimit="10" stroke-linecap="round" stroke-linejoin="round"/>
<path d="M15.9953 18.2682H16.0073" stroke="#E18427" stroke-width="2.5" stroke-linecap="round" stroke-linejoin="round"/>
<path d="M11.0578 18.2682H11.0698" stroke="#E18427" stroke-width="2.5" stroke-linecap="round" stroke-linejoin="round"/>
<path d="M11.0578 22.2682H11.0698" stroke="#E18427" stroke-width="2.5" stroke-linecap="round" stroke-linejoin="round"/>
</svg>
