<svg width="36" height="35" viewBox="0 0 36 35" fill="none" xmlns="http://www.w3.org/2000/svg">
<g clip-path="url(#clip0_2271_5472)">
<path d="M3.99733 14.8097C5.59941 15.3162 6.11001 16.0097 6.11144 17.639C6.11144 19.685 6.11861 21.7296 6.11144 23.7741C6.10283 25.6175 4.69295 26.699 2.89008 26.261C1.24068 25.86 0.0975746 24.5488 0.0387699 22.851C-0.0142979 21.3543 0.00147859 19.8548 0.0315981 18.3581C0.0588491 17.074 0.681319 16.0896 1.75271 15.4047C2.05821 15.2107 2.21598 15.0352 2.2461 14.6428C2.93598 5.62422 10.8029 -0.870415 19.8459 0.0855185C26.9613 0.841705 32.8547 6.66291 33.6694 13.7354C33.713 13.9227 33.737 14.1139 33.7411 14.3061C33.6837 14.8925 33.9476 15.2207 34.4424 15.546C34.9111 15.8404 35.2974 16.2479 35.5654 16.7305C35.8334 17.2132 35.9746 17.7553 35.9757 18.3067C36.0072 19.8277 36.0129 21.35 35.9757 22.8724C35.9441 24.1251 35.3417 25.1081 34.2746 25.7587C33.8859 25.9956 33.7927 26.2567 33.7898 26.6747C33.7827 27.5308 33.8128 28.3997 33.6464 29.2258C33.4127 30.3163 32.8222 31.299 31.9674 32.0203C31.1126 32.7415 30.0416 33.1607 28.922 33.2122C28.1116 33.255 27.2955 33.2022 26.4837 33.2521C26.3544 33.2681 26.2297 33.3101 26.1173 33.3756C26.0048 33.4411 25.907 33.5287 25.8297 33.6331C25.5894 34.0489 25.2417 34.3933 24.8225 34.6304C24.4034 34.8674 23.9281 34.9886 23.4459 34.9814C22.6098 34.9971 21.7722 35.0085 20.936 34.9814C19.321 34.92 18.2439 33.83 18.2682 32.3247C18.2926 30.8708 19.4157 29.8193 20.9933 29.7865C21.8051 29.7708 22.6184 29.7737 23.4316 29.7865C24.4628 29.8036 25.2574 30.2317 25.8125 31.1234C25.8892 31.2277 25.9868 31.3151 26.0991 31.3802C26.2114 31.4453 26.336 31.4866 26.4651 31.5015C27.2528 31.5443 28.0424 31.5443 28.8302 31.5015C29.6874 31.451 30.4947 31.0837 31.0936 30.4715C31.6925 29.8593 32.0398 29.0466 32.0673 28.1928C32.0874 27.6007 32.0673 27.0072 32.0673 26.4293C30.1913 25.676 29.8944 25.2308 29.893 23.2148C29.893 21.3372 29.893 19.4591 29.893 17.5805C29.893 16.0111 30.438 15.2891 31.9482 14.8326C32.0314 9.60775 27.469 2.58949 19.4702 1.79336C10.7068 0.921604 4.27415 7.80147 3.99733 14.8097ZM4.38459 20.6181C4.38459 19.5252 4.38459 18.4323 4.38459 17.3365C4.38459 16.7173 4.03606 16.4948 3.45232 16.5661C2.57168 16.676 1.80865 17.3665 1.77853 18.2511C1.72498 19.8177 1.72498 21.3871 1.77853 22.9594C1.80721 23.7855 2.52435 24.4647 3.32897 24.6102C4.03606 24.7386 4.37168 24.4775 4.38028 23.7541C4.39319 22.7098 4.38602 21.6639 4.38459 20.6181V20.6181ZM31.6212 20.6053C31.6212 21.6511 31.6126 22.6969 31.6212 23.7442C31.6298 24.4918 31.9913 24.7614 32.7299 24.6002C33.5374 24.4219 34.2072 23.7442 34.2316 22.9024C34.2761 21.36 34.2789 19.8134 34.2316 18.2711C34.2029 17.405 33.5001 16.7402 32.6381 16.5903C31.9583 16.4719 31.6341 16.7173 31.627 17.4022C31.6126 18.4665 31.6212 19.5366 31.6212 20.6053ZM22.1953 31.5029C21.765 31.5029 21.3347 31.4801 20.9044 31.5029C20.3594 31.54 19.9922 31.8125 20.0023 32.3989C20.0109 32.9468 20.3623 33.2279 20.8757 33.245C21.7578 33.2749 22.6442 33.2735 23.5263 33.245C24.0512 33.2293 24.3997 32.914 24.4012 32.3889C24.4012 31.8311 24.0397 31.5329 23.4832 31.4972C23.0558 31.4844 22.6255 31.5029 22.1953 31.5029Z" fill="#E18427"/>
<g clip-path="url(#clip1_2271_5472)">
<path d="M22.9059 16.477C23.3031 16.4673 23.6884 16.6053 23.9789 16.8614C24.2695 17.1175 24.442 17.4711 24.4595 17.8462C24.4769 18.2213 24.3378 18.5878 24.0721 18.867C23.8065 19.1461 23.4354 19.3155 23.0389 19.3388C22.8379 19.3505 22.6365 19.3243 22.4464 19.2617C22.2562 19.1991 22.0812 19.1013 21.9315 18.9741C21.7818 18.8468 21.6604 18.6927 21.5745 18.5206C21.4885 18.3485 21.4397 18.162 21.4308 17.9719C21.422 17.7818 21.4533 17.5919 21.523 17.4134C21.5927 17.2349 21.6993 17.0712 21.8366 16.9321C21.9739 16.7929 22.1392 16.681 22.3228 16.6029C22.5064 16.5247 22.7046 16.482 22.9059 16.477Z" fill="#E18427"/>
<path d="M13.0039 16.4781C13.2064 16.4692 13.4086 16.4988 13.5988 16.5651C13.7889 16.6314 13.963 16.7331 14.1109 16.8641C14.2587 16.9951 14.3772 17.1528 14.4595 17.3278C14.5417 17.5029 14.5859 17.6917 14.5896 17.8832C14.5932 18.0747 14.5562 18.265 14.4807 18.4427C14.4052 18.6205 14.2928 18.7821 14.15 18.918C14.0073 19.054 13.8371 19.1615 13.6496 19.2342C13.4621 19.3069 13.2611 19.3434 13.0585 19.3414C12.6639 19.3376 12.2865 19.1885 12.0064 18.9258C11.7263 18.6632 11.5656 18.3077 11.5585 17.9348C11.5514 17.562 11.6984 17.2012 11.9683 16.9292C12.2382 16.6572 12.6097 16.4954 13.0039 16.4781V16.4781Z" fill="#E18427"/>
<path d="M18.0084 16.4766C18.3082 16.4782 18.6007 16.5637 18.8491 16.7225C19.0974 16.8812 19.2903 17.1059 19.4035 17.3683C19.5167 17.6306 19.545 17.9188 19.4848 18.1964C19.4247 18.4739 19.2788 18.7284 19.0656 18.9276C18.8524 19.1268 18.5816 19.2618 18.2872 19.3155C17.9928 19.3692 17.6882 19.3392 17.4119 19.2293C17.1356 19.1195 16.9 18.9346 16.7348 18.6982C16.5697 18.4617 16.4824 18.1843 16.4841 17.901C16.4946 17.5236 16.6591 17.1646 16.9432 16.8991C17.2273 16.6337 17.6089 16.4823 18.0084 16.4766V16.4766Z" fill="#E18427"/>
</g>
</g>
<defs>
<clipPath id="clip0_2271_5472">
<rect width="36" height="35" fill="white"/>
</clipPath>
<clipPath id="clip1_2271_5472">
<rect width="12.96" height="2.86495" fill="white" transform="matrix(-1 0 0 1 24.4805 16.4766)"/>
</clipPath>
</defs>
</svg>
