<svg width="78" height="79" viewBox="0 0 78 79" fill="none" xmlns="http://www.w3.org/2000/svg">
<circle cx="39" cy="39.5312" r="39" fill="#E18427"/>
<path d="M39.1875 45.1562V47.7813" stroke="white" stroke-width="1.5" stroke-linecap="round" stroke-linejoin="round"/>
<path d="M32.9375 52.0312H45.4375V50.7812C45.4375 49.4062 44.3125 48.2812 42.9375 48.2812H35.4375C34.0625 48.2812 32.9375 49.4062 32.9375 50.7812V52.0312V52.0312Z" stroke="white" stroke-width="1.5" stroke-miterlimit="10"/>
<path d="M31.6875 52.0312H46.6875" stroke="white" stroke-width="1.5" stroke-linecap="round" stroke-linejoin="round"/>
<path d="M39 44.5312C34.1625 44.5312 30.25 40.6187 30.25 35.7812V32.0312C30.25 29.2687 32.4875 27.0312 35.25 27.0312H42.75C45.5125 27.0312 47.75 29.2687 47.75 32.0312V35.7812C47.75 40.6187 43.8375 44.5312 39 44.5312Z" stroke="white" stroke-width="1.5" stroke-linecap="round" stroke-linejoin="round"/>
<path d="M30.8344 39.0937C29.8969 38.7937 29.0719 38.2437 28.4219 37.5937C27.2969 36.3437 26.5469 34.8437 26.5469 33.0938C26.5469 31.3438 27.9219 29.9688 29.6719 29.9688H30.4844C30.2344 30.5438 30.1094 31.1813 30.1094 31.8438V35.5938C30.1094 36.8438 30.3719 38.0187 30.8344 39.0937Z" stroke="white" stroke-width="1.5" stroke-linecap="round" stroke-linejoin="round"/>
<path d="M47.1641 39.0937C48.1016 38.7937 48.9266 38.2437 49.5766 37.5937C50.7016 36.3437 51.4516 34.8437 51.4516 33.0938C51.4516 31.3438 50.0766 29.9688 48.3266 29.9688H47.5141C47.7641 30.5438 47.8891 31.1813 47.8891 31.8438V35.5938C47.8891 36.8438 47.6266 38.0187 47.1641 39.0937Z" stroke="white" stroke-width="1.5" stroke-linecap="round" stroke-linejoin="round"/>
</svg>
