<svg width="78" height="79" viewBox="0 0 78 79" fill="none" xmlns="http://www.w3.org/2000/svg">
<circle cx="39" cy="39.5312" r="39" fill="#37BDFF"/>
<path d="M45.25 50.1562H32.75C29 50.1562 26.5 48.2812 26.5 43.9062V35.1562C26.5 30.7812 29 28.9062 32.75 28.9062H45.25C49 28.9062 51.5 30.7812 51.5 35.1562V43.9062C51.5 48.2812 49 50.1562 45.25 50.1562Z" stroke="white" stroke-width="1.5" stroke-miterlimit="10" stroke-linecap="round" stroke-linejoin="round"/>
<path d="M39 43.2812C41.0711 43.2812 42.75 41.6023 42.75 39.5312C42.75 37.4602 41.0711 35.7812 39 35.7812C36.9289 35.7812 35.25 37.4602 35.25 39.5312C35.25 41.6023 36.9289 43.2812 39 43.2812Z" stroke="white" stroke-width="1.5" stroke-miterlimit="10" stroke-linecap="round" stroke-linejoin="round"/>
<path d="M26.5 35.7812H27.75C31.5 35.7812 32.75 34.5312 32.75 30.7812V29.5312" stroke="white" stroke-width="1.5" stroke-miterlimit="10" stroke-linecap="round" stroke-linejoin="round"/>
<path d="M51.5 35.7812H50.25C46.5 35.7812 45.25 34.5312 45.25 30.7812V29.5312" stroke="white" stroke-width="1.5" stroke-miterlimit="10" stroke-linecap="round" stroke-linejoin="round"/>
<path d="M26.5 43.2812H27.75C31.5 43.2812 32.75 44.5312 32.75 48.2812V49.5312" stroke="white" stroke-width="1.5" stroke-miterlimit="10" stroke-linecap="round" stroke-linejoin="round"/>
<path d="M51.5 43.2812H50.25C46.5 43.2812 45.25 44.5312 45.25 48.2812V49.5312" stroke="white" stroke-width="1.5" stroke-miterlimit="10" stroke-linecap="round" stroke-linejoin="round"/>
</svg>
