<svg width="78" height="78" viewBox="0 0 78 78" fill="none" xmlns="http://www.w3.org/2000/svg">
<circle cx="39" cy="39" r="39" fill="#1B4B3F"/>
<path d="M46.5016 32.95C46.4266 32.9375 46.3391 32.9375 46.2641 32.95C44.5391 32.8875 43.1641 31.475 43.1641 29.725C43.1641 27.9375 44.6016 26.5 46.3891 26.5C48.1766 26.5 49.6141 27.95 49.6141 29.725C49.6016 31.475 48.2266 32.8875 46.5016 32.95Z" stroke="white" stroke-width="1.5" stroke-linecap="round" stroke-linejoin="round"/>
<path d="M45.2172 42.0502C46.9297 42.3377 48.8172 42.0377 50.1422 41.1502C51.9047 39.9752 51.9047 38.0502 50.1422 36.8752C48.8047 35.9877 46.8922 35.6877 45.1797 35.9877" stroke="white" stroke-width="1.5" stroke-linecap="round" stroke-linejoin="round"/>
<path d="M31.4563 32.95C31.5313 32.9375 31.6188 32.9375 31.6938 32.95C33.4188 32.8875 34.7938 31.475 34.7938 29.725C34.7938 27.9375 33.3563 26.5 31.5688 26.5C29.7813 26.5 28.3438 27.95 28.3438 29.725C28.3563 31.475 29.7313 32.8875 31.4563 32.95Z" stroke="white" stroke-width="1.5" stroke-linecap="round" stroke-linejoin="round"/>
<path d="M32.7469 42.0502C31.0344 42.3377 29.1469 42.0377 27.8219 41.1502C26.0594 39.9752 26.0594 38.0502 27.8219 36.8752C29.1594 35.9877 31.0719 35.6877 32.7844 35.9877" stroke="white" stroke-width="1.5" stroke-linecap="round" stroke-linejoin="round"/>
<path d="M39.0016 42.2859C38.9266 42.2734 38.8391 42.2734 38.7641 42.2859C37.0391 42.2234 35.6641 40.8109 35.6641 39.0609C35.6641 37.2734 37.1016 35.8359 38.8891 35.8359C40.6766 35.8359 42.1141 37.2859 42.1141 39.0609C42.1016 40.8109 40.7266 42.2359 39.0016 42.2859Z" stroke="white" stroke-width="1.5" stroke-linecap="round" stroke-linejoin="round"/>
<path d="M35.3609 46.2203C33.5984 47.3953 33.5984 49.3203 35.3609 50.4953C37.3609 51.8328 40.6359 51.8328 42.6359 50.4953C44.3984 49.3203 44.3984 47.3953 42.6359 46.2203C40.6484 44.8953 37.3609 44.8953 35.3609 46.2203Z" stroke="white" stroke-width="1.5" stroke-linecap="round" stroke-linejoin="round"/>
</svg>
