<svg width="51" height="51" viewBox="0 0 51 51" fill="none" xmlns="http://www.w3.org/2000/svg">
<g clip-path="url(#clip0_1271_1692)">
<path d="M5.40007 45.7024C5.79246 46.131 6.40106 46.2871 6.95146 46.1003L13.2225 43.971L15.8443 50.0525C16.0749 50.5876 16.6008 50.9352 17.1834 50.9375H17.1895C17.7698 50.9375 18.2956 50.5949 18.5298 50.0636L23.4168 38.9784C24.1821 39.0724 24.9609 39.1217 25.7511 39.1217C26.5414 39.1217 27.3202 39.0725 28.0854 38.9784L32.9724 50.0636C33.2066 50.5949 33.7325 50.9376 34.3129 50.9375H34.3189C34.9017 50.9352 35.4274 50.5876 35.6581 50.0525L38.2799 43.971L44.551 46.1003C45.1009 46.2871 45.71 46.1311 46.1024 45.7024C46.4949 45.2738 46.5968 44.6536 46.3622 44.1219L40.8615 31.6537C43.3266 28.4434 44.7945 24.4294 44.7945 20.0784C44.7945 9.52404 36.2517 0.9375 25.7512 0.9375C15.2508 0.9375 6.708 9.52404 6.708 20.0784C6.708 24.4294 8.17589 28.4435 10.641 31.6537L5.1403 44.1219C4.90573 44.6536 5.00759 45.2738 5.40007 45.7024ZM42.3359 42.2542L37.9411 40.7619C37.2179 40.5162 36.4274 40.8677 36.1249 41.5691L34.2978 45.8073L31.023 38.3787C33.9272 37.5408 36.5478 36.0284 38.7047 34.0234L42.3359 42.2542ZM9.63773 20.0784C9.63773 11.1395 16.8662 3.86723 25.7512 3.86723C34.6362 3.86723 41.8647 11.1395 41.8647 20.0784C41.8647 28.9634 34.6362 36.1919 25.7512 36.1919C16.8662 36.1919 9.63773 28.9634 9.63773 20.0784ZM12.7976 34.0234C14.9547 36.0284 17.5752 37.5409 20.4795 38.3787L17.2045 45.8072L15.3776 41.569C15.0751 40.8675 14.2846 40.5162 13.5614 40.7618L9.16653 42.2541L12.7976 34.0234Z" fill="#E18427"/>
<path d="M20.0002 21.9515L19.1437 26.9451C19.0494 27.4946 19.2753 28.0501 19.7264 28.3778C20.1767 28.7049 20.7748 28.7492 21.2691 28.4893L25.7536 26.1317L30.2381 28.4893C30.7317 28.7488 31.3299 28.7055 31.7808 28.3778C32.2319 28.0501 32.4578 27.4947 32.3636 26.9451L31.5071 21.9515L35.1351 18.4151C35.5343 18.0259 35.6781 17.4438 35.5057 16.9135C35.3334 16.3832 34.8751 15.9967 34.3233 15.9165L29.3095 15.188L27.0672 10.6447C26.8205 10.1447 26.3112 9.82812 25.7536 9.82812C25.1961 9.82812 24.6868 10.1446 24.44 10.6447L22.1978 15.188L17.184 15.9165C16.6322 15.9967 16.1737 16.3832 16.0015 16.9135C15.8291 17.4438 15.9728 18.0259 16.3721 18.4152L20.0002 21.9515ZM23.3812 17.9764C23.8584 17.907 24.2708 17.6074 24.4842 17.175L25.7536 14.6028L27.0231 17.175C27.2365 17.6073 27.649 17.907 28.126 17.9764L30.9646 18.3889L28.9106 20.3911C28.5654 20.7276 28.4079 21.2125 28.4894 21.6877L28.9743 24.5149L26.4353 23.1801C26.0086 22.9557 25.4988 22.9556 25.072 23.1801L22.533 24.5149L23.0179 21.6877C23.0993 21.2125 22.9418 20.7276 22.5966 20.3911L20.5424 18.3889L23.3812 17.9764Z" fill="#E18427"/>
</g>
<defs>
<clipPath id="clip0_1271_1692">
<rect width="50" height="50" fill="white" transform="translate(0.75 0.9375)"/>
</clipPath>
</defs>
</svg>
