<svg width="32" height="33" viewBox="0 0 32 33" fill="none" xmlns="http://www.w3.org/2000/svg">
<path d="M12.6641 19.2477C12.6641 20.541 13.6641 21.581 14.8907 21.581H17.3974C18.464 21.581 19.3307 20.6744 19.3307 19.541C19.3307 18.3277 18.7974 17.8877 18.0107 17.6077L13.9974 16.2077C13.2107 15.9277 12.6774 15.501 12.6774 14.2744C12.6774 13.1544 13.5441 12.2344 14.6107 12.2344H17.1174C18.3441 12.2344 19.3441 13.2744 19.3441 14.5677" stroke="#1B4B3F" stroke-width="2" stroke-linecap="round" stroke-linejoin="round"/>
<path d="M16 10.9141V22.9141" stroke="#1B4B3F" stroke-width="2" stroke-linecap="round" stroke-linejoin="round"/>
<path d="M29.3307 16.9115C29.3307 24.2715 23.3574 30.2448 15.9974 30.2448C8.6374 30.2448 2.66406 24.2715 2.66406 16.9115C2.66406 9.55146 8.6374 3.57812 15.9974 3.57812" stroke="#1B4B3F" stroke-width="2" stroke-linecap="round" stroke-linejoin="round"/>
<path d="M22.6641 4.91406V10.2474H27.9974" stroke="#1B4B3F" stroke-width="2" stroke-linecap="round" stroke-linejoin="round"/>
<path d="M29.3307 3.57812L22.6641 10.2448" stroke="#1B4B3F" stroke-width="2" stroke-linecap="round" stroke-linejoin="round"/>
</svg>
