<svg width="101" height="101" viewBox="0 0 101 101" fill="none" xmlns="http://www.w3.org/2000/svg">
<g clip-path="url(#clip0_3114_6498)">
<path fill-rule="evenodd" clip-rule="evenodd" d="M100.5 50.0703V21.4141C100.5 12.7982 93.4909 5.78906 84.875 5.78906H16.125C7.50912 5.78906 0.5 12.7982 0.5 21.4141V44.0703C0.5 46.2279 2.24866 47.9766 4.40625 47.9766C6.56384 47.9766 8.3125 46.2279 8.3125 44.0703V21.4141C8.3125 17.1065 11.8174 13.6016 16.125 13.6016H84.875C89.1826 13.6016 92.6875 17.1065 92.6875 21.4141V50.0703C92.6875 50.1889 92.6928 50.3063 92.7031 50.4221V63.2497C92.6928 63.3656 92.6875 63.483 92.6875 63.6016C92.6875 67.9091 89.1826 71.4141 84.875 71.4141H46.0078C43.8502 71.4141 42.1016 73.1627 42.1016 75.3203C42.1016 77.4779 43.8502 79.2266 46.0078 79.2266H84.875C93.4909 79.2266 100.5 72.2174 100.5 63.6016C100.5 63.5464 100.499 63.4914 100.497 63.4368V50.2351C100.499 50.1804 100.5 50.1255 100.5 50.0703ZM47.9693 59.9684C47.771 57.82 49.351 55.918 51.4995 55.7196C57.6198 55.1535 62.4141 49.3399 62.4141 42.4842C62.4141 35.1607 57.0697 29.2029 50.5 29.2029C43.9303 29.2029 38.5859 35.1607 38.5859 42.4842C38.5859 43.0602 38.6195 43.64 38.6851 44.2061C38.9338 46.3492 37.398 48.2878 35.2549 48.5366C33.1134 48.786 31.1732 47.2495 30.9245 45.1071C30.8246 44.2427 30.7734 43.36 30.7734 42.4842C30.7734 30.8524 39.6228 21.3904 50.5 21.3904C61.3772 21.3904 70.2266 30.8524 70.2266 42.4842C70.2266 47.7431 68.4077 52.7808 65.1042 56.668C61.7511 60.6147 57.175 63.0408 52.2189 63.4986C52.0968 63.51 51.9748 63.5154 51.855 63.5154C49.8591 63.5154 48.157 61.9948 47.9693 59.9684ZM81.5547 38.4062C83.7123 38.4062 85.4609 40.1549 85.4609 42.3125C85.4609 44.4701 83.7123 46.2188 81.5547 46.2188C79.3971 46.2188 77.6484 44.4701 77.6484 42.3125C77.6484 40.1549 79.3971 38.4062 81.5547 38.4062ZM19.4453 38.4062C21.6029 38.4062 23.3516 40.1549 23.3516 42.3125C23.3516 44.4701 21.6029 46.2188 19.4453 46.2188C17.2877 46.2188 15.5391 44.4701 15.5391 42.3125C15.5391 40.1549 17.2877 38.4062 19.4453 38.4062ZM4.40625 71.4141H30.3828C32.5404 71.4141 34.2891 73.1627 34.2891 75.3203C34.2891 77.4779 32.5404 79.2266 30.3828 79.2266H4.40625C2.24866 79.2266 0.5 77.4779 0.5 75.3203C0.5 73.1627 2.24866 71.4141 4.40625 71.4141ZM4.40625 55.7891H36.2422C38.3998 55.7891 40.1484 57.5377 40.1484 59.6953C40.1484 61.8529 38.3998 63.6016 36.2422 63.6016H4.40625C2.24866 63.6016 0.5 61.8529 0.5 59.6953C0.5 57.5377 2.24866 55.7891 4.40625 55.7891ZM4.40625 87.0391H24.5234C26.681 87.0391 28.4297 88.7877 28.4297 90.9453C28.4297 93.1029 26.681 94.8516 24.5234 94.8516H4.40625C2.24866 94.8516 0.5 93.1029 0.5 90.9453C0.5 88.7877 2.24866 87.0391 4.40625 87.0391Z" fill="#E4903D"/>
</g>
<defs>
<clipPath id="clip0_3114_6498">
<rect width="100" height="100" fill="white" transform="translate(0.5 0.320312)"/>
</clipPath>
</defs>
</svg>
