<svg width="38" height="38" viewBox="0 0 38 38" fill="none" xmlns="http://www.w3.org/2000/svg">
<g clip-path="url(#clip0_1302_1851)">
<path d="M38.0004 3.22542C37.9643 1.20244 36.8564 0.0206955 34.8489 0.00266898C28.1473 -0.0734432 22.0847 1.46082 17.5328 6.85878C16.6613 7.8943 15.7658 9.21425 14.6098 9.61484C13.4538 10.0154 11.9291 9.48064 10.5768 9.29036C10.1665 9.21435 9.74363 9.24356 9.34772 9.37526C8.9518 9.50697 8.59575 9.73686 8.31283 10.0435C7.18887 11.1852 6.12102 12.3949 4.90691 13.4245C2.40657 15.5336 2.99158 17.5405 5.89663 18.4158C7.28103 18.8324 8.59331 19.4814 9.90359 20.0182C9.55298 22.1693 9.23242 24.1763 8.90185 26.1813C8.5292 28.4005 9.63111 29.4981 11.8269 29.1136C13.8565 28.757 15.894 28.4386 17.9996 28.0921C18.7009 29.8447 19.354 31.5492 20.0692 33.2276C20.7424 34.808 22.4153 35.1645 23.6555 33.9787C25.1501 32.5506 26.6607 31.1165 28.019 29.5722C28.4658 29.0675 28.6862 28.2042 28.6942 27.5012C28.7062 26.3094 28.4238 25.1177 28.3637 23.9219C28.3542 23.4887 28.5063 23.0674 28.7904 22.7402C29.9865 21.4984 31.2467 20.2966 32.5068 19.0948C34.7768 16.9476 36.2053 14.3198 37.0267 11.3334C37.7366 8.69101 38.0645 5.96067 38.0004 3.22542ZM34.5945 11.9743C33.9232 14.0113 32.7691 15.8557 31.2306 17.3502C29.6278 18.8685 28.0251 20.3747 26.4623 21.923C26.2041 22.1923 26.0604 22.5513 26.0616 22.9244C26.1698 24.3265 26.3481 25.7106 26.5385 27.0986C26.5963 27.3715 26.5804 27.6549 26.4924 27.9196C26.4044 28.1844 26.2474 28.4209 26.0376 28.6048C24.7373 29.8467 23.4972 31.1486 22.1068 32.5546L20.2796 28.016C19.4982 26.0771 18.8591 25.7366 16.8316 26.0971C14.9303 26.4356 13.025 26.7321 10.9153 27.0806C11.2439 25.0776 11.5284 23.2489 11.853 21.4202C12.2717 19.0668 11.9832 18.516 9.75533 17.6146C8.36692 17.0558 6.9765 16.503 5.4799 15.9041C6.96047 14.4219 8.3569 12.9958 9.7994 11.6138C9.99975 11.4335 10.4145 11.4135 10.717 11.4515C12.1455 11.5917 13.5639 11.8161 14.9944 11.9102C15.4299 11.905 15.847 11.7338 16.1605 11.4315C17.8354 9.75704 19.4141 7.98443 21.1131 6.336C23.7176 3.80227 27.0373 2.82082 30.5294 2.38017C31.9158 2.20591 33.3343 2.22595 34.7247 2.14783C35.47 2.10778 35.8206 2.41823 35.8346 3.19537C35.8907 6.1978 35.5742 9.13413 34.5945 11.9743Z" fill="#E18427"/>
<path d="M15.4152 31.5679C14.9504 31.9945 14.5137 32.4512 14.0669 32.8978C13.0311 33.9334 11.9653 34.9368 10.9916 36.0264C10.7431 36.3029 10.661 36.8797 10.7491 37.2603C10.8173 37.5507 11.2761 37.747 11.5726 37.9953C11.9572 37.7951 12.2638 37.7069 12.4621 37.5106C13.9567 36.0418 15.4373 34.561 16.9038 33.0681C17.3566 32.6034 17.3907 32.0326 16.9199 31.5519C16.449 31.0711 15.9001 31.1192 15.4152 31.5679Z" fill="#E18427"/>
<path d="M6.81543 21.7165C6.55497 21.382 6.36264 20.8913 6.08616 20.8352C5.66943 20.7531 5.05638 20.8352 4.76788 21.0976C3.30534 22.4536 1.92494 23.9018 0.508476 25.3038C-0.00241087 25.8126 -0.236818 26.3874 0.308129 26.9583C0.909172 27.5591 1.51022 27.3368 2.03914 26.792C3.3995 25.424 4.77388 24.07 6.12623 22.694C6.38073 22.3863 6.61115 22.0596 6.81543 21.7165Z" fill="#E18427"/>
<path d="M6.94287 29.4372C5.54043 30.8512 4.11595 32.2553 2.71953 33.6794C2.50115 33.9017 2.38094 34.2202 2.14453 34.6168C2.40298 34.9313 2.60734 35.418 2.88382 35.46C3.30455 35.5281 3.90559 35.432 4.2001 35.1576C5.66064 33.7996 7.04705 32.3535 8.4575 30.9514C8.96638 30.4406 9.17675 29.8598 8.60175 29.297C8.02676 28.7341 7.46377 28.9204 6.94287 29.4372Z" fill="#E18427"/>
<path d="M27.7329 5.9844C26.8836 5.98125 26.0525 6.23059 25.3453 6.70073C24.6381 7.17086 24.0866 7.84058 23.761 8.62477C23.4353 9.40896 23.3502 10.2722 23.5165 11.1049C23.6827 11.9376 24.0928 12.702 24.6946 13.3011C25.2964 13.9003 26.0628 14.307 26.8964 14.4697C27.73 14.6323 28.5931 14.5436 29.3761 14.2147C30.1591 13.8859 30.8267 13.3317 31.2939 12.6227C31.7612 11.9136 32.0071 11.0817 32.0003 10.2327C31.9867 9.10707 31.5322 8.03168 30.7343 7.23739C29.9365 6.4431 28.8589 5.99324 27.7329 5.9844ZM27.7189 12.3939C27.1644 12.3853 26.6344 12.1635 26.2393 11.7744C25.8441 11.3853 25.6142 10.859 25.5972 10.3048C25.5959 10.022 25.6507 9.74181 25.7586 9.48042C25.8665 9.21903 26.0252 8.98166 26.2256 8.78209C26.4259 8.58253 26.6639 8.42473 26.9258 8.31787C27.1876 8.21101 27.4681 8.15722 27.751 8.15961C28.0258 8.15534 28.2988 8.20601 28.5538 8.30865C28.8088 8.41129 29.0407 8.56384 29.2359 8.75733C29.4311 8.95082 29.5857 9.18135 29.6906 9.43539C29.7955 9.68943 29.8485 9.96186 29.8466 10.2367C29.8542 10.5191 29.8045 10.8002 29.7006 11.0629C29.5966 11.3256 29.4406 11.5646 29.2418 11.7654C29.0429 11.9662 28.8055 12.1247 28.5438 12.2314C28.2821 12.338 28.0015 12.3905 27.7189 12.3858V12.3939Z" fill="#E18427"/>
<path d="M14.1238 15.7266C13.4927 15.4682 12.9979 15.6024 12.6973 16.2033C12.3968 16.8042 12.6553 17.2929 13.2022 17.6294C13.4057 17.7426 13.6158 17.8436 13.8313 17.9318C16.6003 19.1536 18.8146 21.3631 20.0421 24.129C20.1823 24.4314 20.2745 24.822 20.5149 24.9882C20.8355 25.2086 21.3163 25.4008 21.6589 25.3187C22.0015 25.2366 22.2279 24.7959 22.5484 24.4695C22.1237 23.5902 21.7991 22.827 21.4005 22.108C19.7516 19.1076 17.2813 17.0245 14.1238 15.7266Z" fill="#E18427"/>
</g>
<defs>
<clipPath id="clip0_1302_1851">
<rect width="38" height="38" fill="white"/>
</clipPath>
</defs>
</svg>
