<svg width="30" height="32" viewBox="0 0 30 32" fill="none" xmlns="http://www.w3.org/2000/svg">
<g clip-path="url(#clip0_741_604)">
<path d="M29.2249 19.1297C28.8673 18.7663 28.4896 18.4233 28.0935 18.1024C27.6037 17.7228 27.3931 17.304 27.4873 16.6501C27.5914 15.9154 27.3294 15.0717 27.6098 14.4521C27.8902 13.8326 28.6678 13.4089 29.2127 12.8873C30.0698 12.0681 30.2339 11.0211 29.6571 9.99133C28.969 8.76684 28.2649 7.5497 27.5449 6.3399C26.9424 5.32725 25.9531 4.95868 24.8118 5.29174C24.322 5.43501 23.82 5.54888 23.3596 5.75827C22.7694 6.02521 22.309 5.93705 21.7984 5.54521C21.2131 5.09705 20.3633 4.88276 19.9727 4.32072C19.582 3.75868 19.5967 2.88439 19.4192 2.15215C19.1412 1.0048 18.3098 0.337455 17.1331 0.327659C15.7453 0.317864 14.3575 0.317864 12.9698 0.327659C11.7514 0.333782 10.9212 0.995005 10.6433 2.17052C10.4963 2.70079 10.3785 3.23875 10.2906 3.78194C10.2208 4.32317 9.97224 4.62807 9.4702 4.8546C8.77347 5.16929 8.14653 5.83419 7.44857 5.89909C6.71387 5.96521 5.94245 5.47786 5.17836 5.2648C4.09592 4.96235 3.11265 5.3444 2.54449 6.29827C1.81469 7.52276 1.1004 8.75746 0.401629 10.0024C-0.160412 11.0028 0.00244658 12.0534 0.824079 12.8505C1.32122 13.3403 1.85755 13.7775 2.34245 14.2734C2.49164 14.4468 2.57792 14.6656 2.58735 14.8942C2.61674 15.6289 2.61674 16.3636 2.58735 17.0983C2.58125 17.3271 2.49796 17.5472 2.35101 17.7228C1.86734 18.2187 1.33714 18.6693 0.831426 19.1432C0.352753 19.5928 0.0567243 20.2032 0 20.8575C0.140816 21.2554 0.230199 21.6791 0.431015 22.0428C1.10081 23.2562 1.80122 24.4526 2.5053 25.6464C3.1053 26.664 4.08979 27.0509 5.2249 26.7301C5.65983 26.6219 6.0866 26.4832 6.50204 26.315C7.1951 26.0113 7.79143 26.026 8.4 26.5489C8.76734 26.8611 9.26571 27.0032 9.66245 27.2836C9.91305 27.4546 10.106 27.6975 10.2159 27.9803C10.4069 28.5791 10.4963 29.2048 10.6408 29.8244C10.92 31.006 11.7429 31.6721 12.9673 31.6795C14.3551 31.6885 15.7429 31.6885 17.1306 31.6795C18.3122 31.6709 19.1425 31.0097 19.4241 29.8648C19.555 29.3935 19.6572 28.9146 19.7302 28.4309C19.8135 27.7415 20.122 27.3056 20.798 27.0521C21.2878 26.8685 21.6943 26.4901 22.1669 26.2562C22.4063 26.1371 22.6779 26.0989 22.9408 26.1472C23.5935 26.304 24.2229 26.5501 24.8694 26.7338C25.9506 27.0424 26.951 26.675 27.5167 25.7334C28.2604 24.4917 28.9849 23.2395 29.6902 21.9766C30.2388 20.9787 30.0563 19.9342 29.2249 19.1297ZM27.8571 21.253C27.218 22.3195 26.6106 23.4044 25.9739 24.4734C25.8567 24.63 25.7196 24.7708 25.5661 24.8921C24.5865 24.5885 23.749 24.3497 22.9224 24.0595C22.3653 23.8648 21.9429 23.9713 21.4531 24.3044C20.6641 24.8431 19.8356 25.3216 18.9747 25.7358C18.4849 25.9807 18.1996 26.277 18.0967 26.806C17.94 27.6056 17.7367 28.3979 17.5739 29.195C17.4955 29.577 17.3155 29.7313 16.9065 29.7228C15.6624 29.6983 14.4176 29.6983 13.1718 29.7228C12.7567 29.7313 12.5914 29.5636 12.5143 29.1864C12.3465 28.3672 12.1469 27.5554 11.9767 26.7375C11.8776 26.2587 11.6094 25.9819 11.1637 25.7579C10.2612 25.2938 9.38449 24.7783 8.53102 24.226C8.11469 23.9579 7.73265 23.8721 7.26857 24.0252C6.47633 24.2897 5.67673 24.5273 4.88204 24.7905C4.51469 24.913 4.28816 24.8321 4.08979 24.4721C3.48857 23.3836 2.8653 22.3085 2.22122 21.2432C2.01183 20.8954 2.05347 20.6664 2.35469 20.4044C2.99871 19.868 3.61193 19.2956 4.19143 18.6901C4.44467 18.3904 4.59529 18.0175 4.62122 17.626C4.67571 16.55 4.67571 15.4719 4.62122 14.3958C4.60239 14.0044 4.45766 13.6294 4.20857 13.3268C3.63306 12.6962 2.97428 12.1391 2.33143 11.5734C2.04734 11.3285 2.02163 11.1019 2.20898 10.7811C2.85673 9.69501 3.49469 8.60399 4.10816 7.4995C4.29796 7.15786 4.52082 7.09909 4.85877 7.20929C5.65347 7.46766 6.45061 7.69909 7.24653 7.97093C7.73633 8.13623 8.12694 8.03827 8.5604 7.75419C9.39177 7.20686 10.2531 6.70649 11.1404 6.25541C11.6069 6.02031 11.8812 5.72888 11.9829 5.22562C12.1482 4.40644 12.3502 3.59582 12.5216 2.77664C12.5951 2.41786 12.7665 2.27215 13.1473 2.27827C14.4127 2.2995 15.678 2.2995 16.9433 2.27827C17.329 2.27092 17.4943 2.42888 17.5678 2.78154C17.7392 3.5995 17.9351 4.41133 18.1053 5.23052C18.2069 5.73378 18.4886 6.02031 18.9539 6.25541C19.8392 6.7077 20.6978 7.21057 21.5253 7.76154C21.96 8.04684 22.3531 8.13868 22.8404 7.97337C23.6118 7.71133 24.398 7.49093 25.1669 7.22766C25.5637 7.09174 25.7975 7.18358 26.0069 7.56194C26.5971 8.63378 27.2094 9.69256 27.8437 10.7383C28.0665 11.1056 28.0237 11.3505 27.7004 11.6273C27.082 12.1599 26.5041 12.7366 25.8918 13.2766C25.5404 13.5864 25.4155 13.9391 25.4302 14.4093C25.462 15.4856 25.4057 16.5656 25.4559 17.6395C25.4733 18.0127 25.6122 18.37 25.8514 18.657C26.4466 19.2759 27.0749 19.862 27.7335 20.413C28.0396 20.6762 28.0616 20.9113 27.8571 21.253Z" fill="#E18427"/>
<path d="M11.5059 12.4004C11.0871 11.951 10.5263 11.9816 9.9459 12.5032C8.97284 13.371 8.00345 14.2449 7.03774 15.1249C6.37284 15.7371 6.37284 16.271 7.03774 16.8783C8.001 17.7591 8.9708 18.633 9.94712 19.5C10.5349 20.024 11.0871 20.0522 11.5059 19.6016C11.9247 19.151 11.8316 18.5657 11.2757 18.0563C10.541 17.384 9.79529 16.7204 8.99692 16.0016C9.79529 15.2816 10.541 14.6191 11.2757 13.9457C11.8328 13.4302 11.9149 12.84 11.5059 12.4004Z" fill="#E18427"/>
<path d="M19.9565 12.3541C19.5781 12.0173 19.1483 11.9732 18.721 12.2598C18.1871 12.6161 18.1663 13.3483 18.6891 13.8381C19.4593 14.5581 20.2504 15.2622 21.0708 15.9969C20.2308 16.7561 19.4214 17.4663 18.6377 18.201C18.5413 18.2851 18.4624 18.3874 18.4056 18.502C18.3488 18.6167 18.3152 18.7414 18.3068 18.8691C18.2984 18.9968 18.3153 19.1248 18.3565 19.246C18.3977 19.3671 18.4625 19.4789 18.5471 19.5749C18.628 19.675 18.7287 19.7573 18.8431 19.8165C18.9574 19.8757 19.0828 19.9104 19.2113 19.9186C19.3397 19.9268 19.4685 19.9082 19.5894 19.864C19.7103 19.8198 19.8207 19.7509 19.9136 19.6618C21.023 18.6994 22.1153 17.7198 23.1904 16.723C23.652 16.2945 23.6471 15.6969 23.183 15.2647C22.1214 14.2826 21.034 13.3177 19.9565 12.3541Z" fill="#E18427"/>
<path d="M16.1148 10.7796C15.6115 10.7232 15.1744 11.0587 15.0373 11.649C14.4005 14.382 13.7691 17.1167 13.143 19.853C12.9838 20.5436 13.2507 21.0494 13.8373 21.1926C14.4238 21.3359 14.8805 20.9955 15.0446 20.2926C15.4622 18.511 15.8675 16.7257 16.2801 14.9428C16.525 13.8934 16.7699 12.8453 16.9915 11.8914C16.9952 11.2767 16.6156 10.8359 16.1148 10.7796Z" fill="#E18427"/>
</g>
<defs>
<clipPath id="clip0_741_604">
<rect width="30" height="31.3592" fill="white" transform="translate(0 0.320312)"/>
</clipPath>
</defs>
</svg>
