<svg width="164" height="31" viewBox="0 0 164 31" fill="none" xmlns="http://www.w3.org/2000/svg">
<g clip-path="url(#clip0_2623_3404)">
<path d="M59.8604 10.2867C60.1045 10.2867 60.2263 10.4064 60.2255 10.6459V12.2002C60.2255 12.4411 60.1042 12.5605 59.8604 12.5605H51.5281C51.2066 12.5605 50.9792 12.6423 50.8458 12.8057C50.703 13.0003 50.6327 13.2373 50.6468 13.4769V14.033C50.6468 14.644 50.9351 14.9494 51.5117 14.9494H57.7437C58.708 14.9494 59.4343 15.1922 59.9227 15.6776C60.411 16.1631 60.6549 16.8583 60.6541 17.7632V19.0722C60.6541 19.8682 60.4158 20.5135 59.9391 21.0083C59.4624 21.5031 58.7193 21.7483 57.7098 21.744H48.5006C48.2462 21.744 48.1191 21.6243 48.1191 21.3848V19.8251C48.1191 19.5856 48.2462 19.4655 48.5006 19.4648H57.232C57.5534 19.4648 57.7808 19.3831 57.9142 19.2196C58.057 19.025 58.1273 18.788 58.1132 18.5484V17.8783C58.1132 17.2674 57.8253 16.9619 57.2495 16.9619H51.012C50.0477 16.9619 49.3217 16.7192 48.8341 16.2337C48.3465 15.7482 48.1023 15.0527 48.1016 14.147V12.9531C48.1016 12.1572 48.3399 11.5118 48.8166 11.017C49.2933 10.5222 50.0364 10.277 51.0459 10.2813L59.8604 10.2867Z" fill="#E52628"/>
<path d="M71.0679 12.7515C71.6997 12.7402 72.3307 12.8034 72.9473 12.9397C73.3971 13.0363 73.8165 13.2386 74.1697 13.5291C74.4805 13.8067 74.7075 14.1633 74.8257 14.5596C74.9679 15.0515 75.035 15.5616 75.0246 16.0729V18.4296C75.0351 18.941 74.968 19.451 74.8257 19.943C74.7077 20.3394 74.4807 20.696 74.1697 20.9734C73.8176 21.264 73.3975 21.4636 72.9473 21.5542C72.33 21.6851 71.6993 21.7454 71.0679 21.7339H64.8359V24.9897C64.8359 25.2299 64.7138 25.35 64.4696 25.35H62.8362C62.5811 25.35 62.4539 25.2299 62.4546 24.9897V16.0729C62.4423 15.5618 62.5079 15.0516 62.6492 14.5596C62.7674 14.1633 62.9944 13.8067 63.3052 13.5291C63.6557 13.2396 64.072 13.0374 64.5188 12.9397C65.1382 12.8025 65.7722 12.7393 66.407 12.7515H71.0679ZM64.8359 19.7709H70.8394C71.1408 19.7773 71.4419 19.7499 71.737 19.6891C71.948 19.6462 72.1417 19.5438 72.2946 19.3944C72.441 19.2384 72.5415 19.0462 72.5854 18.8383C72.6467 18.5534 72.6746 18.2625 72.6685 17.9714V16.515C72.6737 16.226 72.6459 15.9374 72.5854 15.6545C72.5434 15.446 72.4427 15.2533 72.2946 15.0984C72.1386 14.9533 71.9461 14.8516 71.737 14.8037C71.4426 14.7378 71.1412 14.7079 70.8394 14.7145H66.6453C66.349 14.7084 66.053 14.7383 65.7641 14.8037C65.555 14.8516 65.3625 14.9533 65.2065 15.0984C65.0581 15.253 64.9572 15.4458 64.9157 15.6545C64.8552 15.9374 64.8274 16.226 64.8326 16.515L64.8359 19.7709Z" fill="#E52628"/>
<path d="M85.5001 12.7515C86.132 12.7402 86.763 12.8034 87.3796 12.9397C87.8294 13.0363 88.2488 13.2386 88.6019 13.5291C88.9127 13.8067 89.1397 14.1633 89.2579 14.5596C89.4002 15.0515 89.4673 15.5616 89.4569 16.0729V18.4296C89.4673 18.941 89.4003 19.451 89.2579 19.943C89.14 20.3394 88.913 20.696 88.6019 20.9734C88.2499 21.264 87.8298 21.4636 87.3796 21.5542C86.7622 21.6851 86.1316 21.7454 85.5001 21.7339H80.7988C80.1648 21.7462 79.5315 21.686 78.9117 21.5542C78.4641 21.4627 78.0467 21.2631 77.697 20.9734C77.3855 20.6963 77.1584 20.3396 77.041 19.943C76.8977 19.4512 76.8303 18.9411 76.8409 18.4296V16.0729C76.8304 15.5615 76.8978 15.0514 77.041 14.5596C77.1587 14.1631 77.3858 13.8064 77.697 13.5291C78.0477 13.2393 78.4645 13.037 78.9117 12.9397C79.5308 12.8025 80.1644 12.7393 80.7988 12.7515H85.5001ZM79.2135 18.0219C79.2074 18.3135 79.2353 18.6047 79.2966 18.89C79.3397 19.0955 79.4405 19.2852 79.5874 19.4374C79.7432 19.5829 79.9357 19.6847 80.145 19.7322C80.4337 19.7984 80.7298 19.8288 81.0262 19.8225H85.2673C85.5691 19.8294 85.8707 19.799 86.1649 19.7322C86.3742 19.6847 86.5667 19.5829 86.7225 19.4374C86.8698 19.2854 86.9706 19.0957 87.0133 18.89C87.0746 18.6047 87.1025 18.3135 87.0964 18.0219V16.4655C87.102 16.1797 87.0741 15.8943 87.0133 15.6147C86.9691 15.407 86.8686 15.2148 86.7225 15.0587C86.5693 14.9096 86.3757 14.8073 86.1649 14.7639C85.8697 14.7037 85.5686 14.6763 85.2673 14.6822H81.0306C80.7347 14.6768 80.4391 14.7042 80.1494 14.7639C79.9403 14.8075 79.7484 14.909 79.5961 15.0565C79.4503 15.2128 79.3498 15.4049 79.3053 15.6126C79.2446 15.8921 79.2167 16.1776 79.2222 16.4634L79.2135 18.0219Z" fill="#E52628"/>
<path d="M92.2882 12.7534V10.5947C92.2882 10.3552 92.4103 10.2351 92.6545 10.2344H94.3011C94.5452 10.2344 94.667 10.3545 94.6662 10.5947V12.7534H97.5767C97.6174 12.7477 97.6589 12.7513 97.6979 12.7641C97.7369 12.7769 97.7724 12.7984 97.8015 12.827C97.8305 12.8556 97.8524 12.8905 97.8654 12.9289C97.8784 12.9673 97.8821 13.0081 97.8763 13.0482V14.3905C97.8819 14.4305 97.8781 14.4712 97.865 14.5094C97.8519 14.5477 97.83 14.5824 97.801 14.6109C97.7719 14.6394 97.7365 14.6608 97.6976 14.6735C97.6587 14.6862 97.6173 14.6899 97.5767 14.6842H94.6662V18.48C94.6662 18.9382 94.7606 19.2738 94.9494 19.4867C95.1382 19.6997 95.5096 19.8073 96.0635 19.8094H97.6762C97.7169 19.8036 97.7584 19.8073 97.7974 19.8201C97.8364 19.8328 97.8719 19.8544 97.901 19.883C97.93 19.9116 97.9519 19.9465 97.9649 19.9849C97.9779 20.0232 97.9816 20.0641 97.9758 20.1041V21.4465C97.9814 21.4864 97.9776 21.5271 97.9645 21.5654C97.9514 21.6036 97.9295 21.6384 97.9005 21.6668C97.8714 21.6953 97.836 21.7168 97.7971 21.7295C97.7582 21.7422 97.7168 21.7458 97.6762 21.7401H95.6666C95.1121 21.7533 94.5582 21.6929 94.0201 21.5605C93.6283 21.4631 93.2697 21.2657 92.9803 20.9883C92.7088 20.7055 92.5219 20.3545 92.4402 19.974C92.3327 19.4847 92.2824 18.9848 92.2904 18.4843V14.6842H90.7084C90.6678 14.6899 90.6264 14.6862 90.5874 14.6735C90.5485 14.6608 90.5131 14.6394 90.4841 14.6109C90.455 14.5824 90.4331 14.5477 90.42 14.5094C90.407 14.4712 90.4031 14.4305 90.4088 14.3905V13.0482C90.4032 13.0082 90.407 12.9674 90.4201 12.9291C90.4332 12.8909 90.4551 12.8561 90.4841 12.8275C90.5131 12.799 90.5485 12.7774 90.5874 12.7646C90.6263 12.7517 90.6677 12.7479 90.7084 12.7534H92.2882Z" fill="#E52628"/>
<path d="M116.503 10.2814C116.747 10.2814 116.869 10.4012 116.869 10.6407V12.1949C116.869 12.4359 116.747 12.5553 116.503 12.5553H108.171C107.849 12.5553 107.624 12.637 107.49 12.8005C107.347 12.9949 107.276 13.232 107.29 13.4717V14.0278C107.29 14.6387 107.578 14.9442 108.154 14.9442H114.386C115.352 14.9442 116.078 15.1869 116.565 15.6724C117.053 16.1578 117.297 16.853 117.297 17.758V19.067C117.297 19.8629 117.059 20.5083 116.582 21.0031C116.105 21.4978 115.366 21.7413 114.364 21.7334H105.145C104.89 21.7334 104.763 21.6136 104.762 21.3741V19.8199C104.762 19.5804 104.889 19.4603 105.145 19.4596H113.876C114.197 19.4596 114.425 19.3778 114.558 19.2143C114.7 19.0195 114.771 18.7827 114.757 18.5432V17.8731C114.757 17.2621 114.469 16.9566 113.892 16.9566H107.66C106.696 16.9566 105.97 16.7139 105.481 16.2285C104.993 15.743 104.747 15.0474 104.742 14.1418V12.9479C104.742 12.1519 104.981 11.5065 105.457 11.0118C105.934 10.517 106.68 10.2735 107.694 10.2814H116.503Z" fill="#E52628"/>
<path d="M120.563 12.7516C120.648 12.7437 120.733 12.7658 120.802 12.8139C120.872 12.8619 120.923 12.9329 120.944 13.014L123.09 19.7387C123.102 19.7728 123.124 19.8023 123.154 19.8228C123.184 19.8434 123.22 19.8538 123.257 19.8527H123.323C123.423 19.8527 123.479 19.815 123.49 19.7387L125.735 13.5378C125.807 13.3022 125.942 13.09 126.127 12.9237C126.276 12.8096 126.501 12.7516 126.8 12.7516H128.779C129.079 12.7516 129.303 12.8096 129.453 12.9237C129.602 13.0377 129.732 13.2463 129.843 13.5378L132.077 19.7387C132.088 19.815 132.143 19.8527 132.243 19.8527H132.309C132.346 19.8535 132.382 19.8429 132.411 19.8224C132.441 19.8019 132.464 19.7726 132.476 19.7387L134.632 13.0129C134.666 12.8387 134.792 12.7505 135.014 12.7505H136.894C137.038 12.7505 137.129 12.787 137.168 12.858C137.208 12.9493 137.211 13.0521 137.176 13.1452L134.648 20.7196C134.516 21.1348 134.357 21.4069 134.175 21.5382C133.992 21.6694 133.723 21.7339 133.368 21.7339H131.273C131.03 21.7499 130.791 21.6706 130.607 21.5134C130.452 21.3657 130.302 21.1011 130.158 20.7196L127.963 14.7479C127.954 14.7171 127.934 14.6905 127.906 14.6727C127.879 14.6548 127.846 14.6468 127.814 14.65H127.713C127.625 14.65 127.574 14.6823 127.564 14.7479L125.385 20.7196C125.24 21.1011 125.09 21.3657 124.936 21.5134C124.753 21.6705 124.514 21.7497 124.271 21.7339H122.175C121.82 21.7339 121.552 21.6694 121.368 21.5382C121.185 21.4069 121.028 21.1348 120.895 20.7196L118.4 13.1452C118.367 13.0523 118.367 12.9509 118.4 12.858C118.434 12.7881 118.528 12.7505 118.683 12.7505L120.563 12.7516Z" fill="#E52628"/>
<path d="M145.74 12.7527C146.371 12.7413 147.002 12.8045 147.619 12.9409C148.069 13.0375 148.488 13.2397 148.841 13.5303C149.152 13.8079 149.379 14.1645 149.497 14.5607C149.64 15.0526 149.707 15.5627 149.696 16.0741V20.426C149.701 20.6426 149.682 20.859 149.638 21.0714C149.61 21.2204 149.542 21.3592 149.439 21.4726C149.337 21.5749 149.207 21.6459 149.064 21.6769C148.868 21.7195 148.667 21.7386 148.466 21.734H140.549C140.138 21.743 139.726 21.6963 139.327 21.5952C139.034 21.5209 138.763 21.3777 138.538 21.1779C138.331 20.9815 138.184 20.7323 138.114 20.4583C138.025 20.1161 137.983 19.7638 137.989 19.4106V18.6255C137.985 18.3185 138.027 18.0125 138.114 17.7176C138.191 17.4585 138.338 17.2243 138.538 17.0389C138.763 16.8391 139.034 16.6959 139.327 16.6216C139.726 16.5205 140.138 16.4738 140.549 16.4829H147.318V16.172C147.323 15.9455 147.295 15.7195 147.235 15.5008C147.187 15.3274 147.089 15.1713 146.953 15.0512C146.794 14.9244 146.607 14.8373 146.406 14.7974C146.111 14.7366 145.81 14.7092 145.508 14.7156H138.556C138.516 14.7214 138.474 14.7177 138.435 14.705C138.396 14.6922 138.361 14.6707 138.332 14.642C138.302 14.6134 138.281 14.5786 138.268 14.5402C138.255 14.5018 138.251 14.461 138.257 14.4209V13.0474C138.251 13.0073 138.255 12.9665 138.268 12.9281C138.281 12.8897 138.302 12.8548 138.332 12.8262C138.361 12.7976 138.396 12.7761 138.435 12.7633C138.474 12.7505 138.516 12.7469 138.556 12.7527H145.74ZM146.833 19.9355C146.9 19.9426 146.969 19.9353 147.033 19.9141C147.098 19.893 147.157 19.8585 147.207 19.8129C147.279 19.7312 147.316 19.587 147.316 19.3827V17.9392H141.23C140.886 17.9392 140.645 18.0077 140.506 18.1447C140.432 18.2253 140.376 18.3197 140.34 18.4223C140.304 18.5249 140.29 18.6335 140.298 18.7416V19.0847C140.298 19.3795 140.367 19.5946 140.506 19.7301C140.644 19.8656 140.886 19.9337 141.23 19.9345L146.833 19.9355Z" fill="#E52628"/>
<path d="M160.042 12.7515C160.674 12.7402 161.305 12.8034 161.922 12.9397C162.371 13.0366 162.791 13.2388 163.144 13.5292C163.455 13.8067 163.682 14.1633 163.8 14.5596C163.943 15.0514 164.011 15.5615 164 16.073V18.4296C164.011 18.9411 163.943 19.4512 163.8 19.943C163.682 20.3394 163.455 20.6961 163.144 20.9734C162.792 21.2638 162.372 21.4634 161.922 21.5542C161.304 21.6851 160.674 21.7454 160.042 21.7339H153.81V24.9897C153.81 25.2299 153.689 25.35 153.445 25.35H151.81C151.555 25.35 151.428 25.2299 151.427 24.9897V16.073C151.416 15.5615 151.484 15.0514 151.627 14.5596C151.745 14.1633 151.972 13.8068 152.283 13.5292C152.633 13.2396 153.05 13.0375 153.497 12.9397C154.116 12.8025 154.75 12.7392 155.385 12.7515H160.042ZM153.81 19.7709H159.815C160.116 19.7773 160.417 19.7498 160.713 19.6891C160.924 19.6462 161.117 19.5438 161.27 19.3944C161.416 19.2381 161.516 19.046 161.561 18.8383C161.622 18.5534 161.65 18.2625 161.644 17.9714V16.515C161.649 16.2261 161.621 15.9375 161.561 15.6545C161.519 15.4462 161.418 15.2536 161.27 15.0985C161.114 14.9533 160.922 14.8516 160.713 14.8037C160.418 14.7379 160.117 14.7079 159.815 14.7145H155.624C155.327 14.7084 155.031 14.7384 154.742 14.8037C154.533 14.8514 154.341 14.9532 154.185 15.0985C154.037 15.253 153.936 15.4459 153.895 15.6545C153.834 15.9373 153.805 16.226 153.81 16.515V19.7709Z" fill="#E52628"/>
<path d="M39.0615 0H1.312C0.587402 0 0 0.577878 0 1.29073V29.7093C0 30.4221 0.587402 31 1.312 31H39.0615C39.7861 31 40.3735 30.4221 40.3735 29.7093V1.29073C40.3735 0.577878 39.7861 0 39.0615 0Z" fill="#E52628"/>
<path d="M35.6224 8.01358L32.7798 6.43997C32.7301 6.41162 32.6744 6.39498 32.617 6.39137C32.5597 6.38776 32.5023 6.39727 32.4493 6.41916C32.3964 6.44104 32.3493 6.47471 32.3117 6.51751C32.2742 6.56031 32.2473 6.61109 32.2331 6.66585L32.0614 7.31121H14.754C13.4934 7.31121 12.3563 7.95658 11.7888 8.99991L9.87442 12.5042C9.62782 12.9524 9.50473 13.4563 9.51739 13.9658C9.53005 14.4752 9.67802 14.9726 9.94658 15.4084C10.2485 15.888 10.6704 16.2834 11.1718 16.557C11.6733 16.8306 12.2377 16.9732 12.8111 16.9712H27.6312C27.718 16.9644 27.8052 16.9795 27.8844 17.0151C27.9636 17.0507 28.0323 17.1055 28.0839 17.1745C28.0992 17.1947 28.1074 17.2192 28.1074 17.2444C28.1074 17.2696 28.0992 17.2941 28.0839 17.3143L26.1749 20.8251C26.1237 20.8958 26.0551 20.9525 25.9756 20.9901C25.8961 21.0277 25.8082 21.045 25.7201 21.0402H9.01506L9.1725 20.4486C9.19146 20.3781 9.18852 20.3035 9.16405 20.2346C9.13958 20.1657 9.09471 20.1056 9.03521 20.0619C8.9757 20.0183 8.90429 19.9932 8.83017 19.9899C8.75604 19.9865 8.68259 20.0051 8.61928 20.0431L4.74122 22.36C4.68574 22.3932 4.64005 22.44 4.60871 22.496C4.57736 22.5519 4.56145 22.6149 4.56255 22.6788C4.56366 22.7426 4.58174 22.8051 4.61501 22.8599C4.64827 22.9148 4.69556 22.9601 4.75216 22.9914L7.59482 24.565C7.64457 24.5931 7.70024 24.6096 7.7575 24.6131C7.81477 24.6166 7.87208 24.607 7.92498 24.5852C7.97788 24.5633 8.02494 24.5297 8.06249 24.487C8.10004 24.4444 8.12708 24.3937 8.14149 24.3391L8.27487 23.8379H25.7201C26.9807 23.8379 28.1178 23.1925 28.6852 22.1492L30.5975 18.6406C30.8444 18.1925 30.9678 17.6887 30.9554 17.1792C30.9429 16.6697 30.795 16.1722 30.5264 15.7364C30.2246 15.2566 29.8028 14.861 29.3013 14.5872C28.7998 14.3134 28.2354 14.1706 27.6619 14.1725H12.8406C12.7541 14.1795 12.6672 14.1645 12.5883 14.1289C12.5094 14.0933 12.4412 14.0383 12.3902 13.9692C12.375 13.9492 12.3668 13.9248 12.3668 13.8998C12.3668 13.8748 12.375 13.8505 12.3902 13.8305L14.3035 10.3197C14.355 10.249 14.4238 10.1923 14.5035 10.1547C14.5832 10.1171 14.6712 10.0998 14.7594 10.1046H31.3223L31.201 10.5574C31.182 10.628 31.185 10.7025 31.2094 10.7714C31.2339 10.8403 31.2788 10.9005 31.3383 10.9441C31.3978 10.9877 31.4692 11.0128 31.5433 11.0162C31.6174 11.0195 31.6909 11.001 31.7542 10.9629L35.6334 8.64174C35.6881 8.60838 35.7331 8.56162 35.7639 8.50603C35.7947 8.45044 35.8103 8.38792 35.8092 8.32461C35.8081 8.26129 35.7903 8.19934 35.7576 8.14482C35.7248 8.0903 35.6783 8.04508 35.6224 8.01358Z" fill="white"/>
</g>
<defs>
<clipPath id="clip0_2623_3404">
<rect width="164" height="31" fill="white"/>
</clipPath>
</defs>
</svg>
