<svg width="152" height="82" viewBox="0 0 152 82" fill="none" xmlns="http://www.w3.org/2000/svg">
<path d="M1.36213 5.12341C0.550216 5.3668 0.0893395 6.22229 0.33273 7.0342C0.57612 7.84611 1.43161 8.30699 2.24352 8.0636L1.36213 5.12341ZM89.7678 45.6936L90.7334 46.8865L90.7334 46.8865L89.7678 45.6936ZM79.5134 33.4992L80.1404 34.9L79.5134 33.4992ZM145.249 79.6604L144.038 80.6033C144.382 81.0451 144.94 81.2645 145.492 81.1758C146.045 81.087 146.506 80.7043 146.694 80.177L145.249 79.6604ZM137.622 67.3664C137.101 66.6976 136.137 66.5776 135.468 67.0983C134.799 67.619 134.679 68.5833 135.2 69.2521L137.622 67.3664ZM151.779 65.9516C152.065 65.1534 151.649 64.2751 150.851 63.9898C150.053 63.7045 149.174 64.1202 148.889 64.9184L151.779 65.9516ZM146.46 78.7176L137.622 67.3664L135.2 69.2521L144.038 80.6033L146.46 78.7176ZM146.694 80.177L151.779 65.9516L148.889 64.9184L143.804 79.1439L146.694 80.177ZM80.1404 34.9C94.0436 28.6767 109.251 32.3269 121.419 41.4335C133.598 50.5479 142.488 64.9657 143.72 79.7876L146.779 79.5333C145.464 63.7141 136.036 48.5383 123.259 38.976C110.471 29.4057 94.0835 25.2959 78.8863 32.0984L80.1404 34.9ZM2.24352 8.0636C33.4891 -1.30302 59.3996 4.8714 75.2793 14.9971C83.2429 20.0752 88.5916 26.0845 90.9123 31.5289C92.0689 34.2425 92.448 36.7514 92.1033 38.9189C91.7631 41.0584 90.7051 42.9602 88.8021 44.5008L90.7334 46.8865C93.2137 44.8786 94.673 42.3041 95.1347 39.401C95.5919 36.5258 95.0574 33.4256 93.7359 30.3254C91.1003 24.142 85.2341 17.7045 76.9296 12.4091C60.2729 1.78784 33.4344 -4.49105 1.36213 5.12341L2.24352 8.0636ZM88.8021 44.5008C83.6126 48.7018 78.7896 47.1529 76.6138 44.3661C75.4971 42.9359 75.0635 41.1924 75.4841 39.5673C75.8982 37.9674 77.2141 36.2099 80.1404 34.9L78.8863 32.0984C75.3174 33.6959 73.2124 36.0943 72.5126 38.7983C71.8192 41.4772 72.5786 44.1856 74.1944 46.2551C77.4834 50.4675 84.2828 52.1084 90.7334 46.8865L88.8021 44.5008Z" fill="#E4903D"/>
</svg>
