<svg width="96" height="129" viewBox="0 0 96 129" fill="none" xmlns="http://www.w3.org/2000/svg">
<path d="M2.16715 0.478635C1.32042 0.440142 0.602804 1.09535 0.564311 1.94208C0.525818 2.78882 1.18103 3.50643 2.02776 3.54493L2.16715 0.478635ZM45.5279 79.5705L46.1561 80.9708L46.1561 80.9708L45.5279 79.5705ZM29.8933 74.8112L28.6384 75.6948L29.8933 74.8112ZM90.4649 84.1782L88.9643 84.5L88.9643 84.5L90.4649 84.1782ZM82.1643 126.983L80.6437 127.191C80.7194 127.746 81.0913 128.215 81.614 128.416C82.1367 128.617 82.7273 128.517 83.1549 128.155L82.1643 126.983ZM81.7385 112.521C81.6239 111.682 80.8501 111.094 80.0103 111.208C79.1705 111.323 78.5826 112.097 78.6973 112.937L81.7385 112.521ZM94.6934 118.404C95.3408 117.857 95.422 116.889 94.8749 116.241C94.3278 115.594 93.3595 115.513 92.7121 116.06L94.6934 118.404ZM44.8997 78.1703C42.2979 79.3375 39.8033 79.5567 37.5369 78.8985C35.2662 78.2391 33.0669 76.6528 31.1482 73.9277L28.6384 75.6948C30.874 78.87 33.6126 80.9552 36.6808 81.8462C39.7534 82.7385 42.9989 82.3872 46.1561 80.9708L44.8997 78.1703ZM31.1482 73.9277C29.3916 71.4329 29.0996 68.9827 29.7374 66.5773C30.3949 64.0976 32.0702 61.5755 34.4209 59.1444L32.2142 57.0108C29.6764 59.6355 27.6152 62.6049 26.7705 65.7906C25.9061 69.0503 26.3461 72.4391 28.6384 75.6948L31.1482 73.9277ZM34.4209 59.1444C42.3871 50.9055 54.4793 50.7388 65.574 56.0583C76.6575 61.3724 86.2812 71.9881 88.9643 84.5L91.9655 83.8564C89.0515 70.2677 78.6951 58.9454 66.901 53.2905C55.1181 47.641 41.4351 47.4743 32.2142 57.0108L34.4209 59.1444ZM88.9643 84.5C89.7109 87.9819 89.6149 92.3221 88.9967 96.9596C88.3812 101.577 87.2628 106.387 86.0368 110.763C84.812 115.135 83.487 119.05 82.4678 121.872C81.9585 123.282 81.5263 124.418 81.2221 125.199C81.07 125.59 80.95 125.891 80.8685 126.095C80.8277 126.196 80.7965 126.273 80.7758 126.324C80.7654 126.349 80.7576 126.368 80.7525 126.381C80.75 126.387 80.7481 126.392 80.747 126.394C80.7464 126.396 80.746 126.397 80.7457 126.397C80.7456 126.398 80.7456 126.398 80.7455 126.398C80.7455 126.398 80.7455 126.398 82.1643 126.983C83.5831 127.568 83.5832 127.568 83.5834 127.568C83.5835 127.567 83.5837 127.567 83.5839 127.566C83.5844 127.565 83.585 127.564 83.5858 127.562C83.5874 127.558 83.5897 127.552 83.5927 127.545C83.5987 127.53 83.6074 127.509 83.6186 127.481C83.6412 127.426 83.6742 127.344 83.7169 127.238C83.8022 127.026 83.9262 126.714 84.0824 126.313C84.3946 125.511 84.8359 124.352 85.3548 122.915C86.392 120.043 87.7422 116.054 88.9925 111.591C90.2417 107.132 91.3984 102.173 92.0393 97.3651C92.6774 92.5776 92.8189 87.8363 91.9655 83.8564L88.9643 84.5ZM83.6849 126.775L81.7385 112.521L78.6973 112.937L80.6437 127.191L83.6849 126.775ZM83.1549 128.155L94.6934 118.404L92.7121 116.06L81.1737 125.811L83.1549 128.155ZM2.02776 3.54493C23.1664 4.5059 44.1519 18.8312 54.6327 35.2565C59.8648 43.456 62.3589 51.991 61.1402 59.4954C59.9372 66.9042 55.0663 73.6093 44.8997 78.1703L46.1561 80.9708C57.0928 76.0643 62.7735 68.5875 64.17 59.9874C65.551 51.4829 62.6928 42.1819 57.2203 33.6054C46.2919 16.4786 24.459 1.49203 2.16715 0.478635L2.02776 3.54493Z" fill="#E4903D"/>
</svg>
