<svg width="59" height="107" viewBox="0 0 59 107" fill="none" xmlns="http://www.w3.org/2000/svg">
<path d="M10.5008 0.302421C9.71913 -0.0254118 8.81973 0.342466 8.49189 1.12411C8.16406 1.90575 8.53194 2.80515 9.31358 3.13299L10.5008 0.302421ZM22.5755 66.9845L22.9161 68.481L22.5755 66.9845ZM5.42981 46.5864L4.33419 45.5116L5.42981 46.5864ZM56.0844 62.7824L57.5602 62.3615L56.0844 62.7824ZM46.5385 105.469L45.0164 105.666C45.0882 106.221 45.4567 106.693 45.9779 106.898C46.4992 107.102 47.0904 107.007 47.5207 106.648L46.5385 105.469ZM46.4929 93.1416C46.3842 92.301 45.6147 91.7076 44.7741 91.8163C43.9335 91.9249 43.3401 92.6944 43.4487 93.535L46.4929 93.1416ZM57.3904 98.4285C58.0417 97.8861 58.1299 96.9183 57.5875 96.267C57.0451 95.6157 56.0774 95.5275 55.426 96.0699L57.3904 98.4285ZM9.31358 3.13299C22.4289 8.6338 30.4862 15.1424 35.0654 21.7458C39.6285 28.3259 40.8074 35.097 40.0023 41.3045C39.1932 47.5428 36.3721 53.2511 32.8838 57.5964C29.3608 61.9849 25.3224 64.7856 22.235 65.4881L22.9161 68.481C26.9458 67.5641 31.5307 64.1851 35.2774 59.518C39.0586 54.8077 42.1533 48.5844 43.0463 41.6993C43.9432 34.7834 42.6103 27.2393 37.5877 19.9966C32.5812 12.7772 23.979 5.95544 10.5008 0.302421L9.31358 3.13299ZM22.235 65.4881C21.5227 65.6501 20.3067 65.672 18.7351 65.4708C17.1975 65.2741 15.4381 64.8795 13.6937 64.2998C10.1059 63.1074 6.97969 61.2669 5.68703 59.1257L3.0593 60.712C4.94324 63.8327 8.97705 65.9667 12.7257 67.2126C14.6495 67.8519 16.6024 68.2924 18.3455 68.5155C20.0544 68.7342 21.6872 68.7606 22.9161 68.481L22.235 65.4881ZM5.68703 59.1257C4.16897 56.6111 3.56288 54.6685 3.67163 52.9787C3.77789 51.3276 4.58688 49.6373 6.52542 47.6611L4.33419 45.5116C2.08557 47.804 0.77794 50.149 0.608515 52.7816C0.441584 55.3754 1.40076 57.9648 3.0593 60.712L5.68703 59.1257ZM6.52542 47.6611C13.2987 40.7561 23.9479 40.1798 33.83 43.7452C43.722 47.3142 52.2189 54.8258 54.6085 63.2034L57.5602 62.3615C54.8118 52.7259 45.3421 44.6356 34.8717 40.8579C24.3914 37.0767 12.2823 37.4089 4.33419 45.5116L6.52542 47.6611ZM54.6085 63.2034C55.528 66.427 55.4699 70.6066 54.7767 75.1872C54.0878 79.7395 52.7946 84.5468 51.364 88.9538C49.9351 93.3555 48.3799 97.3253 47.181 100.196C46.5819 101.631 46.0728 102.788 45.7143 103.585C45.5351 103.984 45.3936 104.292 45.2975 104.5C45.2494 104.604 45.2126 104.682 45.1881 104.734C45.1759 104.761 45.1667 104.78 45.1608 104.793C45.1578 104.799 45.1556 104.804 45.1542 104.806C45.1535 104.808 45.153 104.809 45.1528 104.809C45.1526 104.81 45.1526 104.81 45.1525 104.81C45.1525 104.81 45.1525 104.81 46.5385 105.469C47.9244 106.128 47.9246 106.128 47.9248 106.128C47.9249 106.127 47.9252 106.127 47.9254 106.126C47.926 106.125 47.9267 106.123 47.9277 106.121C47.9296 106.117 47.9323 106.112 47.9359 106.104C47.9429 106.089 47.9532 106.068 47.9665 106.039C47.9932 105.982 48.0322 105.899 48.0825 105.79C48.1833 105.573 48.3296 105.254 48.5138 104.844C48.8822 104.025 49.4024 102.842 50.0133 101.379C51.2344 98.4552 52.8218 94.4043 54.2835 89.9015C55.7434 85.4041 57.0887 80.4234 57.8116 75.6465C58.5302 70.8978 58.6572 66.2071 57.5602 62.3615L54.6085 63.2034ZM48.0606 105.272L46.4929 93.1416L43.4487 93.535L45.0164 105.666L48.0606 105.272ZM47.5207 106.648L57.3904 98.4285L55.426 96.0699L45.5563 104.29L47.5207 106.648Z" fill="#E4903D"/>
</svg>
