<svg width="171" height="165" viewBox="0 0 171 165" fill="none" xmlns="http://www.w3.org/2000/svg">
<path d="M80.6445 71.633C80.3072 71.2769 80.1627 70.9245 79.8895 70.8028C71.0522 63.4093 61.6837 57.055 50.8991 53.2391C46.0131 51.5155 40.9014 50.7203 35.7413 50.2739C34.4071 50.1324 32.9926 49.8727 31.6745 49.6149C31.2084 49.4896 30.662 49.2462 30.3246 48.8901C30.164 48.6539 30.0518 48.0689 30.1967 47.7219C30.3416 47.3749 30.8561 47.1513 31.1455 47.1567C43.9093 47.862 56.0932 50.6549 66.8277 57.6177C72.3235 61.218 77.7067 64.9328 82.7036 69.3399C83.2178 69.8159 84.0051 70.4135 84.6 70.3081C92.3333 68.9373 99.4539 70.5862 106.124 73.3924C116.458 77.6663 126.519 82.5179 136.708 87.1388C137.351 87.384 138.074 87.7473 139.055 87.6491C135.426 80.353 131.684 73.1715 127.975 65.7574C129.166 64.847 129.905 65.094 130.596 65.6899C131.367 66.4038 132.235 67.1195 132.877 68.0642C136.298 73.3744 139.719 78.6847 143.028 84.1094C143.734 85.2884 144.216 86.6964 144.601 88.1026C145.274 90.9132 143.906 93.1027 141.334 93.5208C136.302 94.2427 131.382 94.8501 126.382 95.3394C124.903 95.5448 124.132 94.8309 124.117 93.5482C124.182 92.3836 125.002 91.3497 126.497 91.028C129.086 90.4936 131.642 90.1917 134.52 89.6626C134.086 89.3048 133.926 89.0686 133.652 88.9469C123.302 84.7893 112.968 80.5155 102.489 76.5887C99.3707 75.3645 95.8503 74.9488 92.5552 74.3042C91.2371 74.0464 89.758 74.2519 88.0218 74.2193C88.4875 75.0441 88.8891 75.6346 89.2103 76.1069C92.0054 79.6567 94.4465 83.6662 96.1317 88.2444C97.5922 92.3521 98.2487 96.678 97.4742 101.56C97.1517 103.186 96.813 104.928 96.2012 106.549C93.5604 113.728 87.6262 117.464 81.5827 115.719C74.0283 113.712 65.7871 104.114 67.7726 90.5115C68.8382 82.837 72.6355 77.079 78.5217 72.9922C79.165 72.538 79.9048 72.0855 80.6445 71.633ZM94.7573 101.626C95.2744 97.2052 94.8265 93.4662 93.5585 90.0616C91.7131 84.5477 88.6614 80.0604 85.2557 76.0329C84.5168 75.0864 83.6487 75.0701 82.5392 75.3991C76.7507 77.3892 71.7309 84.2901 70.9713 91.1543C69.969 100.462 75.204 110.12 82.5494 112.239C87.4677 113.73 91.8421 110.781 93.9355 104.758C94.2899 103.599 94.564 102.321 94.7573 101.626Z" fill="#E18427"/>
</svg>
