<svg width="430" height="555" viewBox="0 0 430 555" fill="none" xmlns="http://www.w3.org/2000/svg">
<g opacity="0.3">
<line x1="1.19531" y1="6.82812" x2="1.19531" y2="554.01" stroke="#37554D" stroke-width="1.5"/>
<line x1="85.8359" y1="6.82812" x2="85.8359" y2="554.01" stroke="#37554D" stroke-width="1.5"/>
<line x1="170.477" y1="6.82812" x2="170.477" y2="554.01" stroke="#37554D" stroke-width="1.5"/>
<line x1="255.125" y1="6.82812" x2="255.125" y2="554.01" stroke="#37554D" stroke-width="1.5"/>
<line x1="339.766" y1="6.82812" x2="339.766" y2="554.01" stroke="#37554D" stroke-width="1.5"/>
<line x1="424.406" y1="6.82812" x2="424.406" y2="554.01" stroke="#37554D" stroke-width="1.5"/>
<line x1="0.445312" y1="6.07812" x2="421.963" y2="6.07812" stroke="#37554D" stroke-width="1.5"/>
<line x1="0.445312" y1="142.875" x2="421.963" y2="142.875" stroke="#37554D" stroke-width="1.5"/>
<line x1="0.445312" y1="279.672" x2="421.963" y2="279.672" stroke="#37554D" stroke-width="1.5"/>
<line x1="0.445312" y1="416.461" x2="421.963" y2="416.461" stroke="#37554D" stroke-width="1.5"/>
<line x1="0.445312" y1="553.266" x2="421.963" y2="553.266" stroke="#37554D" stroke-width="1.5"/>
<path d="M33.654 483.194L2.32031 552.3H423.658V125.312L307.657 355.902L251.99 263.761L209.322 406.115L130.322 366.246L84.2471 500.099L33.654 483.194Z" fill="#072C21"/>
<path d="M428.776 7.42048C428.776 10.8186 426.595 13.3722 424.126 13.3722C421.658 13.3722 419.477 10.8186 419.477 7.42048C419.477 4.0224 421.658 1.46875 424.126 1.46875C426.595 1.46875 428.776 4.0224 428.776 7.42048Z" fill="#2C3E39" stroke="#37554D"/>
<path d="M344.51 7.42048C344.51 10.8186 342.329 13.3722 339.861 13.3722C337.392 13.3722 335.211 10.8186 335.211 7.42048C335.211 4.0224 337.392 1.46875 339.861 1.46875C342.329 1.46875 344.51 4.0224 344.51 7.42048Z" fill="#2C3E39" stroke="#37554D"/>
<path d="M2.98438 551.883L33.6629 482.78L82.9937 499.499L130.268 365.838L208.596 405.704L252.329 262.184L307.812 354.32L423.172 123.539L388.601 135.856" stroke="#4A6A61" stroke-width="2"/>
<path d="M423.195 125.3L425.164 121.781V168.703H423.195V125.3Z" fill="#4A6A61"/>
</g>
</svg>
