<svg width="48" height="47" viewBox="0 0 48 47" fill="none" xmlns="http://www.w3.org/2000/svg">
<path fill-rule="evenodd" clip-rule="evenodd" d="M4.2437 24.435C5.72333 18.4188 5.62644 12.6253 5.80377 6.52298C5.83823 5.33123 4.90205 4.34044 3.7139 4.30455C2.52503 4.26865 1.53284 5.20916 1.49766 6.4009C1.32967 12.1873 1.46537 17.6937 0.0611205 23.4083C-0.223175 24.5642 0.48399 25.7344 1.6384 26.0144C2.7921 26.3016 3.96013 25.5909 4.2437 24.435Z" fill="#12141D"/>
<path fill-rule="evenodd" clip-rule="evenodd" d="M16.8185 36.0961C26.8564 26.9211 36.3143 15.1186 42.9249 3.20113C43.5014 2.16015 43.1259 0.846303 42.0863 0.271969C41.0468 -0.302366 39.7345 0.0709831 39.158 1.11196C32.7656 12.6346 23.6186 24.0495 13.9124 32.9158C13.0351 33.7199 12.9741 35.0839 13.776 35.9598C14.5779 36.8356 15.9412 36.9002 16.8185 36.0961Z" fill="#12141D"/>
<path fill-rule="evenodd" clip-rule="evenodd" d="M19.3585 46.1174C28.5392 47.6322 38.0021 45.0477 46.35 41.3935C47.4391 40.9125 47.9359 39.6418 47.4599 38.5578C46.9832 37.4665 45.7118 36.9711 44.6227 37.445C37.02 40.7761 28.4215 43.2458 20.0599 41.8674C18.8868 41.6735 17.7776 42.4704 17.5845 43.6406C17.3906 44.8108 18.1861 45.9235 19.3585 46.1174Z" fill="#12141D"/>
</svg>
